STARTFONT 2.3
FONT -FontForge-Hanalei-Book-R-Normal--36-360-72-72-P-182-ISO10646-1
SIZE 36 72 72  2
FONTBOUNDINGBOX 46 48 -2 -10
COMMENT "Generated by fontforge, http://fontforge.sourceforge.net"
COMMENT "Copyright (c) 2012 by Brian J. Bonislawsky DBA Astigmatic (AOETI) (astigma@astigmatic.com), with ReservedFont Name "Hanalei""
STARTPROPERTIES 40
FOUNDRY "FontForge"
FAMILY_NAME "Hanalei"
WEIGHT_NAME "Book"
SLANT "R"
SETWIDTH_NAME "Normal"
ADD_STYLE_NAME ""
PIXEL_SIZE 36
POINT_SIZE 360
RESOLUTION_X 72
RESOLUTION_Y 72
SPACING "P"
AVERAGE_WIDTH 182
CHARSET_REGISTRY "ISO10646"
CHARSET_ENCODING "1"
FONTNAME_REGISTRY ""
CHARSET_COLLECTIONS "ISO8859-2 ISO8859-9 ISO8859-4 ISO10646-1"
BITS_PER_PIXEL 2
FONT_NAME "Hanalei-Regular"
FACE_NAME "Hanalei"
COPYRIGHT "Copyright (c) 2012 by Brian J. Bonislawsky DBA Astigmatic (AOETI) (astigma@astigmatic.com), with ReservedFont Name "Hanalei""
FONT_VERSION "1.000"
FONT_ASCENT 29
FONT_DESCENT 7
UNDERLINE_POSITION -5
UNDERLINE_THICKNESS 1
X_HEIGHT 24
CAP_HEIGHT 24
RAW_ASCENT 799
RAW_DESCENT 200
NORM_SPACE 7
RELATIVE_WEIGHT 40
RELATIVE_SETWIDTH 50
SUPERSCRIPT_X 0
SUPERSCRIPT_Y 17
SUPERSCRIPT_SIZE 23
SUBSCRIPT_X 0
SUBSCRIPT_Y 5
SUBSCRIPT_SIZE 23
AVG_LOWERCASE_WIDTH 194
AVG_UPPERCASE_WIDTH 190
ENDPROPERTIES
CHARS 366
STARTCHAR space
ENCODING 32
SWIDTH 200 0
DWIDTH 7 0
BBX 1 1 0 0
BITMAP
00
ENDCHAR
STARTCHAR exclam
ENCODING 33
SWIDTH 257 0
DWIDTH 9 0
BBX 7 26 1 -1
BITMAP
1AA0
A418
9008
5008
6018
2018
2018
6018
6548
BA8C
5018
6014
6024
6024
6024
6024
9018
2AA0
0540
0500
6AA0
5020
6020
6020
65A0
0640
ENDCHAR
STARTCHAR quotedbl
ENCODING 34
SWIDTH 476 0
DWIDTH 17 0
BBX 15 16 1 11
BITMAP
05400540
79B479B4
9018500C
50146018
60242014
50242018
95146508
BA98BA8C
80145008
90246018
50246018
90146018
8018500C
C01C900C
7AB429B4
05400540
ENDCHAR
STARTCHAR numbersign
ENCODING 35
SWIDTH 1076 0
DWIDTH 39 0
BBX 37 26 1 0
BITMAP
00400000400000000000
1EBA401EB80795A55900
300A80300A1855769600
3009C030092400300200
2408902408240021BF40
240C60240C2400260180
240C30240C28555A0080
300C18300C2B9AA60140
35490935491408020240
795B9679591808020200
60090360081408020200
300C02700C1408060200
300D01B00C240EAA6B40
300E00B00C2009355740
300E40300C2968200240
20098058082A90200240
7A99DA4E991400200200
6009A00C090C6A5A9600
300C70090C0695645800
30082402080040000000
30080C028801AAAA9000
20080900980300142000
600C06006C0600001400
90090201C90600001400
A009035A490205502000
2EB4006EB401AA6A9000
ENDCHAR
STARTCHAR dollar
ENCODING 36
SWIDTH 453 0
DWIDTH 16 0
BBX 15 34 1 -5
BITMAP
00050000
006AA000
00902400
00802400
00502000
00502240
00503DD0
006AE030
01AA0024
6E420014
C0014064
80015AA0
8001A400
906E4000
B59B8000
8A02A000
A4091900
1A1802E0
01800020
00780020
00074030
002E90B0
16D62B64
A9024414
800141B4
80002940
800AF000
60A42000
2A902000
05902000
00802000
00802000
00A5A000
001A4000
ENDCHAR
STARTCHAR percent
ENCODING 37
SWIDTH 889 0
DWIDTH 32 0
BBX 30 25 1 0
BITMAP
1A55800000000000
60156002A8000000
AA40290606000000
8080220502000000
80AA950505000000
8142050808000000
8142050808000000
8142051808000000
8142052A58000000
8AAA052054000000
A402022020000000
A006062021AA9A00
7401A82052500240
0AAAA050565801A0
0000008095090160
000000E4850AAA20
0000008585081420
0000014085081420
0000014145081420
0000020205181420
00000202059AA020
0000090209802020
0000090209802420
000002A901855AC0
0000000000655A40
ENDCHAR
STARTCHAR ampersand
ENCODING 38
SWIDTH 627 0
DWIDTH 23 0
BBX 23 28 0 -1
BITMAP
000100000000
000AA9900000
002A557AA800
007590204600
01C020254200
0180205AA200
00902A642E00
006009A00C00
002409801800
001802402000
000CA5408000
000B41824000
001A00860000
006740680000
009080280000
018090180000
0200600506D0
0901A5A7B920
24021E034014
900AAC024018
C01E86008014
A0208200A6B4
A99081803900
864081C01800
80005D802400
606AA090A000
2A90002E4000
050000000000
ENDCHAR
STARTCHAR quotesingle
ENCODING 39
SWIDTH 246 0
DWIDTH 9 0
BBX 7 16 1 11
BITMAP
0540
79B4
9018
5014
6024
5024
9514
BA98
8014
9024
5024
9014
8018
C01C
7AB4
0540
ENDCHAR
STARTCHAR parenleft
ENCODING 40
SWIDTH 387 0
DWIDTH 14 0
BBX 15 30 -1 -2
BITMAP
00005000
0001AA00
00024180
00030090
00060090
000C0240
00240600
00B40800
00D65800
02406400
03003000
09009000
18018000
70030000
60050000
300A0000
2D5A0000
1EA58000
06006000
01801800
00918800
00660600
00380240
001800C0
000A0060
00024018
0000C008
00006018
00003070
00002F80
ENDCHAR
STARTCHAR parenright
ENCODING 41
SWIDTH 386 0
DWIDTH 14 0
BBX 15 30 0 -2
BITMAP
00540000
02AD0000
0D050000
14020000
18024000
0600C000
02406000
01807800
00865C00
00540900
00200300
00180240
00090090
00020030
00024024
00028070
0006D6D0
00086AD0
00240240
00900900
01991800
02426400
0600A000
0C009000
34024000
D0060000
80080000
90240000
74300000
0BD00000
ENDCHAR
STARTCHAR asterisk
ENCODING 42
SWIDTH 517 0
DWIDTH 19 0
BBX 18 17 0 9
BITMAP
0001A80000
0003060000
0002050000
0002480000
0A02480680
2192486990
6019A69020
2405020060
1A9802AA90
0014009000
001F4A8000
0020D86000
0091882400
0242050900
0206020500
0198025800
0014005000
ENDCHAR
STARTCHAR plus
ENCODING 43
SWIDTH 458 0
DWIDTH 17 0
BBX 16 16 0 4
BITMAP
00015000
000A6800
00240600
00140500
00180900
1FAEEEA8
30009549
20005006
60005006
30004006
29AA6AAC
0A595C14
00140800
00240800
00281C00
0006E400
ENDCHAR
STARTCHAR comma
ENCODING 44
SWIDTH 228 0
DWIDTH 8 0
BBX 9 10 -1 -5
BITMAP
00A400
025A00
020240
090180
280240
A00800
802400
906000
348000
0A4000
ENDCHAR
STARTCHAR hyphen
ENCODING 45
SWIDTH 465 0
DWIDTH 17 0
BBX 15 8 1 8
BITMAP
14010000
6BABEAF0
C0014418
C0018008
C0018008
C0010018
6AEABBB0
14010010
ENDCHAR
STARTCHAR period
ENCODING 46
SWIDTH 202 0
DWIDTH 7 0
BBX 6 7 1 -1
BITMAP
0400
AA90
8050
8080
8080
9580
1900
ENDCHAR
STARTCHAR slash
ENCODING 47
SWIDTH 453 0
DWIDTH 16 0
BBX 16 25 0 0
BITMAP
00000A40
000029B4
0000200D
00003006
0000600C
0000C024
00024020
00079090
00096880
000C04C0
00080240
00240600
00300900
00900800
01E41400
015A2400
02416000
0200A000
09018000
18024000
34030000
60060000
34090000
0A5D0000
01A40000
ENDCHAR
STARTCHAR zero
ENCODING 48
SWIDTH 646 0
DWIDTH 23 0
BBX 24 26 0 0
BITMAP
0000ED000000
000182A40000
000200A80000
000600A90000
001801820000
007006018000
00E40E006000
025A1A401800
030160919900
090060660200
1801802C0180
6002001D0060
CBD900020019
A8380000C006
A0180002A00A
9006401A241C
A001A03C0974
1D0028964740
02428A808900
009A0A001800
003C28006000
001DD0024000
000780090000
0000C0180000
000074300000
00001A900000
ENDCHAR
STARTCHAR one
ENCODING 49
SWIDTH 400 0
DWIDTH 14 0
BBX 15 27 -1 -1
BITMAP
00004000
0002BA80
000AD074
00648024
0280C030
2900C030
6000C020
6006C020
30198030
1D62FA60
02818030
00018020
00008060
00008060
00008060
00018020
00019520
00019660
00018030
00018060
00018060
00018060
00018060
00024030
00030030
0001D5A0
00001940
ENDCHAR
STARTCHAR two
ENCODING 50
SWIDTH 502 0
DWIDTH 18 0
BBX 18 26 0 -1
BITMAP
0006550000
00097A4000
0024198000
00900C6000
02401C2400
1800A00900
6002A00280
9009180090
6024060090
29600241C0
06800A9A90
0000286490
0001D00280
0007A00900
000D182400
0034049000
01D0028000
0A000A0000
0800740000
1C00FAAF00
2A02A15180
32992000C0
30682000C0
2400100180
1EBEABEA40
0500500500
ENDCHAR
STARTCHAR three
ENCODING 51
SWIDTH 456 0
DWIDTH 16 0
BBX 16 26 0 -1
BITMAP
07900000
186AAA00
24000180
300000E0
200000A8
19550188
0A9BEB09
000E0528
00268090
00606240
02819600
090A7800
08241800
09600640
03A00090
00B4002D
000A41A6
0001EE0E
002B5006
2B918002
60008006
500081AD
60001D00
301BA000
19A40000
06400000
ENDCHAR
STARTCHAR four
ENCODING 52
SWIDTH 514 0
DWIDTH 19 0
BBX 19 26 -1 -1
BITMAP
000015AA40
000066C190
0000809050
0001802090
00020060C0
00090180C0
00280300C0
006A0B0080
00818FF990
01802A0090
02006200C0
09018700D0
2403EBAA64
6005024008
200802400C
1814024008
06E0556A64
006AAB90D0
0000030080
0000030080
0000020080
00000600C0
0000090080
0000090090
0000079680
0000006900
ENDCHAR
STARTCHAR five
ENCODING 53
SWIDTH 500 0
DWIDTH 18 0
BBX 18 25 0 0
BITMAP
0150656D00
1E6E765200
1409240140
1808240180
1808200240
080956AA00
1809640000
1808000000
1408000000
26AEA55800
290436A600
0C00206B00
0C00228180
0900124080
03AAAB4080
0000514080
0000014080
0000014080
0501414480
2AAAEFE980
2000800390
60009002C0
6000800240
3010410200
1FABBABD00
ENDCHAR
STARTCHAR six
ENCODING 54
SWIDTH 520 0
DWIDTH 19 0
BBX 19 26 0 -1
BITMAP
002EE00000
00301C0000
0030090000
00200C0000
0060180000
0090240000
0080300000
02E4300000
0256300000
0200780000
03009A0000
0300C19000
0601802800
0901402A00
0D02806190
1AA6B5806C
18064D240C
140607DD1C
24091A0324
300ED002E0
600D000180
C018000640
C01801B900
64180A4000
1AA8640000
000B800000
ENDCHAR
STARTCHAR seven
ENCODING 55
SWIDTH 423 0
DWIDTH 15 0
BBX 16 26 0 -1
BITMAP
255A55A0
66A76A58
80020008
8002400C
C002000D
91546A6C
2E5AE578
0000C030
00029020
00036960
00020160
000600C0
00090180
000C0200
00180300
002E4200
00306600
00200900
00601800
00802400
01803000
03002000
06006000
02406000
00BAD000
00050000
ENDCHAR
STARTCHAR eight
ENCODING 56
SWIDTH 527 0
DWIDTH 19 0
BBX 19 26 0 -1
BITMAP
0640640640
1DAAAAA990
2400080060
2400081560
240004A6A0
3DAFEBC090
1E42418020
0A00920090
0240250180
0182580200
00980C0500
0070050800
0034025400
00A900E400
0083007000
0181819400
0200DA0800
0501B40900
0802240200
20091D0180
900EA60060
9014024024
342002C034
1BE00190B4
029BFAFFE0
0054010040
ENDCHAR
STARTCHAR nine
ENCODING 57
SWIDTH 500 0
DWIDTH 18 0
BBX 19 26 0 -1
BITMAP
000002D000
00016D7900
002F501AD0
2A92400830
9401800824
C000816860
80001E50C0
901AEC0180
74A82E4200
9A4631A300
6001A01600
1900A00900
0240901800
0091803000
0027406000
000F909000
0009688000
000C05C000
0018024000
0024060000
0060080000
01C0180000
0180140000
00D0240000
0029700000
0005400000
ENDCHAR
STARTCHAR colon
ENCODING 58
SWIDTH 245 0
DWIDTH 9 0
BBX 7 20 1 -1
BITMAP
0640
6564
6020
2020
6030
2AA0
0100
0000
0000
0000
0000
0000
0000
0500
6AA0
6020
2020
2020
2560
0640
ENDCHAR
STARTCHAR semicolon
ENCODING 59
SWIDTH 270 0
DWIDTH 10 0
BBX 10 24 -1 -5
BITMAP
001900
019580
018080
008080
0180C0
00AA80
000400
000000
000000
000000
000000
000000
000000
000000
006900
008740
014080
020090
080180
240600
501800
202000
186000
069000
ENDCHAR
STARTCHAR less
ENCODING 60
SWIDTH 445 0
DWIDTH 16 0
BBX 14 21 1 2
BITMAP
00000400
00002B40
0000A1C0
001B4060
007C0030
01860070
1A020690
D0015800
8000A000
C00A4000
A0280000
E99A4000
8641D000
8001A800
A8024790
06860070
00600020
001A4060
0000A0D0
00002B40
00000400
ENDCHAR
STARTCHAR equal
ENCODING 61
SWIDTH 484 0
DWIDTH 17 0
BBX 15 16 1 5
BITMAP
19569060
65A5EAA8
9000800C
90008008
90008008
60541558
2E9AA5B4
00000000
00000000
19569060
65A5EAA8
9000800C
90008008
90008008
60541558
2E9AA5B4
ENDCHAR
STARTCHAR greater
ENCODING 62
SWIDTH 445 0
DWIDTH 16 0
BBX 14 21 1 2
BITMAP
01000000
0A800000
34A00000
901E4000
C002D000
900A2400
69080640
02940070
00A00020
001A0030
0002C0A0
001A66B0
00741920
02A40020
6E1802E0
90051900
8000A000
901A4000
34A40000
1A800000
01000000
ENDCHAR
STARTCHAR question
ENCODING 63
SWIDTH 455 0
DWIDTH 16 0
BBX 15 27 1 -1
BITMAP
04000000
2B400000
906A4000
C001E400
80009BA0
C0018024
A9020018
15A40014
000BE434
001A1AA8
00A00168
02400290
0A401900
0980A000
08664000
090A0000
08020000
0C020000
06A90000
00500000
00400000
0AA80000
18090000
08080000
08080000
09580000
01900000
ENDCHAR
STARTCHAR at
ENCODING 64
SWIDTH 812 0
DWIDTH 29 0
BBX 28 29 1 -2
BITMAP
00400000000000
02AAAA6B956400
050519559A6C00
2C00140081AA00
29001401420200
366A96A96B0200
21601505518140
20206565548080
20214525489980
2032001409E480
7A615410098080
602196AAAA6050
20214085022020
20614145052164
20610202052954
20220202051414
65226906050818
656585AAAB9808
20264009019805
20624008018809
206085440146B4
206069AAA96520
50394000014590
9031A400000000
65A096A0000000
1A408020000000
06A44020000000
0006A450000000
00000680000000
ENDCHAR
STARTCHAR A
ENCODING 65
SWIDTH 507 0
DWIDTH 18 0
BBX 19 25 0 0
BITMAP
002EE00000
0060180000
00600A4000
0060199000
0090249000
0080305000
0180306000
02A4203000
0356202400
0300605800
0300BA4C00
0200A40C00
0601980C00
09024C0990
0D025AAE24
1EA6ED5018
1806490008
1806050008
2409050568
300801BAD0
600EBE8090
900D018060
C008008034
641C00C1A0
1BE000AA40
ENDCHAR
STARTCHAR B
ENCODING 66
SWIDTH 533 0
DWIDTH 19 0
BBX 18 29 1 -2
BITMAP
00A0000000
029D000000
2E02E40000
69001B4000
380006A400
3900090AE0
26E4180030
301F800030
300C7A4060
654C07A090
A559681ED0
600FC00190
600D600B80
3018206400
301816D000
20081A6400
600CA40B80
7E9B800090
600CB80090
60085F00D0
201AD1D2A0
6069607D60
6E90200690
B400147900
A400068000
A401B90000
2C0A400000
07B4000000
0040000000
ENDCHAR
STARTCHAR C
ENCODING 67
SWIDTH 515 0
DWIDTH 19 0
BBX 19 27 0 -1
BITMAP
0090000000
029BAE4040
0200066FA0
0600020024
0600060014
0200050024
02AAE55420
0340D95AD0
0650C00000
0AA8C00000
0900800000
0901400000
0902400000
0803000000
0C03000000
1D42000000
1966400000
1803000000
1405000140
24096AAAA0
300B9D5024
6009090014
A009050014
296C050024
0E5055BAA0
0A1BAA4000
0290000000
ENDCHAR
STARTCHAR D
ENCODING 68
SWIDTH 520 0
DWIDTH 19 0
BBX 18 27 1 -1
BITMAP
017A000000
2F82400000
6300900000
3600240000
36000A0000
2290028000
303401E000
300D022400
654F580D00
A559800740
600C7400A0
60080A0030
3018028060
301801D1D0
2008037A70
600C1D1430
7E99A00190
600AA80600
600E051800
201C023000
6018009000
6018074000
5008180000
800C700000
901CD00000
2EF6800000
001A000000
ENDCHAR
STARTCHAR E
ENCODING 69
SWIDTH 490 0
DWIDTH 18 0
BBX 17 26 1 0
BITMAP
0140000000
2EBAB96E00
600A355240
3009200140
300C200180
200C200240
300E9BEB00
300D540400
654C000000
A558000000
600D060000
600EAA8000
3018008000
3018009000
2008008000
600E958000
7E995A0000
600C000000
6008000000
201FF55800
6018669600
6018600200
5008600300
800C500200
901EAA9900
2EE4506800
ENDCHAR
STARTCHAR F
ENCODING 70
SWIDTH 475 0
DWIDTH 17 0
BBX 17 26 1 0
BITMAP
0140000000
2EBAB96E00
600A355240
3009200140
300C200180
200C200240
300E9BEB00
300D540400
654C000000
A558000000
600D060000
600EAA8000
3018008000
3018009000
2008008000
600E958000
7E995A0000
600C000000
6008000000
2018000000
6018000000
6018000000
5008000000
800C000000
901C000000
2EE4000000
ENDCHAR
STARTCHAR G
ENCODING 71
SWIDTH 557 0
DWIDTH 20 0
BBX 20 27 0 -1
BITMAP
0090000000
029BAE4040
0200066FA0
0600020024
0600060014
0200050024
02AAE55420
0340D95AD0
0650C00000
0AA8C00000
0900800000
0901401AA0
090240641C
0803006008
0C03003018
1D42002018
1966402008
1803002548
1405007958
24096AA00C
300B9D700C
6009092008
A009052009
296C053006
0E5055B409
0A1BAA5AE4
0290000000
ENDCHAR
STARTCHAR H
ENCODING 72
SWIDTH 611 0
DWIDTH 22 0
BBX 21 26 1 0
BITMAP
014000054000
2EB80079B400
600900C00C00
300900800C00
300C00901800
200C00501800
300800601800
300C00501800
654C00951800
A55800EA8800
600C00901800
600800902400
301800502900
30180051B640
200C00BA4080
600D5A5800C0
7E9A900800C0
600C80080580
60088006FA40
201886F91400
6019B9902400
601D40801400
900800C01800
800C01800800
901C01D02800
2EE4006FD000
ENDCHAR
STARTCHAR I
ENCODING 73
SWIDTH 266 0
DWIDTH 10 0
BBX 8 26 1 0
BITMAP
0140
2EB8
6009
3009
300C
200C
3008
300C
654C
A558
600C
6008
3018
3018
2008
600C
7E99
600C
6008
2018
6018
6018
9008
800C
901C
2EE4
ENDCHAR
STARTCHAR J
ENCODING 74
SWIDTH 484 0
DWIDTH 17 0
BBX 18 28 -1 -2
BITMAP
0000001400
000002EB80
0000060090
0000020080
00000300C0
0000030080
0000030080
0000020080
00000654C0
00000A5580
00000600C0
0000060180
0000020180
07A0020180
2824020180
60180600C0
900607E980
7401D600C0
0901660180
020A2A0180
01A40E0180
00A0074180
0024009180
00090060C0
00030091C0
000182EE40
0000EA0000
0000100000
ENDCHAR
STARTCHAR K
ENCODING 75
SWIDTH 541 0
DWIDTH 20 0
BBX 19 27 1 -1
BITMAP
0140000000
2EB8000500
6009002AD0
3009006070
300C009018
200C02400C
3008190074
300C7801D0
654C970300
A559818900
600F401800
600D006400
301801C000
3018079000
200D096000
600E582400
7E99701800
600DE19900
600F3A4500
201C280200
6018180240
6018090180
50080600A0
800C030060
901C0201C0
2EE401AA00
0000001000
ENDCHAR
STARTCHAR L
ENCODING 76
SWIDTH 467 0
DWIDTH 17 0
BBX 17 26 1 0
BITMAP
0140000000
2EB8000000
6009000000
3009000000
300C000000
200C000000
3008000000
300C000000
654C000000
A558000000
600C000000
6008000000
3018000000
3018000000
2008000000
600C000000
7E99000000
600C000000
6008000000
201E945900
60199AA700
6018800240
9008800180
800D400140
901D5A5300
2EE6956D00
ENDCHAR
STARTCHAR M
ENCODING 77
SWIDTH 733 0
DWIDTH 26 0
BBX 27 26 0 0
BITMAP
00000000040000
00BB9000EB8000
00C07400807000
00C02801802400
00C03901807C00
01806502409C00
0140960300CC00
02009206008800
0790830F918900
0659918C198500
0500C0D8024200
0501E99803A600
0502C0A4060300
0902D0700A0200
0C0360300F0200
180330240E4240
2AE2241E8E4180
240725981954C0
24061D0925E590
20080805218090
300C090250C090
6008050290C060
90080601D08030
C0080200908024
A01C0306808028
1BE002A900BAD0
ENDCHAR
STARTCHAR N
ENCODING 78
SWIDTH 598 0
DWIDTH 22 0
BBX 20 26 1 0
BITMAP
0140000140
2EBA002EB4
600A806009
3009803009
300CC0300C
200C90300C
3008303008
300C28300C
654C09654C
A99B99A998
600C06600C
6008036008
201C01A018
301E00F018
200B007008
600D41640C
7A999A5E99
600CE0080C
6008600908
2018240618
6018180258
60180800D8
5008050098
800C0601CC
901C035A1C
2EA4016EA4
ENDCHAR
STARTCHAR O
ENCODING 79
SWIDTH 612 0
DWIDTH 22 0
BBX 22 27 0 -1
BITMAP
009000000000
029BAE415000
0200066FBD00
060002002600
060006001A00
020005002900
02AAE5542500
0340D95ED600
0650C0180300
0AA8C01FE600
090080180300
090140080300
0902400C0300
080300080300
0C0300090240
1D4200090180
1966400AA9C0
180300090180
140600051580
24091AABEE80
300BAA540780
6009030003C0
A00902000390
296C02000690
0E50156BFF40
0A1BAA805400
029000000000
ENDCHAR
STARTCHAR P
ENCODING 80
SWIDTH 513 0
DWIDTH 18 0
BBX 18 28 1 -1
BITMAP
0010000000
02A8000000
1A07900000
7D006E0000
2800069000
3800092E90
3690080160
316E140030
3009E40020
600C1A9090
BA980669C0
500C180690
6009D00190
201EA00A00
201C242400
2018089000
6008024000
6948190000
6558900000
600E400000
601D000000
6018000000
6018000000
5018000000
900C000000
C00C000000
79B4000000
0540000000
ENDCHAR
STARTCHAR Q
ENCODING 81
SWIDTH 612 0
DWIDTH 22 0
BBX 22 31 0 -5
BITMAP
009000000000
029BAE415000
0200066FBD00
060002002600
060006001A00
020005002900
02AAE5542500
0340D95ED600
0650C0180300
0AA8C01FE600
090080180300
090140080300
0902400C0300
080300080300
0C0300090240
1D4200090180
1966400AA9C0
180300090180
140600051580
24091AABEE80
300BAA540780
6009030003C0
A00902000390
296C02000690
0E50156BFF40
0A1BEA705400
029090200000
000080240000
0000C0180000
0000C0280000
00006AD00000
ENDCHAR
STARTCHAR R
ENCODING 82
SWIDTH 532 0
DWIDTH 19 0
BBX 19 27 1 -1
BITMAP
01B4000000
070A400000
7D01A90000
6800078000
3800096940
3A400805A0
31AD140030
300A900030
600C6B8060
7A8802B5C0
A00C190A90
6009A00090
201AD64640
201D75A800
201980A000
600A406000
650C902400
6A98A00900
600E64A600
601D1A0300
60180C0180
6018060090
6018024024
9008008024
C00C008060
A568006680
1A90001500
ENDCHAR
STARTCHAR S
ENCODING 83
SWIDTH 442 0
DWIDTH 16 0
BBX 16 27 0 -1
BITMAP
00000064
055BEE5C
1994C009
2AF08006
38148009
600846AC
600BA514
24060000
08028000
06009000
031A6000
02A02000
01C01800
00600900
00240240
000C0180
00092980
00079050
00024030
0005D018
2AAAA006
91032403
C0021409
C0021968
90156AE0
76AA4000
09000000
ENDCHAR
STARTCHAR T
ENCODING 84
SWIDTH 453 0
DWIDTH 16 0
BBX 18 26 -1 0
BITMAP
0500500100
2AAABAAE80
2000240090
6000240060
6000240050
3004115090
1AABBBAB80
0005024000
0009024000
000D514000
000E598000
000C024000
0008024000
0009020000
0009020000
0008024000
000D514000
000EA98000
000C024000
0008020000
0008030000
000C020000
000C020000
0018014000
0018024000
0007AD0000
ENDCHAR
STARTCHAR U
ENCODING 85
SWIDTH 583 0
DWIDTH 21 0
BBX 21 27 0 -1
BITMAP
000000010000
02EE402EB400
0601D0A00C00
0600C0500800
020180601800
060140201800
060240301800
090240200C00
0D5240654800
1D5580795900
0C0240600C00
0C0300300C00
0C0300200C00
0C0200240800
180200240900
294300240600
2967003AA600
140600240600
140900268500
24096AB96500
200BA9402900
60090C002A00
900508002700
395D08057240
0EA001B95700
061BEA0AB900
02E400000000
ENDCHAR
STARTCHAR V
ENCODING 86
SWIDTH 506 0
DWIDTH 18 0
BBX 18 26 0 -1
BITMAP
0140000000
2EB4006E40
901800C1A0
C01800C030
6018008060
300C018090
24090240C0
2406030080
15630AA480
1E52090580
1802490240
0902480200
06018C0600
0300D80500
0300B90900
0241369900
02B9200800
0180201800
00C0502400
0090903000
0060802000
0022406000
0032406000
0031D5A000
00357A4000
000A900000
ENDCHAR
STARTCHAR W
ENCODING 87
SWIDTH 735 0
DWIDTH 26 0
BBX 26 26 0 -1
BITMAP
01400000005500
2EB400000196D0
901401BA014030
C0140742414020
60180901414090
30080A01424080
200C0A008300C0
24061940860080
25633A856FE480
2E5331F92C0580
180320C02C0240
0C0260902C0300
0901A0202C0200
0600D020180600
0300D425A40600
0201EA69790600
02B9803835A600
0280806C200900
00C18099200C00
00914089601800
00520085902400
00660085C02400
00290083802400
006391C2802400
0035FA00A57400
001A90001A4000
ENDCHAR
STARTCHAR X
ENCODING 88
SWIDTH 483 0
DWIDTH 17 0
BBX 18 25 0 0
BITMAP
0040000000
0BB402B900
2418030740
600C060180
60090801C0
1803180340
0901A00900
0201D01800
024BA82400
01B7062000
00D6009000
006C018000
0024030000
00600A8000
00E0186000
019D2E2000
0242602400
0600601800
0C01A00900
2403240200
A0090C0180
C00C090090
90180601C0
2424030740
06A001A800
ENDCHAR
STARTCHAR Y
ENCODING 89
SWIDTH 484 0
DWIDTH 17 0
BBX 20 25 -1 0
BITMAP
0140001A40
1AA00035A0
2424002018
9018006009
9009009018
2402418030
0900930060
03012B4080
02591D6480
00E0180580
00A0240300
0024200900
0009600C00
0003C01400
0002E02000
0002593000
0003016000
0006009000
000C028000
0028030000
0060060000
0090090000
00600C0000
001E5C0000
0001900000
ENDCHAR
STARTCHAR Z
ENCODING 90
SWIDTH 458 0
DWIDTH 16 0
BBX 18 25 -1 0
BITMAP
01E6B96D00
0215355200
0500240240
05002402D0
06001002A0
026AAAABC0
0090340700
0000A00900
0001AD0C00
0002425400
0003002400
0006009000
000C018000
0034030000
00B8050000
00C74C0000
0180880000
0240240000
0A00B55900
1801B69600
6003240240
6006240240
2809200240
0A9E5AAA00
01A5540400
ENDCHAR
STARTCHAR bracketleft
ENCODING 91
SWIDTH 420 0
DWIDTH 15 0
BBX 15 30 0 -2
BITMAP
00000190
00006A70
01AA4014
07E40018
191A0018
140306B4
1807A500
18060000
18050000
18050000
24060000
2FA20000
24060000
24060000
14050000
18090000
14050000
24060000
29420000
29660000
24060000
14090000
14090000
24090000
240AAAA0
30061524
60060018
295D0008
06955024
00AAAAA0
ENDCHAR
STARTCHAR backslash
ENCODING 92
SWIDTH 453 0
DWIDTH 16 0
BBX 16 25 0 0
BITMAP
01A40000
0E5C0000
34080000
60090000
24060000
0C024000
0900C000
0201E000
02197000
02502400
01C01400
00600C00
00300900
00240300
00180B80
000CA580
000940C0
00060090
00024030
0000C028
00009009
00006006
00002009
000035B4
00000640
ENDCHAR
STARTCHAR bracketright
ENCODING 93
SWIDTH 420 0
DWIDTH 15 0
BBX 15 30 0 -2
BITMAP
09000000
35A40000
6006A900
90006B40
500291A0
3A420060
016B4050
00024090
00018090
00014050
00024060
00026BF0
00024030
00018060
00018060
00018050
00018060
00018060
00024560
000269B0
00014060
00018060
00008060
00008060
2AAA8020
61514020
90024024
9001E5A0
60155A40
2AAAA800
ENDCHAR
STARTCHAR asciicircum
ENCODING 94
SWIDTH 353 0
DWIDTH 13 0
BBX 11 10 1 14
BITMAP
005400
026E00
060B00
080A40
242480
607060
809818
824808
660664
140190
ENDCHAR
STARTCHAR underscore
ENCODING 95
SWIDTH 499 0
DWIDTH 18 0
BBX 16 8 1 -10
BITMAP
04004000
2AAAFAA8
60008108
50009009
50008005
60004009
2AAAAAA8
05004010
ENDCHAR
STARTCHAR grave
ENCODING 96
SWIDTH 183 0
DWIDTH 7 0
BBX 7 8 0 27
BITMAP
1A80
6080
8080
6050
2420
0824
0524
0290
ENDCHAR
STARTCHAR a
ENCODING 97
SWIDTH 507 0
DWIDTH 18 0
BBX 19 25 0 0
BITMAP
002EE00000
0060180000
00600A4000
0060199000
0090249000
0080305000
0180306000
02A4203000
0356202400
0300605800
0300BA4C00
0200A40C00
0601980C00
09024C0990
0D025AAE24
1EA6ED5018
1806490008
1806050008
2409050568
300801BAD0
600EBE8090
900D018060
C008008034
641C00C1A0
1BE000AA40
ENDCHAR
STARTCHAR b
ENCODING 98
SWIDTH 533 0
DWIDTH 19 0
BBX 18 29 1 -2
BITMAP
00A0000000
029D000000
2E02E40000
69001B4000
380006A400
3900090AE0
26E4180030
301F800030
300C7A4060
654C07A090
A559681ED0
600FC00190
600D600B80
3018206400
301816D000
20081A6400
600CA40B80
7E9B800090
600CB80090
60085F00D0
201AD1D2A0
6069607D60
6E90200690
B400147900
A400068000
A401B90000
2C0A400000
07B4000000
0040000000
ENDCHAR
STARTCHAR c
ENCODING 99
SWIDTH 515 0
DWIDTH 19 0
BBX 19 27 0 -1
BITMAP
0090000000
029BAE4040
0200066FA0
0600020024
0600060014
0200050024
02AAE55420
0340D95AD0
0650C00000
0AA8C00000
0900800000
0901400000
0902400000
0803000000
0C03000000
1D42000000
1966400000
1803000000
1405000140
24096AAAA0
300B9D5024
6009090014
A009050014
296C050024
0E5055BAA0
0A1BAA4000
0290000000
ENDCHAR
STARTCHAR d
ENCODING 100
SWIDTH 520 0
DWIDTH 19 0
BBX 18 27 1 -1
BITMAP
017A000000
2F82400000
6300900000
3600240000
36000A0000
2290028000
303401E000
300D022400
654F580D00
A559800740
600C7400A0
60080A0030
3018028060
301801D1D0
2008037A70
600C1D1430
7E99A00190
600AA80600
600E051800
201C023000
6018009000
6018074000
5008180000
800C700000
901CD00000
2EF6800000
001A000000
ENDCHAR
STARTCHAR e
ENCODING 101
SWIDTH 490 0
DWIDTH 18 0
BBX 17 26 1 0
BITMAP
0140000000
2EBAB96E00
600A355240
3009200140
300C200180
200C200240
300E9BEB00
300D540400
654C000000
A558000000
600D060000
600EAA8000
3018008000
3018009000
2008008000
600E958000
7E995A0000
600C000000
6008000000
201FF55800
6018669600
6018600200
5008600300
800C500200
901EAA9900
2EE4506800
ENDCHAR
STARTCHAR f
ENCODING 102
SWIDTH 475 0
DWIDTH 17 0
BBX 17 26 1 0
BITMAP
0140000000
2EBAB96E00
600A355240
3009200140
300C200180
200C200240
300E9BEB00
300D540400
654C000000
A558000000
600D060000
600EAA8000
3018008000
3018009000
2008008000
600E958000
7E995A0000
600C000000
6008000000
2018000000
6018000000
6018000000
5008000000
800C000000
901C000000
2EE4000000
ENDCHAR
STARTCHAR g
ENCODING 103
SWIDTH 557 0
DWIDTH 20 0
BBX 20 27 0 -1
BITMAP
0090000000
029BAE4040
0200066FA0
0600020024
0600060014
0200050024
02AAE55420
0340D95AD0
0650C00000
0AA8C00000
0900800000
0901401AA0
090240641C
0803006008
0C03003018
1D42002018
1966402008
1803002548
1405007958
24096AA00C
300B9D700C
6009092008
A009052009
296C053006
0E5055B409
0A1BAA5AE4
0290000000
ENDCHAR
STARTCHAR h
ENCODING 104
SWIDTH 611 0
DWIDTH 22 0
BBX 21 26 1 0
BITMAP
014000054000
2EB80079B400
600900C00C00
300900800C00
300C00901800
200C00501800
300800601800
300C00501800
654C00951800
A55800EA8800
600C00901800
600800902400
301800502900
30180051B640
200C00BA4080
600D5A5800C0
7E9A900800C0
600C80080580
60088006FA40
201886F91400
6019B9902400
601D40801400
900800C01800
800C01800800
901C01D02800
2EE4006FD000
ENDCHAR
STARTCHAR i
ENCODING 105
SWIDTH 266 0
DWIDTH 10 0
BBX 8 26 1 0
BITMAP
0140
2EB8
6009
3009
300C
200C
3008
300C
654C
A558
600C
6008
3018
3018
2008
600C
7E99
600C
6008
2018
6018
6018
9008
800C
901C
2EE4
ENDCHAR
STARTCHAR j
ENCODING 106
SWIDTH 482 0
DWIDTH 17 0
BBX 18 28 -1 -2
BITMAP
0000001400
000002EB80
0000060090
0000020080
00000300C0
0000030080
0000030080
0000020080
00000654C0
00000A5580
00000600C0
0000060180
0000020180
07A0020180
2824020180
60180600C0
900607E980
7401D600C0
0901660180
020A2A0180
01A40E0180
00A0074180
0024009180
00090060C0
00030091C0
000182EE40
0000EA0000
0000100000
ENDCHAR
STARTCHAR k
ENCODING 107
SWIDTH 541 0
DWIDTH 20 0
BBX 19 27 1 -1
BITMAP
0140000000
2EB8000500
6009002AD0
3009006070
300C009018
200C02400C
3008190074
300C7801D0
654C970300
A559818900
600F401800
600D006400
301801C000
3018079000
200D096000
600E582400
7E99701800
600DE19900
600F3A4500
201C280200
6018180240
6018090180
50080600A0
800C030060
901C0201C0
2EE401AA00
0000001000
ENDCHAR
STARTCHAR l
ENCODING 108
SWIDTH 467 0
DWIDTH 17 0
BBX 17 26 1 0
BITMAP
0140000000
2EB8000000
6009000000
3009000000
300C000000
200C000000
3008000000
300C000000
654C000000
A558000000
600C000000
6008000000
3018000000
3018000000
2008000000
600C000000
7E99000000
600C000000
6008000000
201E945900
60199AA700
6018800240
9008800180
800D400140
901D5A5300
2EE6956D00
ENDCHAR
STARTCHAR m
ENCODING 109
SWIDTH 733 0
DWIDTH 26 0
BBX 27 26 0 0
BITMAP
00000000040000
00BB9000EB8000
00C07400807000
00C02801802400
00C03901807C00
01806502409C00
0140960300CC00
02009206008800
0790830F918900
0659918C198500
0500C0D8024200
0501E99803A600
0502C0A4060300
0902D0700A0200
0C0360300F0200
180330240E4240
2AE2241E8E4180
240725981954C0
24061D0925E590
20080805218090
300C090250C090
6008050290C060
90080601D08030
C0080200908024
A01C0306808028
1BE002A900BAD0
ENDCHAR
STARTCHAR n
ENCODING 110
SWIDTH 598 0
DWIDTH 22 0
BBX 20 26 1 0
BITMAP
0140000140
2EBA002EB4
600A806009
3009803009
300CC0300C
200C90300C
3008303008
300C28300C
654C09654C
A99B99A998
600C06600C
6008036008
201C01A018
301E00F018
200B007008
600D41640C
7A999A5E99
600CE0080C
6008600908
2018240618
6018180258
60180800D8
5008050098
800C0601CC
901C035A1C
2EA4016EA4
ENDCHAR
STARTCHAR o
ENCODING 111
SWIDTH 612 0
DWIDTH 22 0
BBX 22 27 0 -1
BITMAP
009000000000
029BAE415000
0200066FBD00
060002002600
060006001A00
020005002900
02AAE5542500
0340D95ED600
0650C0180300
0AA8C01FE600
090080180300
090140080300
0902400C0300
080300080300
0C0300090240
1D4200090180
1966400AA9C0
180300090180
140600051580
24091AABEE80
300BAA540780
6009030003C0
A00902000390
296C02000690
0E50156BFF40
0A1BAA805400
029000000000
ENDCHAR
STARTCHAR p
ENCODING 112
SWIDTH 513 0
DWIDTH 18 0
BBX 18 28 1 -1
BITMAP
0010000000
02A8000000
1A07900000
7D006E0000
2800069000
3800092E90
3690080160
316E140030
3009E40020
600C1A9090
BA980669C0
500C180690
6009D00190
201EA00A00
201C242400
2018089000
6008024000
6948190000
6558900000
600E400000
601D000000
6018000000
6018000000
5018000000
900C000000
C00C000000
79B4000000
0540000000
ENDCHAR
STARTCHAR q
ENCODING 113
SWIDTH 612 0
DWIDTH 22 0
BBX 22 31 0 -5
BITMAP
009000000000
029BAE415000
0200066FBD00
060002002600
060006001A00
020005002900
02AAE5542500
0340D95ED600
0650C0180300
0AA8C01FE600
090080180300
090140080300
0902400C0300
080300080300
0C0300090240
1D4200090180
1966400AA9C0
180300090180
140600051580
24091AABEE80
300BAA540780
6009030003C0
A00902000390
296C02000690
0E50156BFF40
0A1BEA705400
029090200000
000080240000
0000C0180000
0000C0280000
00006AD00000
ENDCHAR
STARTCHAR r
ENCODING 114
SWIDTH 532 0
DWIDTH 19 0
BBX 19 27 1 -1
BITMAP
01B4000000
070A400000
7D01A90000
6800078000
3800096940
3A400805A0
31AD140030
300A900030
600C6B8060
7A8802B5C0
A00C190A90
6009A00090
201AD64640
201D75A800
201980A000
600A406000
650C902400
6A98A00900
600E64A600
601D1A0300
60180C0180
6018060090
6018024024
9008008024
C00C008060
A568006680
1A90001500
ENDCHAR
STARTCHAR s
ENCODING 115
SWIDTH 442 0
DWIDTH 16 0
BBX 16 27 0 -1
BITMAP
00000064
055BEE5C
1994C009
2AF08006
38148009
600846AC
600BA514
24060000
08028000
06009000
031A6000
02A02000
01C01800
00600900
00240240
000C0180
00092980
00079050
00024030
0005D018
2AAAA006
91032403
C0021409
C0021968
90156AE0
76AA4000
09000000
ENDCHAR
STARTCHAR t
ENCODING 116
SWIDTH 453 0
DWIDTH 16 0
BBX 18 26 -1 0
BITMAP
0500500100
2AAABAAE80
2000240090
6000240060
6000240050
3004115090
1AABBBAB80
0005024000
0009024000
000D514000
000E598000
000C024000
0008024000
0009020000
0009020000
0008024000
000D514000
000EA98000
000C024000
0008020000
0008030000
000C020000
000C020000
0018014000
0018024000
0007AD0000
ENDCHAR
STARTCHAR u
ENCODING 117
SWIDTH 583 0
DWIDTH 21 0
BBX 21 27 0 -1
BITMAP
000000010000
02EE402EB400
0601D0A00C00
0600C0500800
020180601800
060140201800
060240301800
090240200C00
0D5240654800
1D5580795900
0C0240600C00
0C0300300C00
0C0300200C00
0C0200240800
180200240900
294300240600
2967003AA600
140600240600
140900268500
24096AB96500
200BA9402900
60090C002A00
900508002700
395D08057240
0EA001B95700
061BEA0AB900
02E400000000
ENDCHAR
STARTCHAR v
ENCODING 118
SWIDTH 506 0
DWIDTH 18 0
BBX 18 26 0 -1
BITMAP
0140000000
2EB4006E40
901800C1A0
C01800C030
6018008060
300C018090
24090240C0
2406030080
15630AA480
1E52090580
1802490240
0902480200
06018C0600
0300D80500
0300B90900
0241369900
02B9200800
0180201800
00C0502400
0090903000
0060802000
0022406000
0032406000
0031D5A000
00357A4000
000A900000
ENDCHAR
STARTCHAR w
ENCODING 119
SWIDTH 735 0
DWIDTH 26 0
BBX 26 26 0 -1
BITMAP
01400000005500
2EB400000196D0
901401BA014030
C0140742414020
60180901414090
30080A01424080
200C0A008300C0
24061940860080
25633A856FE480
2E5331F92C0580
180320C02C0240
0C0260902C0300
0901A0202C0200
0600D020180600
0300D425A40600
0201EA69790600
02B9803835A600
0280806C200900
00C18099200C00
00914089601800
00520085902400
00660085C02400
00290083802400
006391C2802400
0035FA00A57400
001A90001A4000
ENDCHAR
STARTCHAR x
ENCODING 120
SWIDTH 483 0
DWIDTH 17 0
BBX 18 25 0 0
BITMAP
0040000000
0BB402B900
2418030740
600C060180
60090801C0
1803180340
0901A00900
0201D01800
024BA82400
01B7062000
00D6009000
006C018000
0024030000
00600A8000
00E0186000
019D2E2000
0242602400
0600601800
0C01A00900
2403240200
A0090C0180
C00C090090
90180601C0
2424030740
06A001A800
ENDCHAR
STARTCHAR y
ENCODING 121
SWIDTH 484 0
DWIDTH 17 0
BBX 20 25 -1 0
BITMAP
0140001A40
1AA00035A0
2424002018
9018006009
9009009018
2402418030
0900930060
03012B4080
02591D6480
00E0180580
00A0240300
0024200900
0009600C00
0003C01400
0002E02000
0002593000
0003016000
0006009000
000C028000
0028030000
0060060000
0090090000
00600C0000
001E5C0000
0001900000
ENDCHAR
STARTCHAR z
ENCODING 122
SWIDTH 458 0
DWIDTH 16 0
BBX 18 25 -1 0
BITMAP
01E6B96D00
0215355200
0500240240
05002402D0
06001002A0
026AAAABC0
0090340700
0000A00900
0001AD0C00
0002425400
0003002400
0006009000
000C018000
0034030000
00B8050000
00C74C0000
0180880000
0240240000
0A00B55900
1801B69600
6003240240
6006240240
2809200240
0A9E5AAA00
01A5540400
ENDCHAR
STARTCHAR braceleft
ENCODING 123
SWIDTH 473 0
DWIDTH 17 0
BBX 17 31 0 -3
BITMAP
0000001800
000145A600
002AB90240
0090200180
0180200140
0090245B40
00200E9500
0020150000
0026920000
0028030000
0018024000
1409018000
6AABB49000
C000086000
C000099000
C0000F4000
915518C000
2A9BA09000
0009014000
0018020000
003E460000
0020650000
0060090000
0090180000
01803A5500
0300205600
0300600140
01D0900140
006FE50240
000556AA00
0000000400
ENDCHAR
STARTCHAR bar
ENCODING 124
SWIDTH 263 0
DWIDTH 9 0
BBX 8 30 1 -2
BITMAP
0540
2EB8
6009
2009
300C
300C
3008
3008
2008
654C
B998
500C
6008
2018
2018
2018
2008
600C
7A88
6558
6008
6018
6018
6018
6018
9018
900C
C00C
7568
1A90
ENDCHAR
STARTCHAR braceright
ENCODING 125
SWIDTH 473 0
DWIDTH 17 0
BBX 17 31 0 -3
BITMAP
0500000000
2694500000
601BAA0000
900201C000
5002009000
3946018000
05AC024000
0015030000
0025A60000
00200A0000
0060090000
0090180500
0187BAAA40
02480000C0
019C000080
007C000080
00C9155180
00C2A9AA00
0060180000
0020090000
00246F0000
0015420000
0008014000
0009008000
156A009000
3542003000
6001403000
6001819000
6016FE4000
2AA5540000
0400000000
ENDCHAR
STARTCHAR asciitilde
ENCODING 126
SWIDTH 456 0
DWIDTH 16 0
BBX 15 9 1 9
BITMAP
02A90AA0
020B0824
090B5414
1818A060
20706080
90A42540
81480A00
92091E00
2906B800
ENDCHAR
STARTCHAR nonbreakingspace
ENCODING 160
SWIDTH 200 0
DWIDTH 7 0
BBX 1 1 0 0
BITMAP
00
ENDCHAR
STARTCHAR exclamdown
ENCODING 161
SWIDTH 259 0
DWIDTH 9 0
BBX 7 26 1 -1
BITMAP
0AA0
2418
1418
2418
2418
0AA0
0000
0690
2568
6008
3018
3018
3018
2018
6018
500C
9AFC
6018
6018
6014
6014
5018
9008
C00C
6568
0640
ENDCHAR
STARTCHAR cent
ENCODING 162
SWIDTH 480 0
DWIDTH 17 0
BBX 16 34 1 -5
BITMAP
00014000
001AA800
00240900
00200900
00140800
00140880
00140EA4
0016A918
006D8009
0E905009
68002019
D80012A8
98006900
990A5000
92B40000
90600000
EA640000
D0240000
80200000
80200000
80290000
802AF400
80182A40
906421AC
2F906005
0AE48009
001E5008
00156E18
001409E0
00240800
00200800
00300800
00296800
00069000
ENDCHAR
STARTCHAR sterling
ENCODING 163
SWIDTH 594 0
DWIDTH 21 0
BBX 21 25 0 0
BITMAP
000064000000
00019A400000
000701B95000
002A0005B000
002A00002400
001B00002400
0019FA402000
00180AA8A000
002405068000
002A96000000
1AB517AD0000
302406460000
602409030000
601409030000
302409030000
2AB407A90000
053EA6040000
002006000000
00240AA56E00
002409A65240
002409600140
003009600180
006006500140
00600B5AAB00
001EB9540500
ENDCHAR
STARTCHAR currency
ENCODING 164
SWIDTH 640 0
DWIDTH 23 0
BBX 21 21 1 3
BITMAP
064000002400
298029009A00
906066924180
8018C7AA0080
C00B4D0C00C0
641D14060640
097E2401A800
02D19900B400
02404E825A00
190024660240
2400902C0080
2402C0A00180
180661A80A00
064C1B061800
0AF402813400
286400809A00
D00A02434180
801A4A0D0080
9020B8264180
749029708740
0A8006906800
ENDCHAR
STARTCHAR yen
ENCODING 165
SWIDTH 575 0
DWIDTH 21 0
BBX 20 25 0 0
BITMAP
0000000100
02F4001EA4
1D1800141D
2008002407
600600300A
2802809018
0A00A1C024
0240274020
00864EB450
00A8090590
00700800C0
0018080240
00AA690740
029AAAAA90
0300060020
0600060030
0200060030
0241505460
01EFAEEAC0
0009018000
0018024000
0030030000
0034060000
001D060000
0002B80000
ENDCHAR
STARTCHAR brokenbar
ENCODING 166
SWIDTH 258 0
DWIDTH 9 0
BBX 7 33 1 -4
BITMAP
0100
2AA4
901C
6018
2014
2014
6018
BE88
9018
5018
6014
6018
5008
900C
6568
0A90
0000
0000
2EE0
A01C
6018
2014
2014
6018
6F88
A008
5018
6014
6018
5008
900C
6468
1A90
ENDCHAR
STARTCHAR section
ENCODING 167
SWIDTH 474 0
DWIDTH 17 0
BBX 15 27 1 -1
BITMAP
00000190
29AFAA60
65524014
80018018
85018014
AA801AA0
606BE550
90026900
900906A0
79080AA4
06900828
091A9408
08097018
20086020
50188050
602BD080
A9662A90
56490160
2A480014
00640014
2ABB9024
914259A4
80018258
80014014
90005AB0
76AA9000
19000000
ENDCHAR
STARTCHAR dieresis
ENCODING 168
SWIDTH 351 0
DWIDTH 13 0
BBX 13 6 0 27
BITMAP
16405400
A5725640
90620240
60520200
20520200
2A81A900
ENDCHAR
STARTCHAR copyright
ENCODING 169
SWIDTH 719 0
DWIDTH 26 0
BBX 24 28 1 -1
BITMAP
010000000000
06AABA6B9560
080525525AA4
3800200207AD
680020020902
69AA9AA9AA06
219054054605
205000000609
60506AAA0609
546080020945
BA62C0020AA6
9061FBAB0805
505185000509
609185000508
609085000509
505185000509
A561865A0A56
A56146560A56
5051A9020909
50903AAA0508
508010000508
509000040908
807AFAAFAEC5
C06050091466
A59080050039
2A4040040020
1AAAAAAAAA90
000040040140
ENDCHAR
STARTCHAR ordfeminine
ENCODING 170
SWIDTH 455 0
DWIDTH 16 0
BBX 18 25 -1 0
BITMAP
001AAA8000
0025E06000
0022402000
0032403000
0061802000
0090902400
00C0601800
0180600900
03A4706D00
0219729500
0600A40600
09669C0300
0D85590240
1A40060180
32400300C0
6196AB0060
2419024090
0BA801EB40
0050001400
00AAAAB000
0140101800
0200000C00
0240000C00
0180551800
00AA96A000
ENDCHAR
STARTCHAR guillemotleft
ENCODING 171
SWIDTH 689 0
DWIDTH 25 0
BBX 23 16 1 5
BITMAP
000240000640
0009A00019A0
006028006024
028008028018
190018290018
D000A4D001A0
800641800600
C02800802800
E0B400E0B000
9E8901AE4900
C10280800280
680064680064
064018064018
009018009024
002470002470
000A80000A80
ENDCHAR
STARTCHAR logicalnot
ENCODING 172
SWIDTH 591 0
DWIDTH 21 0
BBX 19 14 1 1
BITMAP
3A96A95680
915576A590
8000200BF0
8000202418
C000202008
91AA56B008
2A55A56408
0000002418
0000002418
0000002418
0000002018
0000002008
0000002418
0000000690
ENDCHAR
STARTCHAR uni00AD
ENCODING 173
SWIDTH 465 0
DWIDTH 17 0
BBX 15 8 1 8
BITMAP
14010000
6BABEAF0
C0014418
C0018008
C0018008
C0010018
6AEABBB0
14010010
ENDCHAR
STARTCHAR registered
ENCODING 174
SWIDTH 719 0
DWIDTH 26 0
BBX 24 28 1 -1
BITMAP
010000000000
06AABA6B9560
080525525AA4
3800200207AD
680020020902
69AA9AA9AA06
219054054605
205000000609
605005000609
5460AA940945
BA61A01A4AA6
9061A5014805
50519BA60509
6091851A0508
609085000509
505085000509
A56186000A56
A56186000A56
505186000909
50919A000508
508054000508
509000040908
807AFAAFAEC5
C06050091466
A59080050039
2A4040040020
1AAAAAAAAA90
000040040140
ENDCHAR
STARTCHAR macron
ENCODING 175
SWIDTH 263 0
DWIDTH 9 0
BBX 10 5 0 27
BITMAP
295640
955590
800050
955090
6AAA80
ENDCHAR
STARTCHAR degree
ENCODING 176
SWIDTH 333 0
DWIDTH 12 0
BBX 12 10 0 14
BITMAP
02E680
021C60
090920
181C18
606509
609705
2AAA58
2500A8
241018
1AAAA0
ENDCHAR
STARTCHAR plusminus
ENCODING 177
SWIDTH 464 0
DWIDTH 17 0
BBX 15 24 1 -4
BITMAP
00054000
0029A400
00501800
00601800
00201400
7ABBBAA0
90015514
C0018008
C0018008
C0014018
66A9AAA4
29656050
00602000
00502000
00606400
001B9000
00000000
29565050
95A6AA64
C0018018
80018008
C0014018
90541524
3E9AA6A0
ENDCHAR
STARTCHAR twosuperior
ENCODING 178
SWIDTH 324 0
DWIDTH 12 0
BBX 11 14 0 11
BITMAP
1A5550
201520
600020
200020
1AAAA0
009060
018080
020200
080500
240EA0
201408
182008
1A9008
0AAAA0
ENDCHAR
STARTCHAR threesuperior
ENCODING 179
SWIDTH 332 0
DWIDTH 12 0
BBX 11 15 0 10
BITMAP
1A5590
201560
500028
200028
2AAA98
01A808
020408
020808
01A808
056808
194808
200668
2405A4
09A500
010000
ENDCHAR
STARTCHAR acute
ENCODING 180
SWIDTH 202 0
DWIDTH 7 0
BBX 7 8 0 27
BITMAP
0190
0218
0908
0818
2060
9080
9240
2A00
ENDCHAR
STARTCHAR mu
ENCODING 181
SWIDTH 582 0
DWIDTH 21 0
BBX 19 30 1 -5
BITMAP
0194006A40
195A0290A0
2403024060
1806014060
1805018050
1805018050
1809018060
1409018020
240902FA70
3505028030
3AA6018020
300500C020
300900C030
200C00C030
200C00C024
200C00D558
300C00E558
300C008524
640941BA64
7A9BEA40A4
20086000A4
200C2000A8
20082000CC
201811BA8C
601EADA5B4
6018001540
900C000000
C00C000000
6568000000
1A90000000
ENDCHAR
STARTCHAR paragraph
ENCODING 182
SWIDTH 556 0
DWIDTH 20 0
BBX 19 28 0 -1
BITMAP
0000001000
000001EC00
00001A4780
0007A402B4
002B000158
1A92400264
2401805B20
600086E430
6001688030
341E50C020
2D9A01FE64
2601918024
2800298030
06402AC030
00A091C030
001840C030
000A00C030
0001D19424
000025EA64
00000A8030
000002C030
000000C020
0000008020
0000008030
0000014030
0000024024
000001D5A0
0000002A40
ENDCHAR
STARTCHAR periodcentered
ENCODING 183
SWIDTH 215 0
DWIDTH 8 0
BBX 6 6 1 10
BITMAP
6A90
C060
9050
9050
9090
1A40
ENDCHAR
STARTCHAR cedilla
ENCODING 184
SWIDTH 237 0
DWIDTH 9 0
BBX 9 11 0 -8
BITMAP
002A00
009240
008240
008200
008240
008140
6AC240
906A00
801A00
969000
280000
ENDCHAR
STARTCHAR onesuperior
ENCODING 185
SWIDTH 286 0
DWIDTH 10 0
BBX 10 14 0 11
BITMAP
002A00
008180
060080
640280
801980
806080
619080
1A5080
005080
005080
005080
008080
008090
002A40
ENDCHAR
STARTCHAR ordmasculine
ENCODING 186
SWIDTH 476 0
DWIDTH 17 0
BBX 16 25 1 0
BITMAP
2A569560
6155AA68
8000800C
800087FC
80009809
E1556405
AE6AA409
90201808
50201808
50201408
90601408
806BA5AC
8035955C
E5A0800C
9A408008
90008008
61A96A64
19559160
01000000
0AAAAA40
180050C0
14000080
14000090
081540C0
06A5AB40
ENDCHAR
STARTCHAR guillemotright
ENCODING 187
SWIDTH 689 0
DWIDTH 25 0
BBX 23 16 1 5
BITMAP
060000060000
298000358000
A06400906400
800A00C00900
900190C00190
68001C680018
064008064008
00A00C009008
007828007428
018AD8018ADC
0A01180A0118
6400A46400A0
800640800640
901800901800
34600070A000
1A80001A8000
ENDCHAR
STARTCHAR onequarter
ENCODING 188
SWIDTH 790 0
DWIDTH 28 0
BBX 28 26 0 0
BITMAP
00040000000000
001A4000000000
0060801A900000
02405020240000
18019020240000
500A2020200000
50242060500000
24A01090900000
06605080800000
002051E4800000
00205141800000
00202141800000
00202202000A40
00202202002090
001A9202005020
000005020142A8
00000A95060505
00000815180605
00000808601A44
00000808502A68
00001414708028
000020242A4028
0000602026A965
00006020040545
00001AA0000505
000000000002A8
ENDCHAR
STARTCHAR onehalf
ENCODING 189
SWIDTH 771 0
DWIDTH 28 0
BBX 27 27 0 -1
BITMAP
00040000000000
001A4000000000
0060801A900000
02405020240000
18019020240000
500A2020200000
50242060500000
24A01090900000
06605080800000
002051E4800000
00205141800000
00202141800000
00202202050000
0020220225AAA0
001A9202600020
00000502200020
00000A95255520
000008150565A0
00000808008090
00000808024140
00001414050200
00002024180910
00006020201A64
00006020242008
00001AA01EA008
000000000AAA64
00000000010050
ENDCHAR
STARTCHAR threequarters
ENCODING 190
SWIDTH 817 0
DWIDTH 29 0
BBX 29 25 0 0
BITMAP
1A55500000000000
20152006A4000000
6000280809000000
2000280805000000
1AAAA80808000000
00A8080808000000
0204081414000000
0204082024000000
01A8083920000000
056C085060000000
1948085020000000
2406685050029000
1405A48080051400
09A5008080180800
0100018080206A00
000002A480808080
0000020586018140
0000020258028140
00000202140A9940
000002020D140640
000009050AA00640
00000805056A5940
0000080501009480
000006A800018080
0000000000006A00
ENDCHAR
STARTCHAR questiondown
ENCODING 191
SWIDTH 455 0
DWIDTH 16 0
BBX 16 27 0 -1
BITMAP
00000500
00006690
00008050
00008050
00008060
0000A590
00001500
00000400
0000AA80
00014090
00014080
00018080
00026480
00190990
00A00390
06400340
35001A00
6A91A400
346F9000
30006900
200245AC
30020009
2F960005
006E0009
0006A40C
00000674
00000050
ENDCHAR
STARTCHAR Agrave
ENCODING 192
SWIDTH 507 0
DWIDTH 18 0
BBX 19 34 0 0
BITMAP
000AC00000
0024900000
0060500000
0024200000
0008240000
0009080000
0002180000
0001A00000
0000000000
002EE00000
0060180000
00600A4000
0060199000
0090249000
0080305000
0180306000
02A4203000
0356202400
0300605800
0300BA4C00
0200A40C00
0601980C00
09024C0990
0D025AAE24
1EA6ED5018
1806490008
1806050008
2409050568
300801BAD0
600EBE8090
900D018060
C008008034
641C00C1A0
1BE000AA40
ENDCHAR
STARTCHAR Aacute
ENCODING 193
SWIDTH 507 0
DWIDTH 18 0
BBX 19 34 0 0
BITMAP
000001A000
0000025800
0000060500
0000080900
0000242000
0000609000
0000618000
00002A0000
0000000000
002EE00000
0060180000
00600A4000
0060199000
0090249000
0080305000
0180306000
02A4203000
0356202400
0300605800
0300BA4C00
0200A40C00
0601980C00
09024C0990
0D025AAE24
1EA6ED5018
1806490008
1806050008
2409050568
300801BAD0
600EBE8090
900D018060
C008008034
641C00C1A0
1BE000AA40
ENDCHAR
STARTCHAR Acircumflex
ENCODING 194
SWIDTH 507 0
DWIDTH 18 0
BBX 19 35 0 0
BITMAP
0002B90000
00020E0000
00090B4000
0018188000
0020705000
0090A42400
0081480800
0092091800
002902A000
0000000000
002EE00000
0060180000
00600A4000
0060199000
0090249000
0080305000
0180306000
02A4203000
0356202400
0300605800
0300BA4C00
0200A40C00
0601980C00
09024C0990
0D025AAE24
1EA6ED5018
1806490008
1806050008
2409050568
300801BAD0
600EBE8090
900D018060
C008008034
641C00C1A0
1BE000AA40
ENDCHAR
STARTCHAR Atilde
ENCODING 195
SWIDTH 507 0
DWIDTH 18 0
BBX 19 35 0 0
BITMAP
000EE03A40
0024745080
0020388080
00909A4240
0282830600
0606818800
090890A400
061420B000
01A02AE000
0000000000
002EE00000
0060180000
00600A4000
0060199000
0090249000
0080305000
0180306000
02A4203000
0356202400
0300605800
0300BA4C00
0200A40C00
0601980C00
09024C0990
0D025AAE24
1EA6ED5018
1806490008
1806050008
2409050568
300801BAD0
600EBE8090
900D018060
C008008034
641C00C1A0
1BE000AA40
ENDCHAR
STARTCHAR Adieresis
ENCODING 196
SWIDTH 507 0
DWIDTH 18 0
BBX 19 33 0 0
BITMAP
0059015000
0295CA5900
0240880500
0181880800
0081890800
00AA46A400
0000000000
0000000000
002EE00000
0060180000
00600A4000
0060199000
0090249000
0080305000
0180306000
02A4203000
0356202400
0300605800
0300BA4C00
0200A40C00
0601980C00
09024C0990
0D025AAE24
1EA6ED5018
1806490008
1806050008
2409050568
300801BAD0
600EBE8090
900D018060
C008008034
641C00C1A0
1BE000AA40
ENDCHAR
STARTCHAR Aring
ENCODING 197
SWIDTH 507 0
DWIDTH 18 0
BBX 19 37 0 0
BITMAP
0001410000
0006AA8000
0008188000
0018186000
0060742400
00C0880800
0092AA0800
007A52B400
0060016000
0025556000
0019558000
0000000000
002EE00000
0060180000
00600A4000
0060199000
0090249000
0080305000
0180306000
02A4203000
0356202400
0300605800
0300BA4C00
0200A40C00
0601980C00
09024C0990
0D025AAE24
1EA6ED5018
1806490008
1806050008
2409050568
300801BAD0
600EBE8090
900D018060
C008008034
641C00C1A0
1BE000AA40
ENDCHAR
STARTCHAR AE
ENCODING 198
SWIDTH 797 0
DWIDTH 29 0
BBX 30 26 -1 0
BITMAP
0000000050000000
0000000BAEAE5B80
00000AFC028D5490
00000C1902490060
0000180203090060
0000240343080050
0000600903A6FEC0
0000D01C03550140
0003803952000000
0006A47D56400000
000505A803418000
000C00D803AA6000
0018024C02002000
0024060C02002400
00A00C0C02002000
01E01EA802A96000
0199245FA6569000
0201601802000000
0600600803000000
0901955803FE5600
2802EAA80619A580
60060018060800C0
9009001403080080
700C0024021400C0
1958002407AAA580
01A4000BB9141A00
ENDCHAR
STARTCHAR Ccedilla
ENCODING 199
SWIDTH 515 0
DWIDTH 19 0
BBX 19 34 0 -8
BITMAP
0090000000
029BAE4040
0200066FA0
0600020024
0600060014
0200050024
02AAE55420
0340D95AD0
0650C00000
0AA8C00000
0900800000
0901400000
0902400000
0803000000
0C03000000
1D42000000
1966400000
1803000000
1405000140
24096AAAA0
300B9D5024
6009090014
A009050014
296C050024
0E5055BAA0
0A1BBA9000
0290249000
0000205000
0000205000
001AB46000
00241AC000
0020068000
0024A40000
000A400000
ENDCHAR
STARTCHAR Egrave
ENCODING 200
SWIDTH 490 0
DWIDTH 18 0
BBX 17 35 1 0
BITMAP
001B800000
00A0800000
00C0800000
0060900000
0024200000
0008240000
0009240000
0002900000
0000000000
0140000000
2EBAB96E00
600A355240
3009200140
300C200180
200C200240
300E9BEB00
300D540400
654C000000
A558000000
600D060000
600EAA8000
3018008000
3018009000
2008008000
600E958000
7E995A0000
600C000000
6008000000
201FF55800
6018669600
6018600200
5008600300
800C500200
901EAA9900
2EE4506800
ENDCHAR
STARTCHAR Eacute
ENCODING 201
SWIDTH 490 0
DWIDTH 18 0
BBX 17 35 1 0
BITMAP
00001A0000
0000218000
0000609000
0000818000
0002420000
000A080000
0009240000
0002A00000
0000000000
0140000000
2EBAB96E00
600A355240
3009200140
300C200180
200C200240
300E9BEB00
300D540400
654C000000
A558000000
600D060000
600EAA8000
3018008000
3018009000
2008008000
600E958000
7E995A0000
600C000000
6008000000
201FF55800
6018669600
6018600200
5008600300
800C500200
901EAA9900
2EE4506800
ENDCHAR
STARTCHAR Ecircumflex
ENCODING 202
SWIDTH 490 0
DWIDTH 18 0
BBX 17 35 1 0
BITMAP
000AE40000
0018380000
00242D0000
0060620000
0081C24000
0242909000
0205202000
0248249000
00A41A8000
0140000000
2EBAB96E00
600A355240
3009200140
300C200180
200C200240
300E9BEB00
300D540400
654C000000
A558000000
600D060000
600EAA8000
3018008000
3018009000
2008008000
600E958000
7E995A0000
600C000000
6008000000
201FF55800
6018669600
6018600200
5008600300
800C500200
901EAA9900
2EE4506800
ENDCHAR
STARTCHAR Edieresis
ENCODING 203
SWIDTH 490 0
DWIDTH 18 0
BBX 17 33 1 0
BITMAP
0164054000
0A56256400
0906202400
0605202000
0605202000
02A81A9000
0000000000
0140000000
2EBAB96E00
600A355240
3009200140
300C200180
200C200240
300E9BEB00
300D540400
654C000000
A558000000
600D060000
600EAA8000
3018008000
3018009000
2008008000
600E958000
7E995A0000
600C000000
6008000000
201FF55800
6018669600
6018600200
5008600300
800C500200
901EAA9900
2EE4506800
ENDCHAR
STARTCHAR Igrave
ENCODING 204
SWIDTH 266 0
DWIDTH 10 0
BBX 9 35 0 0
BITMAP
1B8000
908000
C08000
609000
246000
082400
092400
039000
000000
005000
0BAE00
180240
0C0240
0C0300
080300
0C0200
0C0300
195300
295600
180300
180200
0C0600
0C0600
080200
180300
1FA640
180300
180200
080600
180600
180600
240200
200300
240700
0BB900
ENDCHAR
STARTCHAR Iacute
ENCODING 205
SWIDTH 266 0
DWIDTH 10 0
BBX 10 35 1 0
BITMAP
000A40
001590
002020
009090
018240
020500
060800
01B400
000000
014000
2EB800
600900
300900
300C00
200C00
300800
300C00
654C00
A55800
600C00
600800
301800
301800
200800
600C00
7E9900
600C00
600800
201800
601800
601800
900800
800C00
901C00
2EE400
ENDCHAR
STARTCHAR Icircumflex
ENCODING 206
SWIDTH 266 0
DWIDTH 10 0
BBX 11 35 0 0
BITMAP
02B900
020A00
090B40
181880
207050
90A424
81880C
920918
2902A0
005000
0BAE00
180240
0C0240
0C0300
080300
0C0200
0C0300
195300
295600
180300
180200
0C0600
0C0600
080200
180300
1FA640
180300
180200
080600
180600
180600
240200
200300
240700
0BB900
ENDCHAR
STARTCHAR Idieresis
ENCODING 207
SWIDTH 266 0
DWIDTH 10 0
BBX 12 33 -1 0
BITMAP
1A4054
A5A656
805602
909202
509206
6A81A9
000000
001400
02EB80
060090
030090
0300C0
0200C0
030080
0300C0
0654C0
0A5580
0600C0
060080
030180
030180
020080
0600C0
07E990
0600C0
060080
020180
060180
060180
090080
0800C0
0901C0
02EE40
ENDCHAR
STARTCHAR Eth
ENCODING 208
SWIDTH 669 0
DWIDTH 24 0
BBX 26 27 -1 -1
BITMAP
000001BD000000
00007B42000000
0000D901800000
00009C00A00000
00005C00180000
00005640074000
000090A003C000
00009028096000
0000D51E242400
0000E55A400A00
1A50D424A001D0
606AAA20180090
900003200600C0
900002200282C0
600003200AAD90
2AAA9A24281090
0400FE59D00280
0000C01BA00900
0000802D182400
00008034059000
00008030028000
0000C0300A0000
00008020240000
00018014900000
00018026800000
00007AE7000000
00000069000000
ENDCHAR
STARTCHAR Ntilde
ENCODING 209
SWIDTH 598 0
DWIDTH 22 0
BBX 20 35 1 0
BITMAP
0002B90A90
00060E0820
00080B2424
001819A060
0060609080
0080A42240
0182581A00
0092082D00
002906B800
0140000140
2EBA002EB4
600A806009
3009803009
300CC0300C
200C90300C
3008303008
300C28300C
654C09654C
A99B99A998
600C06600C
6008036008
201C01A018
301E00F018
200B007008
600D41640C
7A999A5E99
600CE0080C
6008600908
2018240618
6018180258
60180800D8
5008050098
800C0601CC
901C035A1C
2EA4016EA4
ENDCHAR
STARTCHAR Ograve
ENCODING 210
SWIDTH 612 0
DWIDTH 22 0
BBX 22 35 0 -1
BITMAP
00006B000000
000182000000
000242400000
000081800000
000060800000
000024600000
000018600000
00000A800000
009000000000
029BAE415000
0200066FBD00
060002002600
060006001A00
020005002900
02AAE5542500
0340D95ED600
0650C0180300
0AA8C01FE600
090080180300
090140080300
0902400C0300
080300080300
0C0300090240
1D4200090180
1966400AA9C0
180300090180
140600051580
24091AABEE80
300BAA540780
6009030003C0
A00902000390
296C02000690
0E50156BFF40
0A1BAA805400
029000000000
ENDCHAR
STARTCHAR Oacute
ENCODING 211
SWIDTH 612 0
DWIDTH 22 0
BBX 22 35 0 -1
BITMAP
000000190000
000000218000
000000908000
000000818000
000002060000
000009080000
000009240000
000002A00000
009000000000
029BAE415000
0200066FBD00
060002002600
060006001A00
020005002900
02AAE5542500
0340D95ED600
0650C0180300
0AA8C01FE600
090080180300
090140080300
0902400C0300
080300080300
0C0300090240
1D4200090180
1966400AA9C0
180300090180
140600051580
24091AABEE80
300BAA540780
6009030003C0
A00902000390
296C02000690
0E50156BFF40
0A1BAA805400
029000000000
ENDCHAR
STARTCHAR Ocircumflex
ENCODING 212
SWIDTH 612 0
DWIDTH 22 0
BBX 22 36 0 -1
BITMAP
00001E900000
000020B00000
000060780000
000081880000
000243460000
00090A818000
000818808000
000624618000
0002A02A0000
009000000000
029BAE415000
0200066FBD00
060002002600
060006001A00
020005002900
02AAE5542500
0340D95ED600
0650C0180300
0AA8C01FE600
090080180300
090140080300
0902400C0300
080300080300
0C0300090240
1D4200090180
1966400AA9C0
180300090180
140600051580
24091AABEE80
300BAA540780
6009030003C0
A00902000390
296C02000690
0E50156BFF40
0A1BAA805400
029000000000
ENDCHAR
STARTCHAR Otilde
ENCODING 213
SWIDTH 612 0
DWIDTH 22 0
BBX 22 36 0 -1
BITMAP
00006A41A800
000082C20600
000141D60600
000202280800
00090D182400
00242A096000
002062038000
002481478000
000640AE4000
009000000000
029BAE415000
0200066FBD00
060002002600
060006001A00
020005002900
02AAE5542500
0340D95ED600
0650C0180300
0AA8C01FE600
090080180300
090140080300
0902400C0300
080300080300
0C0300090240
1D4200090180
1966400AA9C0
180300090180
140600051580
24091AABEE80
300BAA540780
6009030003C0
A00902000390
296C02000690
0E50156BFF40
0A1BAA805400
029000000000
ENDCHAR
STARTCHAR Odieresis
ENCODING 214
SWIDTH 612 0
DWIDTH 22 0
BBX 22 34 0 -1
BITMAP
000690150000
006565968000
002025408000
002021818000
002421814000
001AA06A0000
000000000000
009000000000
029BAE415000
0200066FBD00
060002002600
060006001A00
020005002900
02AAE5542500
0340D95ED600
0650C0180300
0AA8C01FE600
090080180300
090140080300
0902400C0300
080300080300
0C0300090240
1D4200090180
1966400AA9C0
180300090180
140600051580
24091AABEE80
300BAA540780
6009030003C0
A00902000390
296C02000690
0E50156BFF40
0A1BAA805400
029000000000
ENDCHAR
STARTCHAR multiply
ENCODING 215
SWIDTH 421 0
DWIDTH 15 0
BBX 14 14 1 5
BITMAP
01400000
1E90AD00
70318280
901A00C0
C0074090
D000D180
2801AA00
0B061800
19880A40
90A001C0
C02C00C0
90260280
34818A00
0A40A400
ENDCHAR
STARTCHAR Oslash
ENCODING 216
SWIDTH 612 0
DWIDTH 22 0
BBX 22 28 0 -2
BITMAP
009000000000
029BAE42A400
020006AE5D00
060002090300
060006080240
020005240600
02AAE5A00E00
0340DAC02600
0650C3405300
0AA8CAA0A600
090088198300
090158024300
090260090300
0802601D0300
0C0380290240
1D4340590180
196B808AA9C0
1808B5890180
141816451580
242007ABEE80
30901E540780
6180230003C0
A60092000390
2C0082000690
0C01556BFF40
0602AA805400
02EA00000000
005400000000
ENDCHAR
STARTCHAR Ugrave
ENCODING 217
SWIDTH 583 0
DWIDTH 21 0
BBX 21 35 0 -1
BITMAP
0001A8000000
000608000000
000808000000
000605000000
000242000000
000082400000
000052400000
000029000000
000000010000
02EE402EB400
0601D0A00C00
0600C0500800
020180601800
060140201800
060240301800
090240200C00
0D5240654800
1D5580795900
0C0240600C00
0C0300300C00
0C0300200C00
0C0200240800
180200240900
294300240600
2967003AA600
140600240600
140900268500
24096AB96500
200BA9402900
60090C002A00
900508002700
395D08057240
0EA001B95700
061BEA0AB900
02E400000000
ENDCHAR
STARTCHAR Uacute
ENCODING 218
SWIDTH 583 0
DWIDTH 21 0
BBX 21 35 0 -1
BITMAP
000000A00000
000002580000
000002060000
000009090000
000018240000
000060900000
000061800000
00001B000000
000000010000
02EE402EB400
0601D0A00C00
0600C0500800
020180601800
060140201800
060240301800
090240200C00
0D5240654800
1D5580795900
0C0240600C00
0C0300300C00
0C0300200C00
0C0200240800
180200240900
294300240600
2967003AA600
140600240600
140900268500
24096AB96500
200BA9402900
60090C002A00
900508002700
395D08057240
0EA001B95700
061BEA0AB900
02E400000000
ENDCHAR
STARTCHAR Ucircumflex
ENCODING 219
SWIDTH 583 0
DWIDTH 21 0
BBX 21 36 0 -1
BITMAP
0000AE400000
000083800000
000242D00000
000606200000
00081C140000
002429090000
002052020000
002482460000
000A40A80000
000000010000
02EE402EB400
0601D0A00C00
0600C0500800
020180601800
060140201800
060240301800
090240200C00
0D5240654800
1D5580795900
0C0240600C00
0C0300300C00
0C0300200C00
0C0200240800
180200240900
294300240600
2967003AA600
140600240600
140900268500
24096AB96500
200BA9402900
60090C002A00
900508002700
395D08057240
0EA001B95700
061BEA0AB900
02E400000000
ENDCHAR
STARTCHAR Udieresis
ENCODING 220
SWIDTH 583 0
DWIDTH 21 0
BBX 21 34 0 -1
BITMAP
001640540000
00A572964000
009062024000
006062020000
002052020000
002A81A90000
000000000000
000000010000
02EE402EB400
0601D0A00C00
0600C0500800
020180601800
060140201800
060240301800
090240200C00
0D5240654800
1D5580795900
0C0240600C00
0C0300300C00
0C0300200C00
0C0200240800
180200240900
294300240600
2967003AA600
140600240600
140900268500
24096AB96500
200BA9402900
60090C002A00
900508002700
395D08057240
0EA001B95700
061BEA0AB900
02E400000000
ENDCHAR
STARTCHAR Yacute
ENCODING 221
SWIDTH 484 0
DWIDTH 17 0
BBX 20 33 -1 0
BITMAP
0000019000
0000022800
0000090800
0000181800
0000206000
0000908000
0000924000
00002A0000
0140001A40
1AA00035A0
2424002018
9018006009
9009009018
2402418030
0900930060
03012B4080
02591D6480
00E0180580
00A0240300
0024200900
0009600C00
0003C01400
0002E02000
0002593000
0003016000
0006009000
000C028000
0028030000
0060060000
0090090000
00600C0000
001E5C0000
0001900000
ENDCHAR
STARTCHAR Thorn
ENCODING 222
SWIDTH 520 0
DWIDTH 19 0
BBX 18 26 1 -1
BITMAP
1BA4000000
7419000000
2059000000
32AD000000
2606900000
39006B0000
380006A000
6900091A90
BFA4080060
505E540030
6009A50020
201816D090
3018066AD0
2018280590
6009D001D0
694AA00A00
6558186400
600C088000
6018064000
6018280000
6018900000
601A400000
900D000000
C00C000000
79B8000000
0540000000
ENDCHAR
STARTCHAR germandbls
ENCODING 223
SWIDTH 884 0
DWIDTH 32 0
BBX 32 27 0 -1
BITMAP
0000006400000064
055BEE5C055BEE5C
1994C00919948009
2AF080062BF08005
3814800938248009
600846AC601846AC
600BA514A00BA514
2406000024060000
080280000C028000
0600900006009000
031A600003196000
02A0200002A03000
01C0180001C01800
0060090000A00900
0024024000240340
000C018000080180
00092980000968C0
0007905000079090
0002403000024020
0005D0180005C018
2AAAA0062AAAA00A
9103240391023002
C0021409C0022409
C0021968C0021968
90156AE090156AE0
76AA400066AA4000
0900000019000000
ENDCHAR
STARTCHAR agrave
ENCODING 224
SWIDTH 507 0
DWIDTH 18 0
BBX 19 34 0 0
BITMAP
000AC00000
0024900000
0060500000
0024200000
0008240000
0009080000
0002180000
0001A00000
0000000000
002EE00000
0060180000
00600A4000
0060199000
0090249000
0080305000
0180306000
02A4203000
0356202400
0300605800
0300BA4C00
0200A40C00
0601980C00
09024C0990
0D025AAE24
1EA6ED5018
1806490008
1806050008
2409050568
300801BAD0
600EBE8090
900D018060
C008008034
641C00C1A0
1BE000AA40
ENDCHAR
STARTCHAR aacute
ENCODING 225
SWIDTH 507 0
DWIDTH 18 0
BBX 19 34 0 0
BITMAP
000001A000
0000025800
0000060500
0000080900
0000242000
0000609000
0000618000
00002A0000
0000000000
002EE00000
0060180000
00600A4000
0060199000
0090249000
0080305000
0180306000
02A4203000
0356202400
0300605800
0300BA4C00
0200A40C00
0601980C00
09024C0990
0D025AAE24
1EA6ED5018
1806490008
1806050008
2409050568
300801BAD0
600EBE8090
900D018060
C008008034
641C00C1A0
1BE000AA40
ENDCHAR
STARTCHAR acircumflex
ENCODING 226
SWIDTH 507 0
DWIDTH 18 0
BBX 19 35 0 0
BITMAP
0002B90000
00020E0000
00090B4000
0018188000
0020705000
0090A42400
0081480800
0092091800
002902A000
0000000000
002EE00000
0060180000
00600A4000
0060199000
0090249000
0080305000
0180306000
02A4203000
0356202400
0300605800
0300BA4C00
0200A40C00
0601980C00
09024C0990
0D025AAE24
1EA6ED5018
1806490008
1806050008
2409050568
300801BAD0
600EBE8090
900D018060
C008008034
641C00C1A0
1BE000AA40
ENDCHAR
STARTCHAR atilde
ENCODING 227
SWIDTH 507 0
DWIDTH 18 0
BBX 19 35 0 0
BITMAP
000EE03A40
0024745080
0020388080
00909A4240
0282830600
0606818800
090890A400
061420B000
01A02AE000
0000000000
002EE00000
0060180000
00600A4000
0060199000
0090249000
0080305000
0180306000
02A4203000
0356202400
0300605800
0300BA4C00
0200A40C00
0601980C00
09024C0990
0D025AAE24
1EA6ED5018
1806490008
1806050008
2409050568
300801BAD0
600EBE8090
900D018060
C008008034
641C00C1A0
1BE000AA40
ENDCHAR
STARTCHAR adieresis
ENCODING 228
SWIDTH 507 0
DWIDTH 18 0
BBX 19 33 0 0
BITMAP
0059015000
0295CA5900
0240880500
0181880800
0081890800
00AA46A400
0000000000
0000000000
002EE00000
0060180000
00600A4000
0060199000
0090249000
0080305000
0180306000
02A4203000
0356202400
0300605800
0300BA4C00
0200A40C00
0601980C00
09024C0990
0D025AAE24
1EA6ED5018
1806490008
1806050008
2409050568
300801BAD0
600EBE8090
900D018060
C008008034
641C00C1A0
1BE000AA40
ENDCHAR
STARTCHAR aring
ENCODING 229
SWIDTH 507 0
DWIDTH 18 0
BBX 19 37 0 0
BITMAP
0001410000
0006AA8000
0008188000
0018186000
0060742400
00C0880800
0092AA0800
007A52B400
0060016000
0025556000
0019558000
0000000000
002EE00000
0060180000
00600A4000
0060199000
0090249000
0080305000
0180306000
02A4203000
0356202400
0300605800
0300BA4C00
0200A40C00
0601980C00
09024C0990
0D025AAE24
1EA6ED5018
1806490008
1806050008
2409050568
300801BAD0
600EBE8090
900D018060
C008008034
641C00C1A0
1BE000AA40
ENDCHAR
STARTCHAR ae
ENCODING 230
SWIDTH 797 0
DWIDTH 29 0
BBX 30 26 -1 0
BITMAP
0000000050000000
0000000BAEAE5B80
00000AFC028D5490
00000C1902490060
0000180203090060
0000240343080050
0000600903A6FEC0
0000D01C03550140
0003803952000000
0006A47D56400000
000505A803418000
000C00D803AA6000
0018024C02002000
0024060C02002400
00A00C0C02002000
01E01EA802A96000
0199245FA6569000
0201601802000000
0600600803000000
0901955803FE5600
2802EAA80619A580
60060018060800C0
9009001403080080
700C0024021400C0
1958002407AAA580
01A4000BB9141A00
ENDCHAR
STARTCHAR ccedilla
ENCODING 231
SWIDTH 515 0
DWIDTH 19 0
BBX 19 34 0 -8
BITMAP
0090000000
029BAE4040
0200066FA0
0600020024
0600060014
0200050024
02AAE55420
0340D95AD0
0650C00000
0AA8C00000
0900800000
0901400000
0902400000
0803000000
0C03000000
1D42000000
1966400000
1803000000
1405000140
24096AAAA0
300B9D5024
6009090014
A009050014
296C050024
0E5055BAA0
0A1BBA9000
0290249000
0000205000
0000205000
001AB46000
00241AC000
0020068000
0024A40000
000A400000
ENDCHAR
STARTCHAR egrave
ENCODING 232
SWIDTH 490 0
DWIDTH 18 0
BBX 17 35 1 0
BITMAP
001B800000
00A0800000
00C0800000
0060900000
0024200000
0008240000
0009240000
0002900000
0000000000
0140000000
2EBAB96E00
600A355240
3009200140
300C200180
200C200240
300E9BEB00
300D540400
654C000000
A558000000
600D060000
600EAA8000
3018008000
3018009000
2008008000
600E958000
7E995A0000
600C000000
6008000000
201FF55800
6018669600
6018600200
5008600300
800C500200
901EAA9900
2EE4506800
ENDCHAR
STARTCHAR eacute
ENCODING 233
SWIDTH 490 0
DWIDTH 18 0
BBX 17 35 1 0
BITMAP
00001A0000
0000218000
0000609000
0000818000
0002420000
000A080000
0009240000
0002A00000
0000000000
0140000000
2EBAB96E00
600A355240
3009200140
300C200180
200C200240
300E9BEB00
300D540400
654C000000
A558000000
600D060000
600EAA8000
3018008000
3018009000
2008008000
600E958000
7E995A0000
600C000000
6008000000
201FF55800
6018669600
6018600200
5008600300
800C500200
901EAA9900
2EE4506800
ENDCHAR
STARTCHAR ecircumflex
ENCODING 234
SWIDTH 490 0
DWIDTH 18 0
BBX 17 35 1 0
BITMAP
000AE40000
0018380000
00242D0000
0060620000
0081C24000
0242909000
0205202000
0248249000
00A41A8000
0140000000
2EBAB96E00
600A355240
3009200140
300C200180
200C200240
300E9BEB00
300D540400
654C000000
A558000000
600D060000
600EAA8000
3018008000
3018009000
2008008000
600E958000
7E995A0000
600C000000
6008000000
201FF55800
6018669600
6018600200
5008600300
800C500200
901EAA9900
2EE4506800
ENDCHAR
STARTCHAR edieresis
ENCODING 235
SWIDTH 490 0
DWIDTH 18 0
BBX 17 33 1 0
BITMAP
0164054000
0A56256400
0906202400
0605202000
0605202000
02A81A9000
0000000000
0140000000
2EBAB96E00
600A355240
3009200140
300C200180
200C200240
300E9BEB00
300D540400
654C000000
A558000000
600D060000
600EAA8000
3018008000
3018009000
2008008000
600E958000
7E995A0000
600C000000
6008000000
201FF55800
6018669600
6018600200
5008600300
800C500200
901EAA9900
2EE4506800
ENDCHAR
STARTCHAR igrave
ENCODING 236
SWIDTH 266 0
DWIDTH 10 0
BBX 9 35 0 0
BITMAP
1B8000
908000
C08000
609000
246000
082400
092400
039000
000000
005000
0BAE00
180240
0C0240
0C0300
080300
0C0200
0C0300
195300
295600
180300
180200
0C0600
0C0600
080200
180300
1FA640
180300
180200
080600
180600
180600
240200
200300
240700
0BB900
ENDCHAR
STARTCHAR iacute
ENCODING 237
SWIDTH 266 0
DWIDTH 10 0
BBX 10 35 1 0
BITMAP
000A40
001590
002020
009090
018240
020500
060800
01B400
000000
014000
2EB800
600900
300900
300C00
200C00
300800
300C00
654C00
A55800
600C00
600800
301800
301800
200800
600C00
7E9900
600C00
600800
201800
601800
601800
900800
800C00
901C00
2EE400
ENDCHAR
STARTCHAR icircumflex
ENCODING 238
SWIDTH 266 0
DWIDTH 10 0
BBX 11 35 0 0
BITMAP
02B900
020A00
090B40
181880
207050
90A424
81880C
920918
2902A0
005000
0BAE00
180240
0C0240
0C0300
080300
0C0200
0C0300
195300
295600
180300
180200
0C0600
0C0600
080200
180300
1FA640
180300
180200
080600
180600
180600
240200
200300
240700
0BB900
ENDCHAR
STARTCHAR idieresis
ENCODING 239
SWIDTH 266 0
DWIDTH 10 0
BBX 12 33 -1 0
BITMAP
1A4054
A5A656
805602
909202
509206
6A81A9
000000
001400
02EB80
060090
030090
0300C0
0200C0
030080
0300C0
0654C0
0A5580
0600C0
060080
030180
030180
020080
0600C0
07E990
0600C0
060080
020180
060180
060180
090080
0800C0
0901C0
02EE40
ENDCHAR
STARTCHAR eth
ENCODING 240
SWIDTH 669 0
DWIDTH 24 0
BBX 26 27 -1 -1
BITMAP
000001BD000000
00007B42000000
0000D901800000
00009C00A00000
00005C00180000
00005640074000
000090A003C000
00009028096000
0000D51E242400
0000E55A400A00
1A50D424A001D0
606AAA20180090
900003200600C0
900002200282C0
600003200AAD90
2AAA9A24281090
0400FE59D00280
0000C01BA00900
0000802D182400
00008034059000
00008030028000
0000C0300A0000
00008020240000
00018014900000
00018026800000
00007AE7000000
00000069000000
ENDCHAR
STARTCHAR ntilde
ENCODING 241
SWIDTH 598 0
DWIDTH 22 0
BBX 20 35 1 0
BITMAP
0002B90A90
00060E0820
00080B2424
001819A060
0060609080
0080A42240
0182581A00
0092082D00
002906B800
0140000140
2EBA002EB4
600A806009
3009803009
300CC0300C
200C90300C
3008303008
300C28300C
654C09654C
A99B99A998
600C06600C
6008036008
201C01A018
301E00F018
200B007008
600D41640C
7A999A5E99
600CE0080C
6008600908
2018240618
6018180258
60180800D8
5008050098
800C0601CC
901C035A1C
2EA4016EA4
ENDCHAR
STARTCHAR ograve
ENCODING 242
SWIDTH 612 0
DWIDTH 22 0
BBX 22 35 0 -1
BITMAP
00006B000000
000182000000
000242400000
000081800000
000060800000
000024600000
000018600000
00000A800000
009000000000
029BAE415000
0200066FBD00
060002002600
060006001A00
020005002900
02AAE5542500
0340D95ED600
0650C0180300
0AA8C01FE600
090080180300
090140080300
0902400C0300
080300080300
0C0300090240
1D4200090180
1966400AA9C0
180300090180
140600051580
24091AABEE80
300BAA540780
6009030003C0
A00902000390
296C02000690
0E50156BFF40
0A1BAA805400
029000000000
ENDCHAR
STARTCHAR oacute
ENCODING 243
SWIDTH 612 0
DWIDTH 22 0
BBX 22 35 0 -1
BITMAP
000000190000
000000218000
000000908000
000000818000
000002060000
000009080000
000009240000
000002A00000
009000000000
029BAE415000
0200066FBD00
060002002600
060006001A00
020005002900
02AAE5542500
0340D95ED600
0650C0180300
0AA8C01FE600
090080180300
090140080300
0902400C0300
080300080300
0C0300090240
1D4200090180
1966400AA9C0
180300090180
140600051580
24091AABEE80
300BAA540780
6009030003C0
A00902000390
296C02000690
0E50156BFF40
0A1BAA805400
029000000000
ENDCHAR
STARTCHAR ocircumflex
ENCODING 244
SWIDTH 612 0
DWIDTH 22 0
BBX 22 36 0 -1
BITMAP
00001E900000
000020B00000
000060780000
000081880000
000243460000
00090A818000
000818808000
000624618000
0002A02A0000
009000000000
029BAE415000
0200066FBD00
060002002600
060006001A00
020005002900
02AAE5542500
0340D95ED600
0650C0180300
0AA8C01FE600
090080180300
090140080300
0902400C0300
080300080300
0C0300090240
1D4200090180
1966400AA9C0
180300090180
140600051580
24091AABEE80
300BAA540780
6009030003C0
A00902000390
296C02000690
0E50156BFF40
0A1BAA805400
029000000000
ENDCHAR
STARTCHAR otilde
ENCODING 245
SWIDTH 612 0
DWIDTH 22 0
BBX 22 36 0 -1
BITMAP
00006A41A800
000082C20600
000141D60600
000202280800
00090D182400
00242A096000
002062038000
002481478000
000640AE4000
009000000000
029BAE415000
0200066FBD00
060002002600
060006001A00
020005002900
02AAE5542500
0340D95ED600
0650C0180300
0AA8C01FE600
090080180300
090140080300
0902400C0300
080300080300
0C0300090240
1D4200090180
1966400AA9C0
180300090180
140600051580
24091AABEE80
300BAA540780
6009030003C0
A00902000390
296C02000690
0E50156BFF40
0A1BAA805400
029000000000
ENDCHAR
STARTCHAR odieresis
ENCODING 246
SWIDTH 612 0
DWIDTH 22 0
BBX 22 34 0 -1
BITMAP
000690150000
006565968000
002025408000
002021818000
002421814000
001AA06A0000
000000000000
009000000000
029BAE415000
0200066FBD00
060002002600
060006001A00
020005002900
02AAE5542500
0340D95ED600
0650C0180300
0AA8C01FE600
090080180300
090140080300
0902400C0300
080300080300
0C0300090240
1D4200090180
1966400AA9C0
180300090180
140600051580
24091AABEE80
300BAA540780
6009030003C0
A00902000390
296C02000690
0E50156BFF40
0A1BAA805400
029000000000
ENDCHAR
STARTCHAR divide
ENCODING 247
SWIDTH 457 0
DWIDTH 16 0
BBX 16 20 0 2
BITMAP
000AA400
00140C00
00180800
00180800
00191800
00069000
04004000
1AEAFAA8
30009109
60005006
60005006
30004009
2AAAAAE8
05004010
00069000
00191C00
00180800
00180800
00180C00
000AA400
ENDCHAR
STARTCHAR oslash
ENCODING 248
SWIDTH 612 0
DWIDTH 22 0
BBX 22 28 0 -2
BITMAP
009000000000
029BAE42A400
020006AE5D00
060002090300
060006080240
020005240600
02AAE5A00E00
0340DAC02600
0650C3405300
0AA8CAA0A600
090088198300
090158024300
090260090300
0802601D0300
0C0380290240
1D4340590180
196B808AA9C0
1808B5890180
141816451580
242007ABEE80
30901E540780
6180230003C0
A60092000390
2C0082000690
0C01556BFF40
0602AA805400
02EA00000000
005400000000
ENDCHAR
STARTCHAR ugrave
ENCODING 249
SWIDTH 583 0
DWIDTH 21 0
BBX 21 35 0 -1
BITMAP
0001A8000000
000608000000
000808000000
000605000000
000242000000
000082400000
000052400000
000029000000
000000010000
02EE402EB400
0601D0A00C00
0600C0500800
020180601800
060140201800
060240301800
090240200C00
0D5240654800
1D5580795900
0C0240600C00
0C0300300C00
0C0300200C00
0C0200240800
180200240900
294300240600
2967003AA600
140600240600
140900268500
24096AB96500
200BA9402900
60090C002A00
900508002700
395D08057240
0EA001B95700
061BEA0AB900
02E400000000
ENDCHAR
STARTCHAR uacute
ENCODING 250
SWIDTH 583 0
DWIDTH 21 0
BBX 21 35 0 -1
BITMAP
000000A00000
000002580000
000002060000
000009090000
000018240000
000060900000
000061800000
00001B000000
000000010000
02EE402EB400
0601D0A00C00
0600C0500800
020180601800
060140201800
060240301800
090240200C00
0D5240654800
1D5580795900
0C0240600C00
0C0300300C00
0C0300200C00
0C0200240800
180200240900
294300240600
2967003AA600
140600240600
140900268500
24096AB96500
200BA9402900
60090C002A00
900508002700
395D08057240
0EA001B95700
061BEA0AB900
02E400000000
ENDCHAR
STARTCHAR ucircumflex
ENCODING 251
SWIDTH 583 0
DWIDTH 21 0
BBX 21 36 0 -1
BITMAP
0000AE400000
000083800000
000242D00000
000606200000
00081C140000
002429090000
002052020000
002482460000
000A40A80000
000000010000
02EE402EB400
0601D0A00C00
0600C0500800
020180601800
060140201800
060240301800
090240200C00
0D5240654800
1D5580795900
0C0240600C00
0C0300300C00
0C0300200C00
0C0200240800
180200240900
294300240600
2967003AA600
140600240600
140900268500
24096AB96500
200BA9402900
60090C002A00
900508002700
395D08057240
0EA001B95700
061BEA0AB900
02E400000000
ENDCHAR
STARTCHAR udieresis
ENCODING 252
SWIDTH 583 0
DWIDTH 21 0
BBX 21 34 0 -1
BITMAP
001640540000
00A572964000
009062024000
006062020000
002052020000
002A81A90000
000000000000
000000010000
02EE402EB400
0601D0A00C00
0600C0500800
020180601800
060140201800
060240301800
090240200C00
0D5240654800
1D5580795900
0C0240600C00
0C0300300C00
0C0300200C00
0C0200240800
180200240900
294300240600
2967003AA600
140600240600
140900268500
24096AB96500
200BA9402900
60090C002A00
900508002700
395D08057240
0EA001B95700
061BEA0AB900
02E400000000
ENDCHAR
STARTCHAR yacute
ENCODING 253
SWIDTH 484 0
DWIDTH 17 0
BBX 20 33 -1 0
BITMAP
0000019000
0000022800
0000090800
0000181800
0000206000
0000908000
0000924000
00002A0000
0140001A40
1AA00035A0
2424002018
9018006009
9009009018
2402418030
0900930060
03012B4080
02591D6480
00E0180580
00A0240300
0024200900
0009600C00
0003C01400
0002E02000
0002593000
0003016000
0006009000
000C028000
0028030000
0060060000
0090090000
00600C0000
001E5C0000
0001900000
ENDCHAR
STARTCHAR thorn
ENCODING 254
SWIDTH 520 0
DWIDTH 19 0
BBX 18 26 1 -1
BITMAP
1BA4000000
7419000000
2059000000
32AD000000
2606900000
39006B0000
380006A000
6900091A90
BFA4080060
505E540030
6009A50020
201816D090
3018066AD0
2018280590
6009D001D0
694AA00A00
6558186400
600C088000
6018064000
6018280000
6018900000
601A400000
900D000000
C00C000000
79B8000000
0540000000
ENDCHAR
STARTCHAR ydieresis
ENCODING 255
SWIDTH 484 0
DWIDTH 17 0
BBX 20 32 -1 0
BITMAP
0019415400
0195965A00
0180850200
0080850500
0080C60900
006A42A800
0000000000
0140001A40
1AA00035A0
2424002018
9018006009
9009009018
2402418030
0900930060
03012B4080
02591D6480
00E0180580
00A0240300
0024200900
0009600C00
0003C01400
0002E02000
0002593000
0003016000
0006009000
000C028000
0028030000
0060060000
0090090000
00600C0000
001E5C0000
0001900000
ENDCHAR
STARTCHAR Amacron
ENCODING 256
SWIDTH 507 0
DWIDTH 18 0
BBX 19 31 0 0
BITMAP
001A568000
0061556000
0090002000
0055546000
002A6A8000
0000000000
002EE00000
0060180000
00600A4000
0060199000
0090249000
0080305000
0180306000
02A4203000
0356202400
0300605800
0300BA4C00
0200A40C00
0601980C00
09024C0990
0D025AAE24
1EA6ED5018
1806490008
1806050008
2409050568
300801BAD0
600EBE8090
900D018060
C008008034
641C00C1A0
1BE000AA40
ENDCHAR
STARTCHAR amacron
ENCODING 257
SWIDTH 507 0
DWIDTH 18 0
BBX 19 31 0 0
BITMAP
001A568000
0061556000
0090002000
0055546000
002A6A8000
0000000000
002EE00000
0060180000
00600A4000
0060199000
0090249000
0080305000
0180306000
02A4203000
0356202400
0300605800
0300BA4C00
0200A40C00
0601980C00
09024C0990
0D025AAE24
1EA6ED5018
1806490008
1806050008
2409050568
300801BAD0
600EBE8090
900D018060
C008008034
641C00C1A0
1BE000AA40
ENDCHAR
STARTCHAR Abreve
ENCODING 258
SWIDTH 507 0
DWIDTH 18 0
BBX 19 35 0 0
BITMAP
0064015000
0296066800
0242050C00
0182081800
00825D2000
00C2A5A000
008240E000
00AA40D000
000AAB4000
0000000000
002EE00000
0060180000
00600A4000
0060199000
0090249000
0080305000
0180306000
02A4203000
0356202400
0300605800
0300BA4C00
0200A40C00
0601980C00
09024C0990
0D025AAE24
1EA6ED5018
1806490008
1806050008
2409050568
300801BAD0
600EBE8090
900D018060
C008008034
641C00C1A0
1BE000AA40
ENDCHAR
STARTCHAR abreve
ENCODING 259
SWIDTH 507 0
DWIDTH 18 0
BBX 19 35 0 0
BITMAP
0064015000
0296066800
0242050C00
0182081800
00825D2000
00C2A5A000
008240E000
00AA40D000
000AAB4000
0000000000
002EE00000
0060180000
00600A4000
0060199000
0090249000
0080305000
0180306000
02A4203000
0356202400
0300605800
0300BA4C00
0200A40C00
0601980C00
09024C0990
0D025AAE24
1EA6ED5018
1806490008
1806050008
2409050568
300801BAD0
600EBE8090
900D018060
C008008034
641C00C1A0
1BE000AA40
ENDCHAR
STARTCHAR Aogonek
ENCODING 260
SWIDTH 507 0
DWIDTH 18 0
BBX 20 33 0 -8
BITMAP
002EE00000
0060180000
00600A4000
0060199000
0090249000
0080305000
0180306000
02A4203000
0356202400
0300605800
0300BA4C00
0200A40C00
0601980C00
09024C0990
0D025AAE24
1EA6ED5018
1806490008
1806050008
2409050568
300801BAD0
600EBE8090
900D018060
C008008034
641C00C1A0
1BE000BAC0
0000008140
0000014300
0000024780
000000F864
0000007409
0000000908
0000000264
0000000090
ENDCHAR
STARTCHAR aogonek
ENCODING 261
SWIDTH 507 0
DWIDTH 18 0
BBX 20 33 0 -8
BITMAP
002EE00000
0060180000
00600A4000
0060199000
0090249000
0080305000
0180306000
02A4203000
0356202400
0300605800
0300BA4C00
0200A40C00
0601980C00
09024C0990
0D025AAE24
1EA6ED5018
1806490008
1806050008
2409050568
300801BAD0
600EBE8090
900D018060
C008008034
641C00C1A0
1BE000BAC0
0000008140
0000014300
0000024780
000000F864
0000007409
0000000908
0000000264
0000000090
ENDCHAR
STARTCHAR Cacute
ENCODING 262
SWIDTH 515 0
DWIDTH 19 0
BBX 19 35 0 -1
BITMAP
0000006400
0000008A00
0000024200
0000060600
0000081800
0000242000
0000249000
00000A8000
0090000000
029BAE4040
0200066FA0
0600020024
0600060014
0200050024
02AAE55420
0340D95AD0
0650C00000
0AA8C00000
0900800000
0901400000
0902400000
0803000000
0C03000000
1D42000000
1966400000
1803000000
1405000140
24096AAAA0
300B9D5024
6009090014
A009050014
296C050024
0E5055BAA0
0A1BAA4000
0290000000
ENDCHAR
STARTCHAR cacute
ENCODING 263
SWIDTH 515 0
DWIDTH 19 0
BBX 19 35 0 -1
BITMAP
0000006400
0000008A00
0000024200
0000060600
0000081800
0000242000
0000249000
00000A8000
0090000000
029BAE4040
0200066FA0
0600020024
0600060014
0200050024
02AAE55420
0340D95AD0
0650C00000
0AA8C00000
0900800000
0901400000
0902400000
0803000000
0C03000000
1D42000000
1966400000
1803000000
1405000140
24096AAAA0
300B9D5024
6009090014
A009050014
296C050024
0E5055BAA0
0A1BAA4000
0290000000
ENDCHAR
STARTCHAR Ccircumflex
ENCODING 264
SWIDTH 515 0
DWIDTH 19 0
BBX 19 36 0 -1
BITMAP
00002B9000
000020E000
000090B400
0001818800
0002070900
00090A4240
0008148080
0009209180
0002906A00
0090000000
029BAE4040
0200066FA0
0600020024
0600060014
0200050024
02AAE55420
0340D95AD0
0650C00000
0AA8C00000
0900800000
0901400000
0902400000
0803000000
0C03000000
1D42000000
1966400000
1803000000
1405000140
24096AAAA0
300B9D5024
6009090014
A009050014
296C050024
0E5055BAA0
0A1BAA4000
0290000000
ENDCHAR
STARTCHAR ccircumflex
ENCODING 265
SWIDTH 515 0
DWIDTH 19 0
BBX 19 36 0 -1
BITMAP
00002B9000
000020E000
000090B400
0001818800
0002070900
00090A4240
0008148080
0009209180
0002906A00
0090000000
029BAE4040
0200066FA0
0600020024
0600060014
0200050024
02AAE55420
0340D95AD0
0650C00000
0AA8C00000
0900800000
0901400000
0902400000
0803000000
0C03000000
1D42000000
1966400000
1803000000
1405000140
24096AAAA0
300B9D5024
6009090014
A009050014
296C050024
0E5055BAA0
0A1BAA4000
0290000000
ENDCHAR
STARTCHAR Cdotaccent
ENCODING 266
SWIDTH 515 0
DWIDTH 19 0
BBX 19 33 0 -1
BITMAP
0000164000
0000A56000
0000906000
0000605000
0000605000
00002A8000
0090000000
029BAE4040
0200066FA0
0600020024
0600060014
0200050024
02AAE55420
0340D95AD0
0650C00000
0AA8C00000
0900800000
0901400000
0902400000
0803000000
0C03000000
1D42000000
1966400000
1803000000
1405000140
24096AAAA0
300B9D5024
6009090014
A009050014
296C050024
0E5055BAA0
0A1BAA4000
0290000000
ENDCHAR
STARTCHAR cdotaccent
ENCODING 267
SWIDTH 515 0
DWIDTH 19 0
BBX 19 33 0 -1
BITMAP
0000164000
0000A56000
0000906000
0000605000
0000605000
00002A8000
0090000000
029BAE4040
0200066FA0
0600020024
0600060014
0200050024
02AAE55420
0340D95AD0
0650C00000
0AA8C00000
0900800000
0901400000
0902400000
0803000000
0C03000000
1D42000000
1966400000
1803000000
1405000140
24096AAAA0
300B9D5024
6009090014
A009050014
296C050024
0E5055BAA0
0A1BAA4000
0290000000
ENDCHAR
STARTCHAR Ccaron
ENCODING 268
SWIDTH 515 0
DWIDTH 19 0
BBX 19 37 0 -1
BITMAP
0000401400
000AA06A00
0018248180
0008098180
00060A0200
0002020800
0001816400
000080E000
000096D000
00002A8000
0090000000
029BAE4040
0200066FA0
0600020024
0600060014
0200050024
02AAE55420
0340D95AD0
0650C00000
0AA8C00000
0900800000
0901400000
0902400000
0803000000
0C03000000
1D42000000
1966400000
1803000000
1405000140
24096AAAA0
300B9D5024
6009090014
A009050014
296C050024
0E5055BAA0
0A1BAA4000
0290000000
ENDCHAR
STARTCHAR ccaron
ENCODING 269
SWIDTH 515 0
DWIDTH 19 0
BBX 19 37 0 -1
BITMAP
0000401400
000AA06A00
0018248180
0008098180
00060A0200
0002020800
0001816400
000080E000
000096D000
00002A8000
0090000000
029BAE4040
0200066FA0
0600020024
0600060014
0200050024
02AAE55420
0340D95AD0
0650C00000
0AA8C00000
0900800000
0901400000
0902400000
0803000000
0C03000000
1D42000000
1966400000
1803000000
1405000140
24096AAAA0
300B9D5024
6009090014
A009050014
296C050024
0E5055BAA0
0A1BAA4000
0290000000
ENDCHAR
STARTCHAR Dcaron
ENCODING 270
SWIDTH 520 0
DWIDTH 19 0
BBX 18 38 1 -1
BITMAP
0010010000
02AC1A8000
0205206000
0202606000
0182C08000
0090824000
0020660000
0024380000
0018B80000
000AA00000
0000000000
017A000000
2F82400000
6300900000
3600240000
36000A0000
2290028000
303401E000
300D022400
654F580D00
A559800740
600C7400A0
60080A0030
3018028060
301801D1D0
2008037A70
600C1D1430
7E99A00190
600AA80600
600E051800
201C023000
6018009000
6018074000
5008180000
800C700000
901CD00000
2EF6800000
001A000000
ENDCHAR
STARTCHAR dcaron
ENCODING 271
SWIDTH 520 0
DWIDTH 19 0
BBX 18 38 1 -1
BITMAP
0010010000
02AC1A8000
0205206000
0202606000
0182C08000
0090824000
0020660000
0024380000
0018B80000
000AA00000
0000000000
017A000000
2F82400000
6300900000
3600240000
36000A0000
2290028000
303401E000
300D022400
654F580D00
A559800740
600C7400A0
60080A0030
3018028060
301801D1D0
2008037A70
600C1D1430
7E99A00190
600AA80600
600E051800
201C023000
6018009000
6018074000
5008180000
800C700000
901CD00000
2EF6800000
001A000000
ENDCHAR
STARTCHAR Dcroat
ENCODING 272
SWIDTH 669 0
DWIDTH 24 0
BBX 26 27 -1 -1
BITMAP
000001BD000000
00007B42000000
0000D901800000
00009C00A00000
00005C00180000
00005640074000
000090A003C000
00009028096000
0000D51E242400
0000E55A400A00
1A50D424A001D0
606AAA20180090
900003200600C0
900002200282C0
600003200AAD90
2AAA9A24281090
0400FE59D00280
0000C01BA00900
0000802D182400
00008034059000
00008030028000
0000C0300A0000
00008020240000
00018014900000
00018026800000
00007AE7000000
00000069000000
ENDCHAR
STARTCHAR dcroat
ENCODING 273
SWIDTH 669 0
DWIDTH 24 0
BBX 26 27 -1 -1
BITMAP
000001BD000000
00007B42000000
0000D901800000
00009C00A00000
00005C00180000
00005640074000
000090A003C000
00009028096000
0000D51E242400
0000E55A400A00
1A50D424A001D0
606AAA20180090
900003200600C0
900002200282C0
600003200AAD90
2AAA9A24281090
0400FE59D00280
0000C01BA00900
0000802D182400
00008034059000
00008030028000
0000C0300A0000
00008020240000
00018014900000
00018026800000
00007AE7000000
00000069000000
ENDCHAR
STARTCHAR Emacron
ENCODING 274
SWIDTH 490 0
DWIDTH 18 0
BBX 17 32 1 0
BITMAP
00A95A0000
0185564000
0200008000
0255418000
00AAAA0000
0000000000
0140000000
2EBAB96E00
600A355240
3009200140
300C200180
200C200240
300E9BEB00
300D540400
654C000000
A558000000
600D060000
600EAA8000
3018008000
3018009000
2008008000
600E958000
7E995A0000
600C000000
6008000000
201FF55800
6018669600
6018600200
5008600300
800C500200
901EAA9900
2EE4506800
ENDCHAR
STARTCHAR emacron
ENCODING 275
SWIDTH 490 0
DWIDTH 18 0
BBX 17 32 1 0
BITMAP
00A95A0000
0185564000
0200008000
0255418000
00AAAA0000
0000000000
0140000000
2EBAB96E00
600A355240
3009200140
300C200180
200C200240
300E9BEB00
300D540400
654C000000
A558000000
600D060000
600EAA8000
3018008000
3018009000
2008008000
600E958000
7E995A0000
600C000000
6008000000
201FF55800
6018669600
6018600200
5008600300
800C500200
901EAA9900
2EE4506800
ENDCHAR
STARTCHAR Ebreve
ENCODING 276
SWIDTH 490 0
DWIDTH 18 0
BBX 17 35 1 0
BITMAP
0064014000
0359096000
0209081400
0205082000
0246696000
0143969000
018201C000
00ED428000
001AAA0000
0140000000
2EBAB96E00
600A355240
3009200140
300C200180
200C200240
300E9BEB00
300D540400
654C000000
A558000000
600D060000
600EAA8000
3018008000
3018009000
2008008000
600E958000
7E995A0000
600C000000
6008000000
201FF55800
6018669600
6018600200
5008600300
800C500200
901EAA9900
2EE4506800
ENDCHAR
STARTCHAR ebreve
ENCODING 277
SWIDTH 490 0
DWIDTH 18 0
BBX 17 35 1 0
BITMAP
0064014000
0359096000
0209081400
0205082000
0246696000
0143969000
018201C000
00ED428000
001AAA0000
0140000000
2EBAB96E00
600A355240
3009200140
300C200180
200C200240
300E9BEB00
300D540400
654C000000
A558000000
600D060000
600EAA8000
3018008000
3018009000
2008008000
600E958000
7E995A0000
600C000000
6008000000
201FF55800
6018669600
6018600200
5008600300
800C500200
901EAA9900
2EE4506800
ENDCHAR
STARTCHAR Edotaccent
ENCODING 278
SWIDTH 490 0
DWIDTH 18 0
BBX 17 33 1 0
BITMAP
0006900000
0029680000
0020140000
0014240000
0014240000
001AA00000
0000000000
0140000000
2EBAB96E00
600A355240
3009200140
300C200180
200C200240
300E9BEB00
300D540400
654C000000
A558000000
600D060000
600EAA8000
3018008000
3018009000
2008008000
600E958000
7E995A0000
600C000000
6008000000
201FF55800
6018669600
6018600200
5008600300
800C500200
901EAA9900
2EE4506800
ENDCHAR
STARTCHAR edotaccent
ENCODING 279
SWIDTH 490 0
DWIDTH 18 0
BBX 17 33 1 0
BITMAP
0006900000
0029680000
0020140000
0014240000
0014240000
001AA00000
0000000000
0140000000
2EBAB96E00
600A355240
3009200140
300C200180
200C200240
300E9BEB00
300D540400
654C000000
A558000000
600D060000
600EAA8000
3018008000
3018009000
2008008000
600E958000
7E995A0000
600C000000
6008000000
201FF55800
6018669600
6018600200
5008600300
800C500200
901EAA9900
2EE4506800
ENDCHAR
STARTCHAR Eogonek
ENCODING 280
SWIDTH 490 0
DWIDTH 18 0
BBX 17 34 1 -8
BITMAP
0140000000
2EBAB96E00
600A355240
3009200140
300C200180
200C200240
300E9BEB00
300D540400
654C000000
A558000000
600D060000
600EAA8000
3018008000
3018009000
2008008000
600E958000
7E995A0000
600C000000
6008000000
201FF55800
6018669600
6018600200
5008600300
800C500200
901EAA9900
2EE4647800
0000209000
0000908000
000091A000
00003E1900
00001D0200
0000024200
0000009900
0000001000
ENDCHAR
STARTCHAR eogonek
ENCODING 281
SWIDTH 490 0
DWIDTH 18 0
BBX 17 34 1 -8
BITMAP
0140000000
2EBAB96E00
600A355240
3009200140
300C200180
200C200240
300E9BEB00
300D540400
654C000000
A558000000
600D060000
600EAA8000
3018008000
3018009000
2008008000
600E958000
7E995A0000
600C000000
6008000000
201FF55800
6018669600
6018600200
5008600300
800C500200
901EAA9900
2EE4647800
0000209000
0000908000
000091A000
00003E1900
00001D0200
0000024200
0000009900
0000001000
ENDCHAR
STARTCHAR Ecaron
ENCODING 282
SWIDTH 490 0
DWIDTH 18 0
BBX 17 36 1 0
BITMAP
0010010000
01A90A9000
0202182000
0142602400
0080E09000
0060918000
0024220000
00181D0000
00097C0000
0006A40000
0140000000
2EBAB96E00
600A355240
3009200140
300C200180
200C200240
300E9BEB00
300D540400
654C000000
A558000000
600D060000
600EAA8000
3018008000
3018009000
2008008000
600E958000
7E995A0000
600C000000
6008000000
201FF55800
6018669600
6018600200
5008600300
800C500200
901EAA9900
2EE4506800
ENDCHAR
STARTCHAR ecaron
ENCODING 283
SWIDTH 490 0
DWIDTH 18 0
BBX 17 36 1 0
BITMAP
0010010000
01A90A9000
0202182000
0142602400
0080E09000
0060918000
0024220000
00181D0000
00097C0000
0006A40000
0140000000
2EBAB96E00
600A355240
3009200140
300C200180
200C200240
300E9BEB00
300D540400
654C000000
A558000000
600D060000
600EAA8000
3018008000
3018009000
2008008000
600E958000
7E995A0000
600C000000
6008000000
201FF55800
6018669600
6018600200
5008600300
800C500200
901EAA9900
2EE4506800
ENDCHAR
STARTCHAR Gcircumflex
ENCODING 284
SWIDTH 557 0
DWIDTH 20 0
BBX 20 36 0 -1
BITMAP
00003B8000
000091D000
000080E000
0002425400
00060A0800
00181A0600
0024214140
0018608200
0006806900
0090000000
029BAE4040
0200066FA0
0600020024
0600060014
0200050024
02AAE55420
0340D95AD0
0650C00000
0AA8C00000
0900800000
0901401AA0
090240641C
0803006008
0C03003018
1D42002018
1966402008
1803002548
1405007958
24096AA00C
300B9D700C
6009092008
A009052009
296C053006
0E5055B409
0A1BAA5AE4
0290000000
ENDCHAR
STARTCHAR gcircumflex
ENCODING 285
SWIDTH 557 0
DWIDTH 20 0
BBX 20 36 0 -1
BITMAP
00003B8000
000091D000
000080E000
0002425400
00060A0800
00181A0600
0024214140
0018608200
0006806900
0090000000
029BAE4040
0200066FA0
0600020024
0600060014
0200050024
02AAE55420
0340D95AD0
0650C00000
0AA8C00000
0900800000
0901401AA0
090240641C
0803006008
0C03003018
1D42002018
1966402008
1803002548
1405007958
24096AA00C
300B9D700C
6009092008
A009052009
296C053006
0E5055B409
0A1BAA5AE4
0290000000
ENDCHAR
STARTCHAR Gbreve
ENCODING 286
SWIDTH 557 0
DWIDTH 20 0
BBX 20 36 0 -1
BITMAP
0006401400
0025909640
0020508180
0024508200
0014659200
0018396900
0018301D00
000EE41800
0001AAB000
0090000000
029BAE4040
0200066FA0
0600020024
0600060014
0200050024
02AAE55420
0340D95AD0
0650C00000
0AA8C00000
0900800000
0901401AA0
090240641C
0803006008
0C03003018
1D42002018
1966402008
1803002548
1405007958
24096AA00C
300B9D700C
6009092008
A009052009
296C053006
0E5055B409
0A1BAA5AE4
0290000000
ENDCHAR
STARTCHAR gbreve
ENCODING 287
SWIDTH 557 0
DWIDTH 20 0
BBX 20 36 0 -1
BITMAP
0006401400
0025909640
0020508180
0024508200
0014659200
0018396900
0018301D00
000EE41800
0001AAB000
0090000000
029BAE4040
0200066FA0
0600020024
0600060014
0200050024
02AAE55420
0340D95AD0
0650C00000
0AA8C00000
0900800000
0901401AA0
090240641C
0803006008
0C03003018
1D42002018
1966402008
1803002548
1405007958
24096AA00C
300B9D700C
6009092008
A009052009
296C053006
0E5055B409
0A1BAA5AE4
0290000000
ENDCHAR
STARTCHAR Gdotaccent
ENCODING 288
SWIDTH 557 0
DWIDTH 20 0
BBX 20 33 0 -1
BITMAP
0000164000
0000A57000
0000902000
0000606000
0000206000
00002A9000
0090000000
029BAE4040
0200066FA0
0600020024
0600060014
0200050024
02AAE55420
0340D95AD0
0650C00000
0AA8C00000
0900800000
0901401AA0
090240641C
0803006008
0C03003018
1D42002018
1966402008
1803002548
1405007958
24096AA00C
300B9D700C
6009092008
A009052009
296C053006
0E5055B409
0A1BAA5AE4
0290000000
ENDCHAR
STARTCHAR gdotaccent
ENCODING 289
SWIDTH 557 0
DWIDTH 20 0
BBX 20 33 0 -1
BITMAP
0000164000
0000A57000
0000902000
0000606000
0000206000
00002A9000
0090000000
029BAE4040
0200066FA0
0600020024
0600060014
0200050024
02AAE55420
0340D95AD0
0650C00000
0AA8C00000
0900800000
0901401AA0
090240641C
0803006008
0C03003018
1D42002018
1966402008
1803002548
1405007958
24096AA00C
300B9D700C
6009092008
A009052009
296C053006
0E5055B409
0A1BAA5AE4
0290000000
ENDCHAR
STARTCHAR Gcommaaccent
ENCODING 290
SWIDTH 557 0
DWIDTH 20 0
BBX 20 35 0 -9
BITMAP
0090000000
029BAE4040
0200066FA0
0600020024
0600060014
0200050024
02AAE55420
0340D95AD0
0650C00000
0AA8C00000
0900800000
0901401AA0
090240641C
0803006008
0C03003018
1D42002018
1966402008
1803002548
1405007958
24096AA00C
300B9D700C
6009092008
A009052009
296C053006
0E5055B409
0A1BAA5AE4
0290000000
0000280000
0000960000
0000818000
0002424000
0006090000
0018240000
0018600000
000AC00000
ENDCHAR
STARTCHAR gcommaaccent
ENCODING 291
SWIDTH 557 0
DWIDTH 20 0
BBX 20 35 0 -9
BITMAP
0090000000
029BAE4040
0200066FA0
0600020024
0600060014
0200050024
02AAE55420
0340D95AD0
0650C00000
0AA8C00000
0900800000
0901401AA0
090240641C
0803006008
0C03003018
1D42002018
1966402008
1803002548
1405007958
24096AA00C
300B9D700C
6009092008
A009052009
296C053006
0E5055B409
0A1BAA5AE4
0290000000
0000280000
0000960000
0000818000
0002424000
0006090000
0018240000
0018600000
000AC00000
ENDCHAR
STARTCHAR Hcircumflex
ENCODING 292
SWIDTH 611 0
DWIDTH 22 0
BBX 21 35 1 0
BITMAP
0000EE000000
000147400000
000203800000
000909500000
001828200000
006068080000
005085050000
002182090000
001A01A40000
014000054000
2EB80079B400
600900C00C00
300900800C00
300C00901800
200C00501800
300800601800
300C00501800
654C00951800
A55800EA8800
600C00901800
600800902400
301800502900
30180051B640
200C00BA4080
600D5A5800C0
7E9A900800C0
600C80080580
60088006FA40
201886F91400
6019B9902400
601D40801400
900800C01800
800C01800800
901C01D02800
2EE4006FD000
ENDCHAR
STARTCHAR hcircumflex
ENCODING 293
SWIDTH 611 0
DWIDTH 22 0
BBX 21 35 1 0
BITMAP
0000EE000000
000147400000
000203800000
000909500000
001828200000
006068080000
005085050000
002182090000
001A01A40000
014000054000
2EB80079B400
600900C00C00
300900800C00
300C00901800
200C00501800
300800601800
300C00501800
654C00951800
A55800EA8800
600C00901800
600800902400
301800502900
30180051B640
200C00BA4080
600D5A5800C0
7E9A900800C0
600C80080580
60088006FA40
201886F91400
6019B9902400
601D40801400
900800C01800
800C01800800
901C01D02800
2EE4006FD000
ENDCHAR
STARTCHAR Hbar
ENCODING 294
SWIDTH 706 0
DWIDTH 25 0
BBX 25 26 1 0
BITMAP
00140000540000
02EA80079B8000
0300A00D009000
0300900900C000
02408006008000
6B40E95B959900
9240E5559A9600
C300E000800240
C7549000800240
87559000400200
6A00AAAAAAA600
0700D006419400
0300C00601E000
0300C0061B6800
0300C007E40C00
020095A9800800
07E9AD40800C00
06009800805800
0200C8006EA400
0300C86F918000
0300D799018000
0200D409018000
0600C008008000
0900900C00C000
0A00900D028000
02EE4002FE0000
ENDCHAR
STARTCHAR hbar
ENCODING 295
SWIDTH 706 0
DWIDTH 25 0
BBX 25 26 1 0
BITMAP
00140000540000
02EA80079B8000
0300A00D009000
0300900900C000
02408006008000
6B40E95B959900
9240E5559A9600
C300E000800240
C7549000800240
87559000400200
6A00AAAAAAA600
0700D006419400
0300C00601E000
0300C0061B6800
0300C007E40C00
020095A9800800
07E9AD40800C00
06009800805800
0200C8006EA400
0300C86F918000
0300D799018000
0200D409018000
0600C008008000
0900900C00C000
0A00900D028000
02EE4002FE0000
ENDCHAR
STARTCHAR Itilde
ENCODING 296
SWIDTH 266 0
DWIDTH 10 0
BBX 15 35 -2 0
BITMAP
01EE06A0
02074918
06078808
0808A420
24243090
A0681880
80890A40
62460B00
1A02AD00
00050000
00BAE000
01802400
00C02400
00C03000
00803000
00C02000
00C03000
01953000
02956000
01803000
01802000
00C06000
00C06000
00802000
01803000
01FA6400
01803000
01802000
00806000
01806000
01806000
02402000
02003000
02407000
00BB9000
ENDCHAR
STARTCHAR itilde
ENCODING 297
SWIDTH 266 0
DWIDTH 10 0
BBX 15 35 -2 0
BITMAP
01EE06A0
02074918
06078808
0808A420
24243090
A0681880
80890A40
62460B00
1A02AD00
00050000
00BAE000
01802400
00C02400
00C03000
00803000
00C02000
00C03000
01953000
02956000
01803000
01802000
00C06000
00C06000
00802000
01803000
01FA6400
01803000
01802000
00806000
01806000
01806000
02402000
02003000
02407000
00BB9000
ENDCHAR
STARTCHAR Imacron
ENCODING 298
SWIDTH 266 0
DWIDTH 10 0
BBX 10 31 0 0
BITMAP
2A5680
615550
800020
955460
2AAA80
005000
0BAE00
180240
0C0240
0C0300
080300
0C0200
0C0300
195300
295600
180300
180200
0C0600
0C0600
080200
180300
1FA640
180300
180200
080600
180600
180600
240200
200300
240700
0BB900
ENDCHAR
STARTCHAR imacron
ENCODING 299
SWIDTH 266 0
DWIDTH 10 0
BBX 10 31 0 0
BITMAP
2A5680
615550
800020
955460
2AAA80
005000
0BAE00
180240
0C0240
0C0300
080300
0C0200
0C0300
195300
295600
180300
180200
0C0600
0C0600
080200
180300
1FA640
180300
180200
080600
180600
180600
240200
200300
240700
0BB900
ENDCHAR
STARTCHAR Ibreve
ENCODING 300
SWIDTH 266 0
DWIDTH 10 0
BBX 12 35 -1 0
BITMAP
164054
65819A
508142
208242
209699
206968
245028
1ED034
02AAD0
001400
02EB80
060090
030090
0300C0
0200C0
030080
0300C0
0654C0
0A5580
0600C0
060080
030180
030180
020080
0600C0
07E990
0600C0
060080
020180
060180
060180
090080
0800C0
0901C0
02EE40
ENDCHAR
STARTCHAR ibreve
ENCODING 301
SWIDTH 266 0
DWIDTH 10 0
BBX 12 35 -1 0
BITMAP
164054
65819A
508142
208242
209699
206968
245028
1ED034
02AAD0
001400
02EB80
060090
030090
0300C0
0200C0
030080
0300C0
0654C0
0A5580
0600C0
060080
030180
030180
020080
0600C0
07E990
0600C0
060080
020180
060180
060180
090080
0800C0
0901C0
02EE40
ENDCHAR
STARTCHAR Iogonek
ENCODING 302
SWIDTH 266 0
DWIDTH 10 0
BBX 9 35 0 -9
BITMAP
005000
0BAE00
180240
0C0240
0C0300
080300
0C0200
0C0300
195300
295600
180300
180200
0C0600
0C0600
080200
180300
1FA640
180300
180200
080600
180600
180600
240200
200300
240700
0FBD00
182400
246000
609000
60E400
2E4A00
0A0140
018240
006A00
001400
ENDCHAR
STARTCHAR iogonek
ENCODING 303
SWIDTH 266 0
DWIDTH 10 0
BBX 9 35 0 -9
BITMAP
005000
0BAE00
180240
0C0240
0C0300
080300
0C0200
0C0300
195300
295600
180300
180200
0C0600
0C0600
080200
180300
1FA640
180300
180200
080600
180600
180600
240200
200300
240700
0FBD00
182400
246000
609000
60E400
2E4A00
0A0140
018240
006A00
001400
ENDCHAR
STARTCHAR Idotaccent
ENCODING 304
SWIDTH 266 0
DWIDTH 10 0
BBX 8 33 1 0
BITMAP
0690
2968
2014
2424
1424
1AA0
0000
0140
2EB8
6009
3009
300C
200C
3008
300C
654C
A558
600C
6008
3018
3018
2008
600C
7E99
600C
6008
2018
6018
6018
9008
800C
901C
2EE4
ENDCHAR
STARTCHAR dotlessi
ENCODING 305
SWIDTH 266 0
DWIDTH 10 0
BBX 8 26 1 0
BITMAP
0140
2EB8
6009
3009
300C
200C
3008
300C
654C
A558
600C
6008
3018
3018
2008
600C
7E99
600C
6008
2018
6018
6018
9008
800C
901C
2EE4
ENDCHAR
STARTCHAR IJ
ENCODING 306
SWIDTH 750 0
DWIDTH 27 0
BBX 25 28 1 -2
BITMAP
01400000001000
2EB8000006AA40
600900000901C0
30090000050180
300C0000060140
200C0000060240
30080000060240
300C0000090140
654C0000095180
A55800000E5980
600C00000C0140
60080000090240
30180000090240
30180BD0090240
20083460090240
600C9024090140
7E99C0090FA980
600CA0028C0180
60081C01990240
20180619390240
601802601D0200
601801D00A0240
9008006001C240
800C0018008180
901C000601C280
2EE4000203EE00
00000001AD0000
00000000500000
ENDCHAR
STARTCHAR ij
ENCODING 307
SWIDTH 749 0
DWIDTH 27 0
BBX 25 28 1 -2
BITMAP
01400000001000
2EB8000006AA40
600900000901C0
30090000050180
300C0000060140
200C0000060240
30080000060240
300C0000090140
654C0000095180
A55800000E5980
600C00000C0140
60080000090240
30180000090240
30180BD0090240
20083460090240
600C9024090140
7E99C0090FA980
600CA0028C0180
60081C01990240
20180619390240
601802601D0200
601801D00A0240
9008006001C240
800C0018008180
901C000601C280
2EE4000203EE00
00000001AD0000
00000000500000
ENDCHAR
STARTCHAR Jcircumflex
ENCODING 308
SWIDTH 484 0
DWIDTH 17 0
BBX 20 37 -1 -2
BITMAP
000001EE00
0000024740
0000060380
0000090990
0000242420
0000606818
0000908909
0000614208
00001A02A4
0000001400
000002EB80
0000060090
0000020080
00000300C0
0000030080
0000030080
0000020080
00000654C0
00000A5580
00000600C0
0000060180
0000020180
07A0020180
2824020180
60180600C0
900607E980
7401D600C0
0901660180
020A2A0180
01A40E0180
00A0074180
0024009180
00090060C0
00030091C0
000182EE40
0000EA0000
0000100000
ENDCHAR
STARTCHAR jcircumflex
ENCODING 309
SWIDTH 482 0
DWIDTH 17 0
BBX 20 37 -1 -2
BITMAP
000001EE00
0000024740
0000060380
0000090990
0000242420
0000606818
0000908909
0000614208
00001A02A4
0000001400
000002EB80
0000060090
0000020080
00000300C0
0000030080
0000030080
0000020080
00000654C0
00000A5580
00000600C0
0000060180
0000020180
07A0020180
2824020180
60180600C0
900607E980
7401D600C0
0901660180
020A2A0180
01A40E0180
00A0074180
0024009180
00090060C0
00030091C0
000182EE40
0000EA0000
0000100000
ENDCHAR
STARTCHAR Kcommaaccent
ENCODING 310
SWIDTH 541 0
DWIDTH 20 0
BBX 19 35 1 -9
BITMAP
0140000000
2EB8000500
6009002AD0
3009006070
300C009018
200C02400C
3008190074
300C7801D0
654C970300
A559818900
600F401800
600D006400
301801C000
3018079000
200D096000
600E582400
7E99701800
600DE19900
600F3A4500
201C280200
6018180240
6018090180
50080600A0
800C030060
901C0201C0
2EE401AA00
0000001000
0001900000
0002280000
0009080000
0018180000
0020600000
0090800000
0082400000
002A000000
ENDCHAR
STARTCHAR kcommaaccent
ENCODING 311
SWIDTH 541 0
DWIDTH 20 0
BBX 19 35 1 -9
BITMAP
0140000000
2EB8000500
6009002AD0
3009006070
300C009018
200C02400C
3008190074
300C7801D0
654C970300
A559818900
600F401800
600D006400
301801C000
3018079000
200D096000
600E582400
7E99701800
600DE19900
600F3A4500
201C280200
6018180240
6018090180
50080600A0
800C030060
901C0201C0
2EE401AA00
0000001000
0001900000
0002280000
0009080000
0018180000
0020600000
0090800000
0082400000
002A000000
ENDCHAR
STARTCHAR kgreenlandic
ENCODING 312
SWIDTH 541 0
DWIDTH 20 0
BBX 19 27 1 -1
BITMAP
0140000000
2EB8000500
6009002AD0
3009006070
300C009018
200C02400C
3008190074
300C7801D0
654C970300
A559818900
600F401800
600D006400
301801C000
3018079000
200D096000
600E582400
7E99701800
600DE19900
600F3A4500
201C280200
6018180240
6018090180
50080600A0
800C030060
901C0201C0
2EE401AA00
0000001000
ENDCHAR
STARTCHAR Lacute
ENCODING 313
SWIDTH 467 0
DWIDTH 17 0
BBX 17 34 1 0
BITMAP
0002900000
0005640000
0008180000
0024240000
0060900000
0181400000
0186000000
006C000000
0140000000
2EB8000000
6009000000
3009000000
300C000000
200C000000
3008000000
300C000000
654C000000
A558000000
600C000000
6008000000
3018000000
3018000000
2008000000
600C000000
7E99000000
600C000000
6008000000
201E945900
60199AA700
6018800240
9008800180
800D400140
901D5A5300
2EE6956D00
ENDCHAR
STARTCHAR lacute
ENCODING 314
SWIDTH 467 0
DWIDTH 17 0
BBX 17 34 1 0
BITMAP
0002900000
0005640000
0008180000
0024240000
0060900000
0181400000
0186000000
006C000000
0140000000
2EB8000000
6009000000
3009000000
300C000000
200C000000
3008000000
300C000000
654C000000
A558000000
600C000000
6008000000
3018000000
3018000000
2008000000
600C000000
7E99000000
600C000000
6008000000
201E945900
60199AA700
6018800240
9008800180
800D400140
901D5A5300
2EE6956D00
ENDCHAR
STARTCHAR Lcommaaccent
ENCODING 315
SWIDTH 467 0
DWIDTH 17 0
BBX 17 35 1 -9
BITMAP
0140000000
2EB8000000
6009000000
3009000000
300C000000
200C000000
3008000000
300C000000
654C000000
A558000000
600C000000
6008000000
3018000000
3018000000
2008000000
600C000000
7E99000000
600C000000
6008000000
201E945900
60199AA700
6018800240
9008800180
800D400140
901D5A5300
2EE6956D00
0000000000
000A400000
0019900000
0020200000
0050900000
0182400000
0206000000
0208000000
01B4000000
ENDCHAR
STARTCHAR lcommaaccent
ENCODING 316
SWIDTH 467 0
DWIDTH 17 0
BBX 17 35 1 -9
BITMAP
0140000000
2EB8000000
6009000000
3009000000
300C000000
200C000000
3008000000
300C000000
654C000000
A558000000
600C000000
6008000000
3018000000
3018000000
2008000000
600C000000
7E99000000
600C000000
6008000000
201E945900
60199AA700
6018800240
9008800180
800D400140
901D5A5300
2EE6956D00
0000000000
000A400000
0019900000
0020200000
0050900000
0182400000
0206000000
0208000000
01B4000000
ENDCHAR
STARTCHAR Lcaron
ENCODING 317
SWIDTH 467 0
DWIDTH 17 0
BBX 17 28 1 0
BITMAP
000002A400
0000020800
0140090900
2EB8182400
6009606000
3009918000
300C660000
200C190000
3008000000
300C000000
654C000000
A558000000
600C000000
6008000000
3018000000
3018000000
2008000000
600C000000
7E99000000
600C000000
6008000000
201E945900
60199AA700
6018800240
9008800180
800D400140
901D5A5300
2EE6956D00
ENDCHAR
STARTCHAR lcaron
ENCODING 318
SWIDTH 467 0
DWIDTH 17 0
BBX 17 28 1 0
BITMAP
000002A400
0000020800
0140090900
2EB8182400
6009606000
3009918000
300C660000
200C190000
3008000000
300C000000
654C000000
A558000000
600C000000
6008000000
3018000000
3018000000
2008000000
600C000000
7E99000000
600C000000
6008000000
201E945900
60199AA700
6018800240
9008800180
800D400140
901D5A5300
2EE6956D00
ENDCHAR
STARTCHAR Ldot
ENCODING 319
SWIDTH 611 0
DWIDTH 22 0
BBX 20 26 1 0
BITMAP
0140000000
2EB8000000
6009000000
3009000000
300C000000
200C000000
3008000000
300C000000
654C000000
A558000000
600C0006A9
6008000903
3018000502
3018000506
2008000606
600C0001A4
7E99000000
600C000000
6008000000
201E945900
60199AA700
6018800240
9008800180
800D400140
901D5A5300
2EE6956D00
ENDCHAR
STARTCHAR ldotaccent
ENCODING 320
SWIDTH 611 0
DWIDTH 22 0
BBX 20 26 1 0
BITMAP
0140000000
2EB8000000
6009000000
3009000000
300C000000
200C000000
3008000000
300C000000
654C000000
A558000000
600C0006A9
6008000903
3018000502
3018000506
2008000606
600C0001A4
7E99000000
600C000000
6008000000
201E945900
60199AA700
6018800240
9008800180
800D400140
901D5A5300
2EE6956D00
ENDCHAR
STARTCHAR Lslash
ENCODING 321
SWIDTH 505 0
DWIDTH 18 0
BBX 20 26 -1 0
BITMAP
0001000000
007AA00000
00D0180000
0090180000
0050240000
0050240000
0090240000
0090240000
00D5140000
00E5594000
00C02EA000
1AC0203000
6090202400
9090202400
509025A000
70C0294000
2AFA580000
05C0140000
0080200000
00803A95B4
008036594C
00C0314009
0080254005
0180154009
0180296AA8
007AE65010
ENDCHAR
STARTCHAR lslash
ENCODING 322
SWIDTH 505 0
DWIDTH 18 0
BBX 20 26 -1 0
BITMAP
0001000000
007AA00000
00D0180000
0090180000
0050240000
0050240000
0090240000
0090240000
00D5140000
00E5594000
00C02EA000
1AC0203000
6090202400
9090202400
509025A000
70C0294000
2AFA580000
05C0140000
0080200000
00803A95B4
008036594C
00C0314009
0080254005
0180154009
0180296AA8
007AE65010
ENDCHAR
STARTCHAR Nacute
ENCODING 323
SWIDTH 598 0
DWIDTH 22 0
BBX 20 34 1 0
BITMAP
000001A000
0000025800
0000060500
0000080900
0000242000
0000609000
0000618000
00002A0000
0140000140
2EBA002EB4
600A806009
3009803009
300CC0300C
200C90300C
3008303008
300C28300C
654C09654C
A99B99A998
600C06600C
6008036008
201C01A018
301E00F018
200B007008
600D41640C
7A999A5E99
600CE0080C
6008600908
2018240618
6018180258
60180800D8
5008050098
800C0601CC
901C035A1C
2EA4016EA4
ENDCHAR
STARTCHAR nacute
ENCODING 324
SWIDTH 598 0
DWIDTH 22 0
BBX 20 34 1 0
BITMAP
000001A000
0000025800
0000060500
0000080900
0000242000
0000609000
0000618000
00002A0000
0140000140
2EBA002EB4
600A806009
3009803009
300CC0300C
200C90300C
3008303008
300C28300C
654C09654C
A99B99A998
600C06600C
6008036008
201C01A018
301E00F018
200B007008
600D41640C
7A999A5E99
600CE0080C
6008600908
2018240618
6018180258
60180800D8
5008050098
800C0601CC
901C035A1C
2EA4016EA4
ENDCHAR
STARTCHAR Ncommaaccent
ENCODING 325
SWIDTH 598 0
DWIDTH 22 0
BBX 20 35 1 -9
BITMAP
0140000140
2EBA002EB4
600A806009
3009803009
300CC0300C
200C90300C
3008303008
300C28300C
654C09654C
A99B99A998
600C06600C
6008036008
201C01A018
301E00F018
200B007008
600D41640C
7A999A5E99
600CE0080C
6008600908
2018240618
6018180258
60180800D8
5008050098
800C0601CC
901C035A1C
2EA4016EA4
0000000000
0000640000
00008A0000
0002420000
0006060000
0008180000
0024200000
0020900000
000A800000
ENDCHAR
STARTCHAR ncommaaccent
ENCODING 326
SWIDTH 598 0
DWIDTH 22 0
BBX 20 35 1 -9
BITMAP
0140000140
2EBA002EB4
600A806009
3009803009
300CC0300C
200C90300C
3008303008
300C28300C
654C09654C
A99B99A998
600C06600C
6008036008
201C01A018
301E00F018
200B007008
600D41640C
7A999A5E99
600CE0080C
6008600908
2018240618
6018180258
60180800D8
5008050098
800C0601CC
901C035A1C
2EA4016EA4
0000000000
0000640000
00008A0000
0002420000
0006060000
0008180000
0024200000
0020900000
000A800000
ENDCHAR
STARTCHAR Ncaron
ENCODING 327
SWIDTH 598 0
DWIDTH 22 0
BBX 20 36 1 0
BITMAP
0001005000
002A81A800
0060520600
0020260600
0018280800
0009082400
0006065000
0002038000
00019B4000
0000AA0000
0140000140
2EBA002EB4
600A806009
3009803009
300CC0300C
200C90300C
3008303008
300C28300C
654C09654C
A99B99A998
600C06600C
6008036008
201C01A018
301E00F018
200B007008
600D41640C
7A999A5E99
600CE0080C
6008600908
2018240618
6018180258
60180800D8
5008050098
800C0601CC
901C035A1C
2EA4016EA4
ENDCHAR
STARTCHAR ncaron
ENCODING 328
SWIDTH 598 0
DWIDTH 22 0
BBX 20 36 1 0
BITMAP
0001005000
002A81A800
0060520600
0020260600
0018280800
0009082400
0006065000
0002038000
00019B4000
0000AA0000
0140000140
2EBA002EB4
600A806009
3009803009
300CC0300C
200C90300C
3008303008
300C28300C
654C09654C
A99B99A998
600C06600C
6008036008
201C01A018
301E00F018
200B007008
600D41640C
7A999A5E99
600CE0080C
6008600908
2018240618
6018180258
60180800D8
5008050098
800C0601CC
901C035A1C
2EA4016EA4
ENDCHAR
STARTCHAR napostrophe
ENCODING 329
SWIDTH 807 0
DWIDTH 29 0
BBX 28 26 0 0
BITMAP
00000040000040
02A41AAA401AA9
06082407C02407
08092406901406
18241805601805
60901809301809
81801809241809
A60024090C2409
19002546062546
00003967A33966
00003006027005
0000240901A409
0000240A00E409
0000240B407409
0000240A802409
00002405C05C05
00003AA69A4AA6
00003016740916
00002409240609
00002409180248
00002408090188
00002009060068
00003009030039
00006006020096
0000600A02964A
00001EB8006FB8
ENDCHAR
STARTCHAR Eng
ENCODING 330
SWIDTH 595 0
DWIDTH 21 0
BBX 20 36 1 -10
BITMAP
0140000000
2EBA000690
600A802968
3009806009
300CC02008
300890300C
3008303008
300C283018
654C093008
A99B992008
600C066A4C
600803A598
201C01D00C
301E00E008
200B007018
600D406418
7A999A5818
600CE00818
600860090C
2018240798
201818029C
60180800D8
50080500A8
900C060198
901C035A18
2EA401A418
000000AA08
00002AE68C
0056A900CC
03A50C00B4
0600080090
05000815C0
060001A540
0302EA0000
01E9000000
0010000000
ENDCHAR
STARTCHAR eng
ENCODING 331
SWIDTH 595 0
DWIDTH 21 0
BBX 20 36 1 -10
BITMAP
0140000000
2EBA000690
600A802968
3009806009
300CC02008
300890300C
3008303008
300C283018
654C093008
A99B992008
600C066A4C
600803A598
201C01D00C
301E00E008
200B007018
600D406418
7A999A5818
600CE00818
600860090C
2018240798
201818029C
60180800D8
50080500A8
900C060198
901C035A18
2EA401A418
000000AA08
00002AE68C
0056A900CC
03A50C00B4
0600080090
05000815C0
060001A540
0302EA0000
01E9000000
0010000000
ENDCHAR
STARTCHAR Omacron
ENCODING 332
SWIDTH 612 0
DWIDTH 22 0
BBX 22 32 0 -1
BITMAP
0001A5590000
000215560000
000600020000
000615420000
0001A6A90000
009000000000
029BAE415000
0200066FBD00
060002002600
060006001A00
020005002900
02AAE5542500
0340D95ED600
0650C0180300
0AA8C01FE600
090080180300
090140080300
0902400C0300
080300080300
0C0300090240
1D4200090180
1966400AA9C0
180300090180
140600051580
24091AABEE80
300BAA540780
6009030003C0
A00902000390
296C02000690
0E50156BFF40
0A1BAA805400
029000000000
ENDCHAR
STARTCHAR omacron
ENCODING 333
SWIDTH 612 0
DWIDTH 22 0
BBX 22 32 0 -1
BITMAP
0001A5590000
000215560000
000600020000
000615420000
0001A6A90000
009000000000
029BAE415000
0200066FBD00
060002002600
060006001A00
020005002900
02AAE5542500
0340D95ED600
0650C0180300
0AA8C01FE600
090080180300
090140080300
0902400C0300
080300080300
0C0300090240
1D4200090180
1966400AA9C0
180300090180
140600051580
24091AABEE80
300BAA540780
6009030003C0
A00902000390
296C02000690
0E50156BFF40
0A1BAA805400
029000000000
ENDCHAR
STARTCHAR Obreve
ENCODING 334
SWIDTH 612 0
DWIDTH 22 0
BBX 22 36 0 -1
BITMAP
000190150000
001970368000
001820609000
000820508000
000825A54000
00091A5A4000
0005180B0000
0007B50A0000
00006AA80000
009000000000
029BAE415000
0200066FBD00
060002002600
060006001A00
020005002900
02AAE5542500
0340D95ED600
0650C0180300
0AA8C01FE600
090080180300
090140080300
0902400C0300
080300080300
0C0300090240
1D4200090180
1966400AA9C0
180300090180
140600051580
24091AABEE80
300BAA540780
6009030003C0
A00902000390
296C02000690
0E50156BFF40
0A1BAA805400
029000000000
ENDCHAR
STARTCHAR obreve
ENCODING 335
SWIDTH 612 0
DWIDTH 22 0
BBX 22 36 0 -1
BITMAP
000190150000
001970368000
001820609000
000820508000
000825A54000
00091A5A4000
0005180B0000
0007B50A0000
00006AA80000
009000000000
029BAE415000
0200066FBD00
060002002600
060006001A00
020005002900
02AAE5542500
0340D95ED600
0650C0180300
0AA8C01FE600
090080180300
090140080300
0902400C0300
080300080300
0C0300090240
1D4200090180
1966400AA9C0
180300090180
140600051580
24091AABEE80
300BAA540780
6009030003C0
A00902000390
296C02000690
0E50156BFF40
0A1BAA805400
029000000000
ENDCHAR
STARTCHAR Ohungarumlaut
ENCODING 336
SWIDTH 612 0
DWIDTH 22 0
BBX 22 35 0 -1
BITMAP
00000640A400
000008618900
000014264200
000020660600
000091981800
000242246000
000249208000
0000A81A4000
009000000000
029BAE415000
0200066FBD00
060002002600
060006001A00
020005002900
02AAE5542500
0340D95ED600
0650C0180300
0AA8C01FE600
090080180300
090140080300
0902400C0300
080300080300
0C0300090240
1D4200090180
1966400AA9C0
180300090180
140600051580
24091AABEE80
300BAA540780
6009030003C0
A00902000390
296C02000690
0E50156BFF40
0A1BAA805400
029000000000
ENDCHAR
STARTCHAR ohungarumlaut
ENCODING 337
SWIDTH 612 0
DWIDTH 22 0
BBX 22 35 0 -1
BITMAP
00000640A400
000008618900
000014264200
000020660600
000091981800
000242246000
000249208000
0000A81A4000
009000000000
029BAE415000
0200066FBD00
060002002600
060006001A00
020005002900
02AAE5542500
0340D95ED600
0650C0180300
0AA8C01FE600
090080180300
090140080300
0902400C0300
080300080300
0C0300090240
1D4200090180
1966400AA9C0
180300090180
140600051580
24091AABEE80
300BAA540780
6009030003C0
A00902000390
296C02000690
0E50156BFF40
0A1BAA805400
029000000000
ENDCHAR
STARTCHAR OE
ENCODING 338
SWIDTH 831 0
DWIDTH 30 0
BBX 30 27 0 -1
BITMAP
0090000050000000
029BAE47EEAE5B80
0200066FA1895450
0600020025450020
0600060016450020
0200050026040060
02AAE55423A6BE90
0340D95FD2550140
0650C00D92400000
0AA8C01E56400000
0900800802415000
0901400C03AA7000
0902400803002400
0803000803001400
0C03000C03002400
1D42000C02A93000
1966401FA5969000
1803000802400000
1406000D43000000
24091A6E93FE5640
300B9D50320D6580
60090500230C0080
A009060023080090
296C050032440080
0E5015BED2EAA580
0A1BAA4BAD141600
0290000000000000
ENDCHAR
STARTCHAR oe
ENCODING 339
SWIDTH 831 0
DWIDTH 30 0
BBX 30 27 0 -1
BITMAP
0090000050000000
029BAE47EEAE5B80
0200066FA1895450
0600020025450020
0600060016450020
0200050026040060
02AAE55423A6BE90
0340D95FD2550140
0650C00D92400000
0AA8C01E56400000
0900800802415000
0901400C03AA7000
0902400803002400
0803000803001400
0C03000C03002400
1D42000C02A93000
1966401FA5969000
1803000802400000
1406000D43000000
24091A6E93FE5640
300B9D50320D6580
60090500230C0080
A009060023080090
296C050032440080
0E5015BED2EAA580
0A1BAA4BAD141600
0290000000000000
ENDCHAR
STARTCHAR Racute
ENCODING 340
SWIDTH 532 0
DWIDTH 19 0
BBX 19 35 1 -1
BITMAP
0000029000
0000062400
0000080800
0000142400
0000609000
0000818000
0000820000
00006D0000
01B4000000
070A400000
7D01A90000
6800078000
3800096940
3A400805A0
31AD140030
300A900030
600C6B8060
7A8802B5C0
A00C190A90
6009A00090
201AD64640
201D75A800
201980A000
600A406000
650C902400
6A98A00900
600E64A600
601D1A0300
60180C0180
6018060090
6018024024
9008008024
C00C008060
A568006680
1A90001500
ENDCHAR
STARTCHAR racute
ENCODING 341
SWIDTH 532 0
DWIDTH 19 0
BBX 19 35 1 -1
BITMAP
0000029000
0000062400
0000080800
0000142400
0000609000
0000818000
0000820000
00006D0000
01B4000000
070A400000
7D01A90000
6800078000
3800096940
3A400805A0
31AD140030
300A900030
600C6B8060
7A8802B5C0
A00C190A90
6009A00090
201AD64640
201D75A800
201980A000
600A406000
650C902400
6A98A00900
600E64A600
601D1A0300
60180C0180
6018060090
6018024024
9008008024
C00C008060
A568006680
1A90001500
ENDCHAR
STARTCHAR Rcommaaccent
ENCODING 342
SWIDTH 532 0
DWIDTH 19 0
BBX 19 35 1 -9
BITMAP
01B4000000
070A400000
7D01A90000
6800078000
3800096940
3A400805A0
31AD140030
300A900030
600C6B8060
7A8802B5C0
A00C190A90
6009A00090
201AD64640
201D75A800
201980A000
600A406000
650C902400
6A98A00900
600E64A600
601D1A0300
60180C0180
6018060090
6018024024
9008008024
C00C008060
A568006680
1A90001500
0002900000
0006240000
0008080000
0018280000
0060600000
0081800000
0082000000
0069000000
ENDCHAR
STARTCHAR rcommaaccent
ENCODING 343
SWIDTH 532 0
DWIDTH 19 0
BBX 19 35 1 -9
BITMAP
01B4000000
070A400000
7D01A90000
6800078000
3800096940
3A400805A0
31AD140030
300A900030
600C6B8060
7A8802B5C0
A00C190A90
6009A00090
201AD64640
201D75A800
201980A000
600A406000
650C902400
6A98A00900
600E64A600
601D1A0300
60180C0180
6018060090
6018024024
9008008024
C00C008060
A568006680
1A90001500
0002900000
0006240000
0008080000
0018280000
0060600000
0081800000
0082000000
0069000000
ENDCHAR
STARTCHAR Rcaron
ENCODING 344
SWIDTH 532 0
DWIDTH 19 0
BBX 19 37 1 -1
BITMAP
0014010000
00AA0AA000
0142081400
0181541800
0050A06000
0020608000
0014264000
00081E0000
00096D0000
0002A80000
01B4000000
070A400000
7D01A90000
6800078000
3800096940
3A400805A0
31AD140030
300A900030
600C6B8060
7A8802B5C0
A00C190A90
6009A00090
201AD64640
201D75A800
201980A000
600A406000
650C902400
6A98A00900
600E64A600
601D1A0300
60180C0180
6018060090
6018024024
9008008024
C00C008060
A568006680
1A90001500
ENDCHAR
STARTCHAR rcaron
ENCODING 345
SWIDTH 532 0
DWIDTH 19 0
BBX 19 37 1 -1
BITMAP
0014010000
00AA0AA000
0142081400
0181541800
0050A06000
0020608000
0014264000
00081E0000
00096D0000
0002A80000
01B4000000
070A400000
7D01A90000
6800078000
3800096940
3A400805A0
31AD140030
300A900030
600C6B8060
7A8802B5C0
A00C190A90
6009A00090
201AD64640
201D75A800
201980A000
600A406000
650C902400
6A98A00900
600E64A600
601D1A0300
60180C0180
6018060090
6018024024
9008008024
C00C008060
A568006680
1A90001500
ENDCHAR
STARTCHAR Sacute
ENCODING 346
SWIDTH 442 0
DWIDTH 16 0
BBX 16 36 0 -1
BITMAP
00002900
00006240
00008080
00018280
00060900
00081800
00082000
0006D000
00000000
00000064
055BEE5C
1994C009
2AF08006
38148009
600846AC
600BA514
24060000
08028000
06009000
031A6000
02A02000
01C01800
00600900
00240240
000C0180
00092980
00079050
00024030
0005D018
2AAAA006
91032403
C0021409
C0021968
90156AE0
76AA4000
09000000
ENDCHAR
STARTCHAR sacute
ENCODING 347
SWIDTH 442 0
DWIDTH 16 0
BBX 16 36 0 -1
BITMAP
00002900
00006240
00008080
00018280
00060900
00081800
00082000
0006D000
00000000
00000064
055BEE5C
1994C009
2AF08006
38148009
600846AC
600BA514
24060000
08028000
06009000
031A6000
02A02000
01C01800
00600900
00240240
000C0180
00092980
00079050
00024030
0005D018
2AAAA006
91032403
C0021409
C0021968
90156AE0
76AA4000
09000000
ENDCHAR
STARTCHAR Scircumflex
ENCODING 348
SWIDTH 442 0
DWIDTH 16 0
BBX 16 37 0 -1
BITMAP
000EE000
00147400
00203800
00909600
01818240
06028080
05096060
02182090
01A41A40
00000000
00000064
055BEE5C
1994C009
2AF08006
38148009
600846AC
600BA514
24060000
08028000
06009000
031A6000
02A02000
01C01800
00600900
00240240
000C0180
00092980
00079050
00024030
0005D018
2AAAA006
91032403
C0021409
C0021968
90156AE0
76AA4000
09000000
ENDCHAR
STARTCHAR scircumflex
ENCODING 349
SWIDTH 442 0
DWIDTH 16 0
BBX 16 37 0 -1
BITMAP
000EE000
00147400
00203800
00909600
01818240
06028080
05096060
02182090
01A41A40
00000000
00000064
055BEE5C
1994C009
2AF08006
38148009
600846AC
600BA514
24060000
08028000
06009000
031A6000
02A02000
01C01800
00600900
00240240
000C0180
00092980
00079050
00024030
0005D018
2AAAA006
91032403
C0021409
C0021968
90156AE0
76AA4000
09000000
ENDCHAR
STARTCHAR Scedilla
ENCODING 350
SWIDTH 442 0
DWIDTH 16 0
BBX 16 34 0 -8
BITMAP
00000064
055BEE5C
1994C009
2AF08006
38148009
600846AC
600BA514
24060000
08028000
06009000
031A6000
02A02000
01C01800
00600900
00240240
000C0180
00092980
00079050
00024030
0005D018
2AAAA006
91032403
C0021409
C0021968
90156FE0
76AA8500
09014500
00024600
00170200
01A6AA00
02001800
0242A400
00A90000
00100000
ENDCHAR
STARTCHAR scedilla
ENCODING 351
SWIDTH 442 0
DWIDTH 16 0
BBX 16 34 0 -8
BITMAP
00000064
055BEE5C
1994C009
2AF08006
38148009
600846AC
600BA514
24060000
08028000
06009000
031A6000
02A02000
01C01800
00600900
00240240
000C0180
00092980
00079050
00024030
0005D018
2AAAA006
91032403
C0021409
C0021968
90156FE0
76AA8500
09014500
00024600
00170200
01A6AA00
02001800
0242A400
00A90000
00100000
ENDCHAR
STARTCHAR Scaron
ENCODING 352
SWIDTH 442 0
DWIDTH 16 0
BBX 16 37 0 -1
BITMAP
00500400
02A82A80
05082090
06059050
02428180
00818200
00509900
00207800
0025B400
001A9000
00000064
055BEE5C
1994C009
2AF08006
38148009
600846AC
600BA514
24060000
08028000
06009000
031A6000
02A02000
01C01800
00600900
00240240
000C0180
00092980
00079050
00024030
0005D018
2AAAA006
91032403
C0021409
C0021968
90156AE0
76AA4000
09000000
ENDCHAR
STARTCHAR scaron
ENCODING 353
SWIDTH 442 0
DWIDTH 16 0
BBX 16 37 0 -1
BITMAP
00500400
02A82A80
05082090
06059050
02428180
00818200
00509900
00207800
0025B400
001A9000
00000064
055BEE5C
1994C009
2AF08006
38148009
600846AC
600BA514
24060000
08028000
06009000
031A6000
02A02000
01C01800
00600900
00240240
000C0180
00092980
00079050
00024030
0005D018
2AAAA006
91032403
C0021409
C0021968
90156AE0
76AA4000
09000000
ENDCHAR
STARTCHAR Tcommaaccent
ENCODING 354
SWIDTH 453 0
DWIDTH 16 0
BBX 18 35 -1 -9
BITMAP
0500500100
2AAABAAE80
2000240090
6000240060
6000240050
3004115090
1AABBBAB80
0005024000
0009024000
000D514000
000E598000
000C024000
0008024000
0009020000
0009020000
0008024000
000D514000
000EA98000
000C024000
0008020000
0008030000
000C020000
000C020000
0018014000
0018024000
0007AD0000
0000000000
0002800000
0009600000
0008180000
0024240000
0060900000
0182400000
0186000000
006C000000
ENDCHAR
STARTCHAR tcommaaccent
ENCODING 355
SWIDTH 453 0
DWIDTH 16 0
BBX 18 35 -1 -9
BITMAP
0500500100
2AAABAAE80
2000240090
6000240060
6000240050
3004115090
1AABBBAB80
0005024000
0009024000
000D514000
000E598000
000C024000
0008024000
0009020000
0009020000
0008024000
000D514000
000EA98000
000C024000
0008020000
0008030000
000C020000
000C020000
0018014000
0018024000
0007AD0000
0000000000
0002800000
0009600000
0008180000
0024240000
0060900000
0182400000
0186000000
006C000000
ENDCHAR
STARTCHAR Tcaron
ENCODING 356
SWIDTH 453 0
DWIDTH 16 0
BBX 18 36 -1 0
BITMAP
0004004000
006A43A400
0080850800
0090880800
0020742400
0018246000
0008088000
00050B4000
00021E0000
0001A90000
0500500100
2AAABAAE80
2000240090
6000240060
6000240050
3004115090
1AABBBAB80
0005024000
0009024000
000D514000
000E598000
000C024000
0008024000
0009020000
0009020000
0008024000
000D514000
000EA98000
000C024000
0008020000
0008030000
000C020000
000C020000
0018014000
0018024000
0007AD0000
ENDCHAR
STARTCHAR tcaron
ENCODING 357
SWIDTH 453 0
DWIDTH 16 0
BBX 18 36 -1 0
BITMAP
0004004000
006A43A400
0080850800
0090880800
0020742400
0018246000
0008088000
00050B4000
00021E0000
0001A90000
0500500100
2AAABAAE80
2000240090
6000240060
6000240050
3004115090
1AABBBAB80
0005024000
0009024000
000D514000
000E598000
000C024000
0008024000
0009020000
0009020000
0008024000
000D514000
000EA98000
000C024000
0008020000
0008030000
000C020000
000C020000
0018014000
0018024000
0007AD0000
ENDCHAR
STARTCHAR Tbar
ENCODING 358
SWIDTH 455 0
DWIDTH 16 0
BBX 18 26 -1 -1
BITMAP
1FAAB95A80
3055255490
6000240050
6000240060
3000100090
29AAABFA80
0546164100
0005024000
0009014000
000FA98000
000C014000
01AE96A400
0200555C00
0600000900
0600000900
0200000800
01EFFFA800
000C014000
0008024000
0009020000
0008030000
000C020000
0018024000
0018018000
000A5A0000
0001540000
ENDCHAR
STARTCHAR tbar
ENCODING 359
SWIDTH 455 0
DWIDTH 16 0
BBX 18 26 -1 -1
BITMAP
1FAAB95A80
3055255490
6000240050
6000240060
3000100090
29AAABFA80
0546164100
0005024000
0009014000
000FA98000
000C014000
01AE96A400
0200555C00
0600000900
0600000900
0200000800
01EFFFA800
000C014000
0008024000
0009020000
0008030000
000C020000
0018024000
0018018000
000A5A0000
0001540000
ENDCHAR
STARTCHAR Utilde
ENCODING 360
SWIDTH 583 0
DWIDTH 21 0
BBX 21 36 0 -1
BITMAP
0000AA42A400
000183820900
000242D50900
000606281800
00181C242000
002029089000
006052068000
0024820B4000
000A41AE0000
000000010000
02EE402EB400
0601D0A00C00
0600C0500800
020180601800
060140201800
060240301800
090240200C00
0D5240654800
1D5580795900
0C0240600C00
0C0300300C00
0C0300200C00
0C0200240800
180200240900
294300240600
2967003AA600
140600240600
140900268500
24096AB96500
200BA9402900
60090C002A00
900508002700
395D08057240
0EA001B95700
061BEA0AB900
02E400000000
ENDCHAR
STARTCHAR utilde
ENCODING 361
SWIDTH 583 0
DWIDTH 21 0
BBX 21 36 0 -1
BITMAP
0000AA42A400
000183820900
000242D50900
000606281800
00181C242000
002029089000
006052068000
0024820B4000
000A41AE0000
000000010000
02EE402EB400
0601D0A00C00
0600C0500800
020180601800
060140201800
060240301800
090240200C00
0D5240654800
1D5580795900
0C0240600C00
0C0300300C00
0C0300200C00
0C0200240800
180200240900
294300240600
2967003AA600
140600240600
140900268500
24096AB96500
200BA9402900
60090C002A00
900508002700
395D08057240
0EA001B95700
061BEA0AB900
02E400000000
ENDCHAR
STARTCHAR Umacron
ENCODING 362
SWIDTH 583 0
DWIDTH 21 0
BBX 21 32 0 -1
BITMAP
0002A5680000
000915590000
000800060000
000955050000
0002AAA80000
000000010000
02EE402EB400
0601D0A00C00
0600C0500800
020180601800
060140201800
060240301800
090240200C00
0D5240654800
1D5580795900
0C0240600C00
0C0300300C00
0C0300200C00
0C0200240800
180200240900
294300240600
2967003AA600
140600240600
140900268500
24096AB96500
200BA9402900
60090C002A00
900508002700
395D08057240
0EA001B95700
061BEA0AB900
02E400000000
ENDCHAR
STARTCHAR umacron
ENCODING 363
SWIDTH 583 0
DWIDTH 21 0
BBX 21 32 0 -1
BITMAP
0002A5680000
000915590000
000800060000
000955050000
0002AAA80000
000000010000
02EE402EB400
0601D0A00C00
0600C0500800
020180601800
060140201800
060240301800
090240200C00
0D5240654800
1D5580795900
0C0240600C00
0C0300300C00
0C0300200C00
0C0200240800
180200240900
294300240600
2967003AA600
140600240600
140900268500
24096AB96500
200BA9402900
60090C002A00
900508002700
395D08057240
0EA001B95700
061BEA0AB900
02E400000000
ENDCHAR
STARTCHAR Ubreve
ENCODING 364
SWIDTH 583 0
DWIDTH 21 0
BBX 21 36 0 -1
BITMAP
000640540000
007580DA0000
006080824000
002091820000
002456960000
001469690000
0014602C0000
001ED4280000
0001AAA00000
000000010000
02EE402EB400
0601D0A00C00
0600C0500800
020180601800
060140201800
060240301800
090240200C00
0D5240654800
1D5580795900
0C0240600C00
0C0300300C00
0C0300200C00
0C0200240800
180200240900
294300240600
2967003AA600
140600240600
140900268500
24096AB96500
200BA9402900
60090C002A00
900508002700
395D08057240
0EA001B95700
061BEA0AB900
02E400000000
ENDCHAR
STARTCHAR ubreve
ENCODING 365
SWIDTH 583 0
DWIDTH 21 0
BBX 21 36 0 -1
BITMAP
000640540000
007580DA0000
006080824000
002091820000
002456960000
001469690000
0014602C0000
001ED4280000
0001AAA00000
000000010000
02EE402EB400
0601D0A00C00
0600C0500800
020180601800
060140201800
060240301800
090240200C00
0D5240654800
1D5580795900
0C0240600C00
0C0300300C00
0C0300200C00
0C0200240800
180200240900
294300240600
2967003AA600
140600240600
140900268500
24096AB96500
200BA9402900
60090C002A00
900508002700
395D08057240
0EA001B95700
061BEA0AB900
02E400000000
ENDCHAR
STARTCHAR Uring
ENCODING 366
SWIDTH 583 0
DWIDTH 21 0
BBX 21 38 0 -1
BITMAP
000050400000
0000AAA00000
000246240000
000606180000
00180A090000
003022420000
0024BA820000
000E94A90000
000800190000
000959580000
000655640000
000000010000
02EE402EB400
0601D0A00C00
0600C0500800
020180601800
060140201800
060240301800
090240200C00
0D5240654800
1D5580795900
0C0240600C00
0C0300300C00
0C0300200C00
0C0200240800
180200240900
294300240600
2967003AA600
140600240600
140900268500
24096AB96500
200BA9402900
60090C002A00
900508002700
395D08057240
0EA001B95700
061BEA0AB900
02E400000000
ENDCHAR
STARTCHAR uring
ENCODING 367
SWIDTH 583 0
DWIDTH 21 0
BBX 21 38 0 -1
BITMAP
000050400000
0000AAA00000
000246240000
000606180000
00180A090000
003022420000
0024BA820000
000E94A90000
000800190000
000959580000
000655640000
000000010000
02EE402EB400
0601D0A00C00
0600C0500800
020180601800
060140201800
060240301800
090240200C00
0D5240654800
1D5580795900
0C0240600C00
0C0300300C00
0C0300200C00
0C0200240800
180200240900
294300240600
2967003AA600
140600240600
140900268500
24096AB96500
200BA9402900
60090C002A00
900508002700
395D08057240
0EA001B95700
061BEA0AB900
02E400000000
ENDCHAR
STARTCHAR Uhungarumlaut
ENCODING 368
SWIDTH 583 0
DWIDTH 21 0
BBX 21 35 0 -1
BITMAP
000029029000
000022862400
000090880800
000181A42400
000206609000
000918818000
000820820000
0006906D0000
000000010000
02EE402EB400
0601D0A00C00
0600C0500800
020180601800
060140201800
060240301800
090240200C00
0D5240654800
1D5580795900
0C0240600C00
0C0300300C00
0C0300200C00
0C0200240800
180200240900
294300240600
2967003AA600
140600240600
140900268500
24096AB96500
200BA9402900
60090C002A00
900508002700
395D08057240
0EA001B95700
061BEA0AB900
02E400000000
ENDCHAR
STARTCHAR uhungarumlaut
ENCODING 369
SWIDTH 583 0
DWIDTH 21 0
BBX 21 35 0 -1
BITMAP
000029029000
000022862400
000090880800
000181A42400
000206609000
000918818000
000820820000
0006906D0000
000000010000
02EE402EB400
0601D0A00C00
0600C0500800
020180601800
060140201800
060240301800
090240200C00
0D5240654800
1D5580795900
0C0240600C00
0C0300300C00
0C0300200C00
0C0200240800
180200240900
294300240600
2967003AA600
140600240600
140900268500
24096AB96500
200BA9402900
60090C002A00
900508002700
395D08057240
0EA001B95700
061BEA0AB900
02E400000000
ENDCHAR
STARTCHAR Uogonek
ENCODING 370
SWIDTH 583 0
DWIDTH 21 0
BBX 21 35 0 -9
BITMAP
000000010000
02EE402EB400
0601D0A00C00
0600C0500800
020180601800
060140201800
060240301800
090240200C00
0D5240654800
1D5580795900
0C0240600C00
0C0300300C00
0C0300200C00
0C0200240800
180200240900
294300240600
2967003AA600
140600240600
140900268500
24096AB96500
200BA9402900
60090C002A00
900508002700
395D08057240
0EA001B95700
061BEA0EB900
02E400142000
000000205000
000000608000
00000061E000
0000002E5A00
000000190240
000000028200
00000000A900
000000001400
ENDCHAR
STARTCHAR uogonek
ENCODING 371
SWIDTH 583 0
DWIDTH 21 0
BBX 21 35 0 -9
BITMAP
000000010000
02EE402EB400
0601D0A00C00
0600C0500800
020180601800
060140201800
060240301800
090240200C00
0D5240654800
1D5580795900
0C0240600C00
0C0300300C00
0C0300200C00
0C0200240800
180200240900
294300240600
2967003AA600
140600240600
140900268500
24096AB96500
200BA9402900
60090C002A00
900508002700
395D08057240
0EA001B95700
061BEA0EB900
02E400142000
000000205000
000000608000
00000061E000
0000002E5A00
000000190240
000000028200
00000000A900
000000001400
ENDCHAR
STARTCHAR Wcircumflex
ENCODING 372
SWIDTH 735 0
DWIDTH 26 0
BBX 26 34 0 -1
BITMAP
000002B9000000
0000060E000000
0000080B000000
00001829800000
00002070900000
000080A4240000
00018258180000
00009208240000
01402906905500
2EB400000196D0
901401BA014030
C0140742414020
60180901414090
30080A01424080
200C0A008300C0
24061940860080
25633A856FE480
2E5331F92C0580
180320C02C0240
0C0260902C0300
0901A0202C0200
0600D020180600
0300D425A40600
0201EA69790600
02B9803835A600
0280806C200900
00C18099200C00
00914089601800
00520085902400
00660085C02400
00290083802400
006391C2802400
0035FA00A57400
001A90001A4000
ENDCHAR
STARTCHAR wcircumflex
ENCODING 373
SWIDTH 735 0
DWIDTH 26 0
BBX 26 34 0 -1
BITMAP
000002B9000000
0000060E000000
0000080B000000
00001829800000
00002070900000
000080A4240000
00018258180000
00009208240000
01402906905500
2EB400000196D0
901401BA014030
C0140742414020
60180901414090
30080A01424080
200C0A008300C0
24061940860080
25633A856FE480
2E5331F92C0580
180320C02C0240
0C0260902C0300
0901A0202C0200
0600D020180600
0300D425A40600
0201EA69790600
02B9803835A600
0280806C200900
00C18099200C00
00914089601800
00520085902400
00660085C02400
00290083802400
006391C2802400
0035FA00A57400
001A90001A4000
ENDCHAR
STARTCHAR Ycircumflex
ENCODING 374
SWIDTH 484 0
DWIDTH 17 0
BBX 20 35 -1 0
BITMAP
0001EA0000
00020B0000
0006078000
0008089000
0024242000
0060681800
0080890900
0062461800
001A02A000
0000000000
0140001A40
1AA00035A0
2424002018
9018006009
9009009018
2402418030
0900930060
03012B4080
02591D6480
00E0180580
00A0240300
0024200900
0009600C00
0003C01400
0002E02000
0002593000
0003016000
0006009000
000C028000
0028030000
0060060000
0090090000
00600C0000
001E5C0000
0001900000
ENDCHAR
STARTCHAR ycircumflex
ENCODING 375
SWIDTH 484 0
DWIDTH 17 0
BBX 20 35 -1 0
BITMAP
0001EA0000
00020B0000
0006078000
0008089000
0024242000
0060681800
0080890900
0062461800
001A02A000
0000000000
0140001A40
1AA00035A0
2424002018
9018006009
9009009018
2402418030
0900930060
03012B4080
02591D6480
00E0180580
00A0240300
0024200900
0009600C00
0003C01400
0002E02000
0002593000
0003016000
0006009000
000C028000
0028030000
0060060000
0090090000
00600C0000
001E5C0000
0001900000
ENDCHAR
STARTCHAR Ydieresis
ENCODING 376
SWIDTH 484 0
DWIDTH 17 0
BBX 20 32 -1 0
BITMAP
0019415400
0195965A00
0180850200
0080850500
0080C60900
006A42A800
0000000000
0140001A40
1AA00035A0
2424002018
9018006009
9009009018
2402418030
0900930060
03012B4080
02591D6480
00E0180580
00A0240300
0024200900
0009600C00
0003C01400
0002E02000
0002593000
0003016000
0006009000
000C028000
0028030000
0060060000
0090090000
00600C0000
001E5C0000
0001900000
ENDCHAR
STARTCHAR Zacute
ENCODING 377
SWIDTH 458 0
DWIDTH 16 0
BBX 18 34 -1 0
BITMAP
0000029000
0000062400
0000080800
0000242400
0000609000
0000818000
0000820000
00006D0000
0000000000
01E6B96D00
0215355200
0500240240
05002402D0
06001002A0
026AAAABC0
0090340700
0000A00900
0001AD0C00
0002425400
0003002400
0006009000
000C018000
0034030000
00B8050000
00C74C0000
0180880000
0240240000
0A00B55900
1801B69600
6003240240
6006240240
2809200240
0A9E5AAA00
01A5540400
ENDCHAR
STARTCHAR zacute
ENCODING 378
SWIDTH 458 0
DWIDTH 16 0
BBX 18 34 -1 0
BITMAP
0000029000
0000062400
0000080800
0000242400
0000609000
0000818000
0000820000
00006D0000
0000000000
01E6B96D00
0215355200
0500240240
05002402D0
06001002A0
026AAAABC0
0090340700
0000A00900
0001AD0C00
0002425400
0003002400
0006009000
000C018000
0034030000
00B8050000
00C74C0000
0180880000
0240240000
0A00B55900
1801B69600
6003240240
6006240240
2809200240
0A9E5AAA00
01A5540400
ENDCHAR
STARTCHAR Zdotaccent
ENCODING 379
SWIDTH 458 0
DWIDTH 16 0
BBX 18 33 -1 0
BITMAP
0000650000
0006564000
0002020000
0002020000
0002030000
0001A90000
0000000000
0000000000
01E6B96D00
0215355200
0500240240
05002402D0
06001002A0
026AAAABC0
0090340700
0000A00900
0001AD0C00
0002425400
0003002400
0006009000
000C018000
0034030000
00B8050000
00C74C0000
0180880000
0240240000
0A00B55900
1801B69600
6003240240
6006240240
2809200240
0A9E5AAA00
01A5540400
ENDCHAR
STARTCHAR zdotaccent
ENCODING 380
SWIDTH 458 0
DWIDTH 16 0
BBX 18 33 -1 0
BITMAP
0000650000
0006564000
0002020000
0002020000
0002030000
0001A90000
0000000000
0000000000
01E6B96D00
0215355200
0500240240
05002402D0
06001002A0
026AAAABC0
0090340700
0000A00900
0001AD0C00
0002425400
0003002400
0006009000
000C018000
0034030000
00B8050000
00C74C0000
0180880000
0240240000
0A00B55900
1801B69600
6003240240
6006240240
2809200240
0A9E5AAA00
01A5540400
ENDCHAR
STARTCHAR Zcaron
ENCODING 381
SWIDTH 458 0
DWIDTH 16 0
BBX 18 36 -1 0
BITMAP
0004004000
006A43A400
0081890800
0090880800
0020742400
0014209000
0008098000
00090B4000
00021E0000
0001A90000
0000000000
01E6B96D00
0215355200
0500240240
05002402D0
06001002A0
026AAAABC0
0090340700
0000A00900
0001AD0C00
0002425400
0003002400
0006009000
000C018000
0034030000
00B8050000
00C74C0000
0180880000
0240240000
0A00B55900
1801B69600
6003240240
6006240240
2809200240
0A9E5AAA00
01A5540400
ENDCHAR
STARTCHAR zcaron
ENCODING 382
SWIDTH 458 0
DWIDTH 16 0
BBX 18 36 -1 0
BITMAP
0004004000
006A43A400
0081890800
0090880800
0020742400
0014209000
0008098000
00090B4000
00021E0000
0001A90000
0000000000
01E6B96D00
0215355200
0500240240
05002402D0
06001002A0
026AAAABC0
0090340700
0000A00900
0001AD0C00
0002425400
0003002400
0006009000
000C018000
0034030000
00B8050000
00C74C0000
0180880000
0240240000
0A00B55900
1801B69600
6003240240
6006240240
2809200240
0A9E5AAA00
01A5540400
ENDCHAR
STARTCHAR AEacute
ENCODING 508
SWIDTH 797 0
DWIDTH 29 0
BBX 30 34 -1 0
BITMAP
000000001A000000
0000000025800000
0000000060500000
0000000080900000
0000000242000000
0000000609000000
0000000518000000
00000002A0000000
0000000050000000
0000000BAEAE5B80
00000AFC028D5490
00000C1902490060
0000180203090060
0000240343080050
0000600903A6FEC0
0000D01C03550140
0003803952000000
0006A47D56400000
000505A803418000
000C00D803AA6000
0018024C02002000
0024060C02002400
00A00C0C02002000
01E01EA802A96000
0199245FA6569000
0201601802000000
0600600803000000
0901955803FE5600
2802EAA80619A580
60060018060800C0
9009001403080080
700C0024021400C0
1958002407AAA580
01A4000BB9141A00
ENDCHAR
STARTCHAR aeacute
ENCODING 509
SWIDTH 797 0
DWIDTH 29 0
BBX 30 34 -1 0
BITMAP
000000001A000000
0000000025800000
0000000060500000
0000000080900000
0000000242000000
0000000609000000
0000000518000000
00000002A0000000
0000000050000000
0000000BAEAE5B80
00000AFC028D5490
00000C1902490060
0000180203090060
0000240343080050
0000600903A6FEC0
0000D01C03550140
0003803952000000
0006A47D56400000
000505A803418000
000C00D803AA6000
0018024C02002000
0024060C02002400
00A00C0C02002000
01E01EA802A96000
0199245FA6569000
0201601802000000
0600600803000000
0901955803FE5600
2802EAA80619A580
60060018060800C0
9009001403080080
700C0024021400C0
1958002407AAA580
01A4000BB9141A00
ENDCHAR
STARTCHAR Oslashacute
ENCODING 510
SWIDTH 612 0
DWIDTH 22 0
BBX 22 36 0 -2
BITMAP
000000290000
000000524000
000000808000
000002424000
000006090000
000008180000
000008200000
000006D00000
009000000000
029BAE42A400
020006AE5D00
060002090300
060006080240
020005240600
02AAE5A00E00
0340DAC02600
0650C3405300
0AA8CAA0A600
090088198300
090158024300
090260090300
0802601D0300
0C0380290240
1D4340590180
196B808AA9C0
1808B5890180
141816451580
242007ABEE80
30901E540780
6180230003C0
A60092000390
2C0082000690
0C01556BFF40
0602AA805400
02EA00000000
005400000000
ENDCHAR
STARTCHAR oslashacute
ENCODING 511
SWIDTH 612 0
DWIDTH 22 0
BBX 22 36 0 -2
BITMAP
000000290000
000000524000
000000808000
000002424000
000006090000
000008180000
000008200000
000006D00000
009000000000
029BAE42A400
020006AE5D00
060002090300
060006080240
020005240600
02AAE5A00E00
0340DAC02600
0650C3405300
0AA8CAA0A600
090088198300
090158024300
090260090300
0802601D0300
0C0380290240
1D4340590180
196B808AA9C0
1808B5890180
141816451580
242007ABEE80
30901E540780
6180230003C0
A60092000390
2C0082000690
0C01556BFF40
0602AA805400
02EA00000000
005400000000
ENDCHAR
STARTCHAR dotlessj
ENCODING 567
SWIDTH 482 0
DWIDTH 17 0
BBX 18 28 -1 -2
BITMAP
0000001400
000002EB80
0000060090
0000020080
00000300C0
0000030080
0000030080
0000020080
00000654C0
00000A5580
00000600C0
0000060180
0000020180
07A0020180
2824020180
60180600C0
900607E980
7401D600C0
0901660180
020A2A0180
01A40E0180
00A0074180
0024009180
00090060C0
00030091C0
000182EE40
0000EA0000
0000100000
ENDCHAR
STARTCHAR circumflex
ENCODING 710
SWIDTH 308 0
DWIDTH 11 0
BBX 11 9 0 27
BITMAP
01E900
020B00
050740
081880
243060
90A424
81880C
920518
2A02A0
ENDCHAR
STARTCHAR caron
ENCODING 711
SWIDTH 310 0
DWIDTH 11 0
BBX 11 10 0 27
BITMAP
040040
6A43A4
818508
908808
207424
182050
080980
050B40
021E00
01A900
ENDCHAR
STARTCHAR breve
ENCODING 728
SWIDTH 333 0
DWIDTH 12 0
BBX 12 9 0 27
BITMAP
190050
A58199
808243
508205
209788
30A968
309038
2A9074
02AAD0
ENDCHAR
STARTCHAR dotaccent
ENCODING 729
SWIDTH 166 0
DWIDTH 6 0
BBX 6 6 0 27
BITMAP
1640
A570
9060
6050
2050
2A80
ENDCHAR
STARTCHAR ring
ENCODING 730
SWIDTH 309 0
DWIDTH 11 0
BBX 11 11 0 27
BITMAP
014100
02AA80
091890
180820
202824
909908
91EA08
3A56A4
200064
256560
195590
ENDCHAR
STARTCHAR ogonek
ENCODING 731
SWIDTH 226 0
DWIDTH 8 0
BBX 8 12 0 -9
BITMAP
0640
0960
1824
2420
2090
9080
91A0
3E19
1D02
0242
0099
0010
ENDCHAR
STARTCHAR tilde
ENCODING 732
SWIDTH 410 0
DWIDTH 15 0
BBX 15 9 0 27
BITMAP
01A906A0
020B0814
05075818
0818A020
24346090
90A82580
81880E00
92051E00
2902B900
ENDCHAR
STARTCHAR hungarumlaut
ENCODING 733
SWIDTH 361 0
DWIDTH 13 0
BBX 13 8 0 27
BITMAP
01902900
02186240
09088080
08198280
20660A00
90881800
92482000
2A06D000
ENDCHAR
STARTCHAR uni0312
ENCODING 786
SWIDTH 202 0
DWIDTH 7 0
BBX 8 8 0 17
BITMAP
02A4
0608
0809
1824
6090
8180
A600
1900
ENDCHAR
STARTCHAR uni0315
ENCODING 789
SWIDTH 202 0
DWIDTH 7 0
BBX 8 8 0 17
BITMAP
02A4
0608
0809
1824
6090
8180
A600
1900
ENDCHAR
STARTCHAR uni0326
ENCODING 806
SWIDTH 201 0
DWIDTH 7 0
BBX 7 8 0 -9
BITMAP
0190
0228
0908
0818
2460
9080
9240
2A00
ENDCHAR
STARTCHAR Wgrave
ENCODING 7808
SWIDTH 735 0
DWIDTH 26 0
BBX 26 33 0 -1
BITMAP
00000AD0000000
00002460000000
00002020000000
00002420000000
00000814000000
00000608000000
00000208000000
014001A4005500
2EB400000196D0
901401BA014030
C0140742414020
60180901414090
30080A01424080
200C0A008300C0
24061940860080
25633A856FE480
2E5331F92C0580
180320C02C0240
0C0260902C0300
0901A0202C0200
0600D020180600
0300D425A40600
0201EA69790600
02B9803835A600
0280806C200900
00C18099200C00
00914089601800
00520085902400
00660085C02400
00290083802400
006391C2802400
0035FA00A57400
001A90001A4000
ENDCHAR
STARTCHAR wgrave
ENCODING 7809
SWIDTH 735 0
DWIDTH 26 0
BBX 26 33 0 -1
BITMAP
00000AD0000000
00002460000000
00002020000000
00002420000000
00000814000000
00000608000000
00000208000000
014001A4005500
2EB400000196D0
901401BA014030
C0140742414020
60180901414090
30080A01424080
200C0A008300C0
24061940860080
25633A856FE480
2E5331F92C0580
180320C02C0240
0C0260902C0300
0901A0202C0200
0600D020180600
0300D425A40600
0201EA69790600
02B9803835A600
0280806C200900
00C18099200C00
00914089601800
00520085902400
00660085C02400
00290083802400
006391C2802400
0035FA00A57400
001A90001A4000
ENDCHAR
STARTCHAR Wacute
ENCODING 7810
SWIDTH 735 0
DWIDTH 26 0
BBX 26 34 0 -1
BITMAP
00000002900000
00000006240000
00000009080000
00000018180000
00000020600000
00000091800000
00000082000000
00000069000000
01400000005500
2EB400000196D0
901401BA014030
C0140742414020
60180901414090
30080A01424080
200C0A008300C0
24061940860080
25633A856FE480
2E5331F92C0580
180320C02C0240
0C0260902C0300
0901A0202C0200
0600D020180600
0300D425A40600
0201EA69790600
02B9803835A600
0280806C200900
00C18099200C00
00914089601800
00520085902400
00660085C02400
00290083802400
006391C2802400
0035FA00A57400
001A90001A4000
ENDCHAR
STARTCHAR wacute
ENCODING 7811
SWIDTH 735 0
DWIDTH 26 0
BBX 26 34 0 -1
BITMAP
00000002900000
00000006240000
00000009080000
00000018180000
00000020600000
00000091800000
00000082000000
00000069000000
01400000005500
2EB400000196D0
901401BA014030
C0140742414020
60180901414090
30080A01424080
200C0A008300C0
24061940860080
25633A856FE480
2E5331F92C0580
180320C02C0240
0C0260902C0300
0901A0202C0200
0600D020180600
0300D425A40600
0201EA69790600
02B9803835A600
0280806C200900
00C18099200C00
00914089601800
00520085902400
00660085C02400
00290083802400
006391C2802400
0035FA00A57400
001A90001A4000
ENDCHAR
STARTCHAR Wdieresis
ENCODING 7812
SWIDTH 735 0
DWIDTH 26 0
BBX 26 32 0 -1
BITMAP
00006901500000
00029589590000
00020188090000
00014148080000
00018248080000
0000AA06A40000
01400000005500
2EB400000196D0
901401BA014030
C0140742414020
60180901414090
30080A01424080
200C0A008300C0
24061940860080
25633A856FE480
2E5331F92C0580
180320C02C0240
0C0260902C0300
0901A0202C0200
0600D020180600
0300D425A40600
0201EA69790600
02B9803835A600
0280806C200900
00C18099200C00
00914089601800
00520085902400
00660085C02400
00290083802400
006391C2802400
0035FA00A57400
001A90001A4000
ENDCHAR
STARTCHAR wdieresis
ENCODING 7813
SWIDTH 735 0
DWIDTH 26 0
BBX 26 32 0 -1
BITMAP
00006901500000
00029589590000
00020188090000
00014148080000
00018248080000
0000AA06A40000
01400000005500
2EB400000196D0
901401BA014030
C0140742414020
60180901414090
30080A01424080
200C0A008300C0
24061940860080
25633A856FE480
2E5331F92C0580
180320C02C0240
0C0260902C0300
0901A0202C0200
0600D020180600
0300D425A40600
0201EA69790600
02B9803835A600
0280806C200900
00C18099200C00
00914089601800
00520085902400
00660085C02400
00290083802400
006391C2802400
0035FA00A57400
001A90001A4000
ENDCHAR
STARTCHAR Ygrave
ENCODING 7922
SWIDTH 484 0
DWIDTH 17 0
BBX 20 33 -1 0
BITMAP
0006A00000
0018200000
0024240000
0008180000
0006080000
0002060000
0001860000
0000A80000
0140001A40
1AA00035A0
2424002018
9018006009
9009009018
2402418030
0900930060
03012B4080
02591D6480
00E0180580
00A0240300
0024200900
0009600C00
0003C01400
0002E02000
0002593000
0003016000
0006009000
000C028000
0028030000
0060060000
0090090000
00600C0000
001E5C0000
0001900000
ENDCHAR
STARTCHAR ygrave
ENCODING 7923
SWIDTH 484 0
DWIDTH 17 0
BBX 20 33 -1 0
BITMAP
0006A00000
0018200000
0024240000
0008180000
0006080000
0002060000
0001860000
0000A80000
0140001A40
1AA00035A0
2424002018
9018006009
9009009018
2402418030
0900930060
03012B4080
02591D6480
00E0180580
00A0240300
0024200900
0009600C00
0003C01400
0002E02000
0002593000
0003016000
0006009000
000C028000
0028030000
0060060000
0090090000
00600C0000
001E5C0000
0001900000
ENDCHAR
STARTCHAR endash
ENCODING 8211
SWIDTH 591 0
DWIDTH 21 0
BBX 20 8 1 8
BITMAP
2401004000
A6EBAAFAB8
C002009108
8002005009
8002009009
9151144008
3A6AAAEAE8
0000000010
ENDCHAR
STARTCHAR emdash
ENCODING 8212
SWIDTH 726 0
DWIDTH 26 0
BBX 25 8 1 8
BITMAP
14000000000000
6AAAFAABE96900
C0005041855300
80005000800200
80005000800240
91544150400300
7A9AAAAAAAA900
00000000000400
ENDCHAR
STARTCHAR quoteleft
ENCODING 8216
SWIDTH 291 0
DWIDTH 11 0
BBX 11 15 0 12
BITMAP
001500
00AAD0
008070
00C024
018060
030090
0B9080
086980
080240
140200
200900
900C00
800800
601800
1EB400
ENDCHAR
STARTCHAR quoteright
ENCODING 8217
SWIDTH 291 0
DWIDTH 11 0
BBX 11 15 0 12
BITMAP
001500
00AAD0
008070
00C024
018060
030090
0B9080
086980
080240
140200
200900
900C00
800800
601800
1EB400
ENDCHAR
STARTCHAR quotesinglbase
ENCODING 8218
SWIDTH 228 0
DWIDTH 8 0
BBX 9 10 -1 -5
BITMAP
00A400
025A00
020240
090180
280240
A00800
802400
906000
348000
0A4000
ENDCHAR
STARTCHAR quotedblleft
ENCODING 8220
SWIDTH 532 0
DWIDTH 19 0
BBX 19 15 0 12
BITMAP
0015000500
00AAD03AE0
0080702028
00C024600C
0180609024
0300918020
0B9083A050
0869861990
0802450080
1402080140
2009180300
900C300600
8008200500
6018280900
1AB40BA800
ENDCHAR
STARTCHAR quotedblright
ENCODING 8221
SWIDTH 532 0
DWIDTH 19 0
BBX 19 15 0 12
BITMAP
0015000500
00AAD03AE0
0080702028
00C024600C
0180609024
0300918020
0B9083A050
0869861990
0802450080
1402080140
2009180300
900C300600
8008200500
6018280900
1EB40BA800
ENDCHAR
STARTCHAR quotedblbase
ENCODING 8222
SWIDTH 448 0
DWIDTH 16 0
BBX 17 10 -1 -5
BITMAP
00A401A400
025A025A00
0202420240
0901890180
2802640640
A009900800
8024802400
9060805000
3480748000
0A401A4000
ENDCHAR
STARTCHAR dagger
ENCODING 8224
SWIDTH 453 0
DWIDTH 16 0
BBX 16 30 0 -2
BITMAP
00015000
001EAD00
00340600
00240600
00240900
00140900
1EA40968
30640A59
60240905
60354506
603AA605
25B00A9C
0A700964
00240800
00240800
00240800
00200800
00300900
003A9600
00355500
00300900
00200800
00200C00
00200C00
00300C00
00200800
00600900
00900600
00396C00
00069000
ENDCHAR
STARTCHAR daggerdbl
ENCODING 8225
SWIDTH 462 0
DWIDTH 17 0
BBX 15 30 1 -2
BITMAP
00054000
007AB400
00901C00
00900800
00601800
00601400
3EA029A0
91A02964
C0901418
80955808
C0EA9818
95C01E64
29902550
00902400
00502400
00902400
00902400
00901800
29EA5850
A6D55EA4
C0901418
80902408
C0902018
90902524
7EC02AA0
00C02400
00801800
01801800
00A5B400
001A8000
ENDCHAR
STARTCHAR bullet
ENCODING 8226
SWIDTH 275 0
DWIDTH 10 0
BBX 6 6 2 10
BITMAP
6A90
8060
9050
9050
A0A0
1A40
ENDCHAR
STARTCHAR ellipsis
ENCODING 8230
SWIDTH 605 0
DWIDTH 22 0
BBX 20 7 1 -1
BITMAP
0400140050
AA92AA46AA
8052018902
8082414502
8082414502
958296465A
1900650064
ENDCHAR
STARTCHAR perthousand
ENCODING 8240
SWIDTH 1249 0
DWIDTH 45 0
BBX 43 25 1 0
BITMAP
1A55800000000000000000
60156002A8000000000000
AA40290606000000000000
8080220502000000000000
80AA950505000000000000
8142050808000000000000
8142050808000000000000
8142051808000000000000
8142052A58000000000000
8AAA052054000000000000
A402022020000000000000
A006062021AA9A006A9680
7401A82052500240940090
0AAAA050565801A19A0068
0000008095090161020058
000000E4850AAA2142AA88
0000008585081421420508
0000014085081421420508
0000014145081421420508
0000020205181421460408
00000202059AA02126A808
0000090209802022600808
0000090209802422600908
000002A901855AC0A156B0
0000000000655A40195690
ENDCHAR
STARTCHAR guilsinglleft
ENCODING 8249
SWIDTH 359 0
DWIDTH 13 0
BBX 11 16 1 5
BITMAP
000240
0009A0
006028
028008
190018
D000A4
800640
C02800
E0B400
9E8900
C10280
680064
064018
009018
002470
000A80
ENDCHAR
STARTCHAR guilsinglright
ENCODING 8250
SWIDTH 359 0
DWIDTH 13 0
BBX 11 16 1 5
BITMAP
060000
298000
A06400
800A00
900190
68001C
064008
00A00C
007828
018AD8
0A0118
6400A4
800640
901800
346000
1A8000
ENDCHAR
STARTCHAR fraction
ENCODING 8260
SWIDTH 266 0
DWIDTH 10 0
BBX 10 23 0 1
BITMAP
006A40
008090
008050
008080
008080
018140
020140
03A200
020600
060200
050500
090800
080800
080800
1A4800
205800
201400
202000
202000
505000
805000
805000
6A8000
ENDCHAR
STARTCHAR Euro
ENCODING 8364
SWIDTH 690 0
DWIDTH 25 0
BBX 24 27 0 -1
BITMAP
000014000000
0000A6EB9010
0000C0019BE8
000080008009
000080008005
0000C0014005
0000AAB95508
0064D03696B8
019694300000
0242AA700000
030240300000
024140600000
019A40900000
045640900000
2AAB00800000
200750900000
600659900000
600600C00000
205601800010
1A99024AAAA8
000C02E75409
001802414006
001801414006
000A5B414009
000294056EA8
000186EA9000
000074000000
ENDCHAR
STARTCHAR partialdiff
ENCODING 8706
SWIDTH 519 0
DWIDTH 19 0
BBX 20 26 -1 -1
BITMAP
00001FB400
0000A01800
0000C01800
0000601800
0000300C00
0000240900
0000140600
0000186B40
0000199640
00003C0240
0001990240
001A060180
0074030080
01E4030080
0A080701A0
74062B2AA0
9014A25030
60AB818030
3681A48024
1F001A9014
030000600C
0240006009
0069002006
0002D0741C
0000287B90
0000079000
ENDCHAR
STARTCHAR minus
ENCODING 8722
SWIDTH 467 0
DWIDTH 17 0
BBX 15 8 1 8
BITMAP
14010000
6BEBEAF0
80014418
C0018008
C0018008
80014018
6AEAABB0
14010010
ENDCHAR
STARTCHAR fi
ENCODING 64257
SWIDTH 741 0
DWIDTH 27 0
BBX 25 26 1 0
BITMAP
01400000005000
2EBAB96E0BAE00
600A35524C0280
300920014C0240
300C2001880300
200C2002490300
300E9BEB080300
300D54040C0300
654C0000195200
A5580000195640
600D0600180300
600EAA800C0300
301800800C0200
301800900C0200
200800800C0300
600E9580180200
7E995A001FA640
600C0000180200
60080000080300
201800000C0200
60180000080600
60180000180200
50080000180300
800C0000240200
901C0000280740
2EE400000BB900
ENDCHAR
STARTCHAR fl
ENCODING 64258
SWIDTH 942 0
DWIDTH 34 0
BBX 34 26 1 0
BITMAP
014000000050000000
2EBAB96E0BAE000000
600A35524C02800000
300920014C02400000
300C20018803000000
200C20024903000000
300E9BEB0803000000
300D54040C03000000
654C00001952000000
A55800001956400000
600D06001803000000
600EAA800C03000000
301800800C02000000
301800900C02000000
200800800C03000000
600E95801802000000
7E995A001FA6400000
600C00001802000000
600800000803000000
201800000C03A51540
60180000080666A980
601800001802200050
500800001803200060
800C00002402600060
901C00002807569490
2EE400000BB9A55A80
ENDCHAR
STARTCHAR .notdef
ENCODING -1
SWIDTH 200 0
DWIDTH 7 0
BBX 1 1 0 0
BITMAP
00
ENDCHAR
STARTCHAR .null
ENCODING -1
SWIDTH 0 0
DWIDTH 0 0
BBX 1 1 0 0
BITMAP
00
ENDCHAR
STARTCHAR nonmarkingreturn
ENCODING -1
SWIDTH 200 0
DWIDTH 7 0
BBX 1 1 0 0
BITMAP
00
ENDCHAR
ENDFONT
